<?xml version="1.0" encoding="UTF-8" standalone="no"?>
<!-- Created with Inkscape (http://www.inkscape.org/) -->

<svg
   xmlns:dc="http://purl.org/dc/elements/1.1/"
   xmlns:cc="http://creativecommons.org/ns#"
   xmlns:rdf="http://www.w3.org/1999/02/22-rdf-syntax-ns#"
   xmlns:svg="http://www.w3.org/2000/svg"
   xmlns="http://www.w3.org/2000/svg"
   xmlns:sodipodi="http://sodipodi.sourceforge.net/DTD/sodipodi-0.dtd"
   xmlns:inkscape="http://www.inkscape.org/namespaces/inkscape"
   width="200"
   height="200"
   viewBox="0 0 200 200"
   id="svg2"
   version="1.1"
   inkscape:version="0.91 r13725"
   sodipodi:docname="dataid.svg">
  <defs
     id="defs4">
    <inkscape:perspective
       sodipodi:type="inkscape:persp3d"
       inkscape:vp_x="0 : 100 : 1"
       inkscape:vp_y="0 : 1000 : 0"
       inkscape:vp_z="200 : 100 : 1"
       inkscape:persp3d-origin="100 : 66.666667 : 1"
       id="perspective4260" />
  </defs>
  <sodipodi:namedview
     id="base"
     pagecolor="#ffffff"
     bordercolor="#666666"
     borderopacity="1.0"
     inkscape:pageopacity="0.0"
     inkscape:pageshadow="2"
     inkscape:zoom="2.8284271"
     inkscape:cx="111.77858"
     inkscape:cy="89.516143"
     inkscape:document-units="px"
     inkscape:current-layer="layer1"
     showgrid="false"
     units="px"
     inkscape:window-width="1440"
     inkscape:window-height="851"
     inkscape:window-x="0"
     inkscape:window-y="1"
     inkscape:window-maximized="1" />
  <metadata
     id="metadata7">
    <rdf:RDF>
      <cc:Work
         rdf:about="">
        <dc:format>image/svg+xml</dc:format>
        <dc:type
           rdf:resource="http://purl.org/dc/dcmitype/StillImage" />
        <dc:title></dc:title>
      </cc:Work>
    </rdf:RDF>
  </metadata>
  <g
     inkscape:label="Layer 1"
     inkscape:groupmode="layer"
     id="layer1"
     transform="translate(0,-852.36216)">
    <path
       style="opacity:1;fill:#000000;fill-opacity:1;stroke:#000000;stroke-width:0;stroke-miterlimit:4;stroke-dasharray:none;stroke-dashoffset:0;stroke-opacity:1"
       id="path4166"
       d="m 58.647257,868.59546 c -0.837799,-0.17793 -0.152236,-0.0859 -1.130066,-0.0353 -0.213282,0.011 -0.434091,-0.0572 -0.640694,-0.003 -0.279124,0.0731 -0.511648,0.26934 -0.780086,0.37514 -0.890879,0.35111 -1.811484,0.62166 -2.713443,0.94324 -2.42335,0.96273 -4.54926,2.49248 -6.753891,3.85079 -1.036229,0.63844 -2.119315,1.20214 -3.129922,1.88041 -0.99302,0.66646 -6.120114,4.57081 -6.919335,5.17583 -0.479885,0.4128 -7.223211,6.20662 -7.620147,6.57602 -1.91285,1.78018 -5.354818,5.34401 -7.09076,7.38259 -0.957836,1.12482 -1.802586,2.34169 -2.73518,3.48753 -0.928848,1.14123 -1.898819,2.24836 -2.848228,3.37255 -1.849056,3.21697 -3.721612,6.46083 -4.92887,9.98843 -0.332716,0.97219 -0.557525,1.97807 -0.824513,2.97033 -0.230726,0.85749 -0.5322366,1.70125 -0.6685736,2.57871 -0.127998,0.82378 -0.08017,1.66541 -0.12025,2.49811 0.08398,1.64082 -0.283542,3.27136 -0.249093,4.90965 0.01737,0.82632 0.219749,1.64112 0.24704,2.46717 0.02631,0.79636 -0.08997,1.59204 -0.08661,2.38883 0.0084,1.98799 0.167324,3.45186 0.329993,5.42845 0.02978,3.69893 0.9516786,7.31597 2.5906926,10.62856 0.911227,1.84167 1.775527,3.05929 2.895035,4.78225 0.649971,0.74777 1.25326,1.53882 1.949912,2.24331 3.251523,3.28808 7.209162,5.83831 11.464471,7.62109 1.296049,0.54299 2.641426,0.95978 3.962139,1.43967 1.527432,0.34556 3.050906,0.70912 4.582296,1.0367 1.710113,0.36581 3.412767,0.77991 5.141613,1.04334 3.900254,0.5943 7.828975,0.72694 11.758629,0.97211 8.470305,0.52847 3.936105,0.4212 12.448283,0.33131 5.607222,-0.20294 11.229462,-0.0806 16.764762,-1.15851 1.66312,-0.32389 3.29517,-0.79278 4.93058,-1.23582 1.55802,-0.42208 3.13703,-0.79091 4.64791,-1.35906 1.5337,-0.57672 2.97361,-1.37733 4.46041,-2.066 4.381509,-2.07163 5.050849,-2.16796 9.119489,-5.02104 2.7107,-1.90085 5.15867,-4.12888 7.60785,-6.34304 1.11875,-1.01139 2.28781,-1.97303 3.32852,-3.06456 0.97448,-1.02207 1.80224,-2.1746 2.70337,-3.2619 1.32142,-1.81222 3.36065,-4.48137 4.45959,-6.47481 0.56923,-1.03257 1.01427,-2.12997 1.46733,-3.21852 0.43056,-1.03447 0.87125,-2.07029 1.182,-3.14684 0.29338,-1.01635 0.40326,-2.07702 0.62451,-3.11146 0.22543,-1.05406 0.47694,-2.10237 0.71542,-3.15355 0.0338,-0.66811 0.30623,-5.9536 0.31786,-6.56581 0.0225,-1.18295 -0.014,-2.36629 -0.0237,-3.5494 -0.0101,-1.2209 0.0507,-2.44477 -0.0357,-3.66263 -0.097,-1.3667 -0.82325,-5.74721 -1.0394,-7.10682 -1.28537,-3.46353 -2.46343,-6.9936 -4.51732,-10.1026 -1.21376,-1.83728 -3.78158,-4.87457 -5.32645,-6.37098 -1.107,-1.07227 -2.33844,-2.00813 -3.50766,-3.01219 -1.20691,-0.98772 -2.36868,-2.03333 -3.62073,-2.96318 -1.26646,-0.94055 -2.61398,-1.76676 -3.9265,-2.64186 -2.27169,-1.51462 -4.98787,-3.38175 -7.442329,-4.59491 -1.20063,-0.59343 -2.48342,-1.00387 -3.71828,-1.52231 -1.13571,-0.47682 -2.26208,-0.97558 -3.39312,-1.46336 -2.91914,-0.86799 -5.83463,-1.94832 -8.85962,-2.41702 -0.88494,-0.13711 -1.78508,-0.14556 -2.67704,-0.225 -0.79653,-0.0709 -1.58879,-0.21278 -2.38836,-0.22612 -0.73907,-0.0123 -1.475,0.0996 -2.21251,0.14936 -1.29395,0.23312 -2.58799,-0.0687 -3.88073,-0.0214 -1.78988,0.0654 -1.3306,0.32671 -3.0355,0.31186 -2.903077,-0.0253 0.18184,-0.33688 -2.566955,0.0269 -0.542471,-0.0275 -1.616284,-0.11111 -2.171883,-0.0288 -0.330276,0.0489 -0.630934,0.25543 -0.964484,0.27032 -0.303332,0.0135 -0.588519,-0.16611 -0.891399,-0.18748 -1.092189,0.0882 -0.486714,0.68259 -1.563943,0.55599 -0.220691,-0.0606 -0.488733,0.88893 -0.709424,0.82832 -0.250036,-0.0529 -2.16025,0.80616 -2.40739,0.74112 -0.160601,-0.0423 -0.306776,-0.13715 -0.470844,-0.16288 -0.138686,-0.0217 -0.281122,0.0398 -0.420505,0.0231 -0.210799,-0.0253 -0.449602,-0.23685 -0.599342,-0.34406 -0.198924,-0.34592 -0.672627,-0.20725 -0.865709,-0.53349 -0.583114,-0.71253 1.432232,-2.36183 2.015346,-1.6493 l 0,0 c 0.173121,0.26888 -0.2548,-0.16654 -0.06158,0.008 0.08773,0.37636 -0.07872,-0.12204 0.342381,0.0439 0.133769,0.0527 0.149586,0.26411 0.277085,0.33056 0.353165,0.18407 2.712256,-2.59321 2.992065,-2.19535 0.91709,0.0424 0.430584,0.0357 1.459636,0.008 0.293312,0.009 0.583703,0.0798 0.877131,0.0756 0.318678,-0.005 0.631943,-0.10482 0.950646,-0.10233 3.376274,0.0263 -1.406274,0.2824 2.137767,0.0435 0.405495,-0.0667 0.80667,-0.16969 1.216486,-0.20017 0.917315,-0.0682 1.840135,0.042 2.759505,0.0126 0.54736,-0.0175 1.09235,-0.0892 1.63989,-0.0997 1.36348,-0.026 2.6232,0.076 3.98665,0.15532 0.76437,-0.008 1.52938,-0.0574 2.29311,-0.0251 0.83255,0.0353 1.6596,0.15253 2.48951,0.22763 0.9365,0.0847 1.87757,0.12803 2.80969,0.25192 3.19215,0.42427 6.29495,1.30349 9.32204,2.3838 1.5427,0.70762 5.72676,2.60485 7.163759,3.35718 1.33709,0.70003 2.63272,1.47672 3.9395,2.23181 1.28485,0.74241 2.61089,1.42191 3.83512,2.26053 1.32696,0.90899 2.50877,2.01494 3.80214,2.97114 1.29604,0.95818 2.64221,1.84663 3.96332,2.76995 0.64745,0.64819 5.84442,5.82599 6.52441,6.60351 2.11687,2.42046 3.09585,3.94168 4.54182,6.76656 0.59601,1.16438 1.1771,2.34207 1.63464,3.56749 0.4544,1.21699 0.72934,2.49363 1.094,3.74045 0.30138,1.22689 0.71753,2.43117 0.90413,3.68067 0.18565,1.24318 0.13604,2.51025 0.20781,3.76516 0.0704,1.23058 0.18017,2.45931 0.21863,3.6913 0.10856,3.47756 -0.0668,6.96199 -0.44545,10.4188 -0.34375,2.58053 -0.44604,4.24 -1.24532,6.72926 -0.8051,2.50741 -1.80739,4.32772 -3.10788,6.60986 -0.65752,1.15383 -1.29654,2.32239 -2.04769,3.41756 -0.78908,1.15049 -1.70983,2.20489 -2.56474,3.30734 -0.94319,1.11015 -1.82269,2.27773 -2.82956,3.33047 -1.07653,1.12557 -2.25959,2.14449 -3.41052,3.19387 -1.22035,1.11268 -2.41904,2.25277 -3.70272,3.29175 -1.34698,1.09023 -2.75915,2.09906 -4.18121,3.08936 -4.63612,3.22851 -4.39757,2.9236 -9.268299,5.54041 -1.70316,0.63429 -7.72412,2.92092 -9.49737,3.40544 -1.67476,0.45761 -3.39143,0.74954 -5.10058,1.05458 -5.63351,1.00543 -11.32998,1.43893 -17.05295,1.14575 -8.364323,-0.0121 -4.198622,0.11779 -12.535076,-0.38849 -2.839826,-0.17246 -9.066725,-0.50501 -11.966707,-0.85698 -4.128012,-0.50102 -6.126795,-1.0438 -10.107829,-1.93179 -1.372548,-0.54685 -2.742612,-1.09998 -4.117645,-1.64055 -1.263305,-0.49665 -2.592291,-0.8461 -3.797279,-1.47108 -1.108979,-0.57519 -2.073532,-1.39414 -3.099956,-2.10627 -0.986548,-0.68447 -2.008052,-1.32454 -2.938659,-2.08332 -2.172306,-1.7712 -2.722694,-2.64313 -4.477164,-4.76544 -0.694779,-1.06495 -2.683741,-4.04151 -3.248384,-5.19392 -1.1906676,-2.4301 -2.0127696,-5.80407 -2.4780036,-8.46893 -0.168689,-0.96625 -0.257703,-1.94472 -0.386554,-2.91709 0.01383,-0.89855 0.05059,-1.79705 0.04148,-2.69566 -0.02594,-2.55904 -0.135536,-2.67811 -0.22486,-5.13671 -0.03059,-0.84201 -0.02448,-1.68505 -0.05095,-2.5272 -0.02691,-0.85643 -0.153548,-1.71253 -0.10917,-2.56822 0.04519,-0.87127 0.251126,-1.72672 0.376689,-2.59008 0.08037,-0.88923 0.103709,-1.78548 0.241124,-2.6677 0.21511,-1.38103 1.07196,-4.72049 1.510012,-5.93839 0.404218,-1.12384 0.9407606,-2.19559 1.4182146,-3.29032 0.52399,-1.20143 0.930287,-2.46323 1.586091,-3.5981 0.695022,-1.20273 1.629188,-2.25038 2.443782,-3.37557 0.973918,-1.25602 4.541671,-5.89434 5.590599,-7.09896 1.004736,-1.15387 6.229982,-6.59302 7.223632,-7.51626 1.262238,-1.17279 2.651788,-2.20108 3.952824,-3.33068 1.264693,-1.09805 2.495664,-2.23434 3.743497,-3.35152 7.307206,-5.95624 -0.04858,-0.16726 7.083376,-5.21797 1.030916,-0.73007 1.95345,-1.60887 3.003762,-2.31075 0.891436,-0.59572 1.870348,-1.04878 2.806251,-1.57186 1.889338,-1.05597 2.440918,-1.36045 4.241574,-2.35966 l 1.64954,-0.56197 c 0.432352,-0.22566 0.840633,-0.50515 1.297055,-0.67699 0.37495,-0.14117 0.781817,-0.176 1.174857,-0.25369 0.686364,-0.13568 1.522783,-1.44933 2.221978,-1.40258 4.593554,-1.49945 0.71078,3.73259 -0.17362,3.73259 z"
       inkscape:connector-curvature="0"
       sodipodi:nodetypes="cccccsscssscssscssscscsscsssccsscssscsssccccccsscsssscsccccsccccccccccccccccccccccsccccscsssscssscscscssscsssscsscsscsssscsscsscscsssscssscsssccscccc" />
    <path
       sodipodi:nodetypes="cccccsscssscssscssscscsscsssccsscssscsssccccccsscsssscsccccsccccccccccccccccccccccsccccscsssscssscscscssscsssscsscsscsssscsscsscscsssscssscsssccscccc"
       inkscape:connector-curvature="0"
       d="m 59.672423,874.52539 c -0.726906,-0.15438 -0.132086,-0.0745 -0.980487,-0.0306 -0.185052,0.01 -0.376634,-0.0496 -0.55589,-0.003 -0.242179,0.0634 -0.443925,0.23369 -0.676832,0.32548 -0.77296,0.30464 -1.571711,0.53938 -2.354284,0.81839 -2.102589,0.8353 -3.947108,2.16257 -5.859928,3.34109 -0.899071,0.55394 -1.838797,1.04302 -2.715637,1.63151 -0.861581,0.57825 -5.310039,3.96581 -6.003473,4.49075 -0.416366,0.35816 -6.267127,5.38509 -6.611523,5.7056 -1.65966,1.54455 -4.64604,4.63666 -6.152208,6.40541 -0.831054,0.97593 -1.563991,2.03174 -2.373144,3.02591 -0.805903,0.99017 -1.647486,1.95076 -2.471229,2.92615 -1.60431,2.79116 -3.229009,5.60566 -4.276471,8.66633 -0.288677,0.84351 -0.48373,1.71625 -0.715378,2.57717 -0.200187,0.74399 -0.461788,1.47607 -0.58008,2.23739 -0.111055,0.71474 -0.06956,1.44497 -0.104333,2.16745 0.07286,1.42364 -0.246012,2.83835 -0.216122,4.2598 0.01507,0.71694 0.190662,1.42389 0.214341,2.1406 0.02283,0.69096 -0.07806,1.38132 -0.07515,2.07264 0.0073,1.72486 0.145176,2.99496 0.286314,4.70993 0.02584,3.20933 0.825712,6.34761 2.247781,9.22173 0.790615,1.5979 1.540514,2.65436 2.51184,4.14926 0.56394,0.64879 1.087376,1.33514 1.691817,1.94638 2.821142,2.85286 6.254937,5.06554 9.947002,6.61234 1.124501,0.47112 2.2918,0.83274 3.4377,1.24911 1.325257,0.29982 2.647079,0.61526 3.97577,0.89948 1.483758,0.31739 2.961044,0.67668 4.461055,0.90524 3.384006,0.51564 6.792711,0.63072 10.202225,0.84344 7.349153,0.45852 3.415112,0.36545 10.800595,0.28746 4.865034,-0.17608 9.743099,-0.0699 14.545732,-1.00517 1.442985,-0.28102 2.859012,-0.68784 4.277955,-1.07224 1.351796,-0.36621 2.721804,-0.68622 4.0327,-1.17917 1.330695,-0.50039 2.580015,-1.19502 3.870018,-1.79254 3.80156,-1.79742 4.382305,-1.881 7.912407,-4.35644 2.35191,-1.64925 4.47586,-3.58237 6.60085,-5.50346 0.97067,-0.87752 1.98499,-1.71187 2.88795,-2.65893 0.8455,-0.88678 1.56369,-1.88676 2.34555,-2.83014 1.14651,-1.57235 2.91582,-3.88821 3.8693,-5.61779 0.49389,-0.89589 0.88002,-1.84804 1.27311,-2.79251 0.37357,-0.89754 0.75593,-1.79626 1.02555,-2.73031 0.25455,-0.88183 0.34988,-1.8021 0.54185,-2.69962 0.19559,-0.91454 0.41381,-1.8241 0.62072,-2.73614 0.0293,-0.57968 0.2657,-5.16556 0.27579,-5.69674 0.0195,-1.02637 -0.0122,-2.05308 -0.0206,-3.07959 -0.009,-1.0593 0.044,-2.12117 -0.031,-3.17784 -0.0842,-1.1858 -0.71428,-4.98649 -0.90182,-6.16614 -1.11523,-3.00509 -2.13736,-6.06791 -3.91939,-8.76539 -1.05311,-1.59409 -3.28104,-4.22936 -4.62143,-5.5277 -0.96048,-0.93034 -2.02892,-1.74233 -3.04338,-2.61349 -1.04716,-0.85698 -2.05515,-1.76419 -3.14148,-2.57096 -1.09882,-0.81606 -2.26798,-1.53291 -3.40677,-2.29218 -1.971007,-1.31414 -4.327666,-2.93413 -6.457246,-3.98671 -1.041711,-0.51489 -2.154707,-0.871 -3.226118,-1.32082 -0.985384,-0.4137 -1.962665,-0.84645 -2.943997,-1.26966 -2.532755,-0.7531 -5.062343,-1.69044 -7.686937,-2.0971 -0.767807,-0.11896 -1.548802,-0.12629 -2.3227,-0.19522 -0.691099,-0.0615 -1.378493,-0.18461 -2.07223,-0.19619 -0.641244,-0.0107 -1.279765,0.0864 -1.919656,0.12959 -1.122679,0.20227 -2.245437,-0.0596 -3.367066,-0.0186 -1.552967,0.0567 -1.154478,0.28347 -2.633713,0.27059 -2.518818,-0.022 0.157771,-0.29229 -2.227186,0.0233 -0.470668,-0.0239 -1.402348,-0.0964 -1.884406,-0.025 -0.28656,0.0424 -0.547422,0.22162 -0.836823,0.23454 -0.263182,0.0117 -0.510621,-0.14413 -0.773411,-0.16267 -0.947623,0.0765 -0.422291,0.59224 -1.356935,0.4824 -0.19148,-0.0526 -0.424043,0.77127 -0.615523,0.71868 -0.21694,-0.0459 -1.874313,0.69946 -2.088741,0.64302 -0.139343,-0.0367 -0.26617,-0.11899 -0.408522,-0.14132 -0.120329,-0.0188 -0.243912,0.0345 -0.364845,0.02 -0.182897,-0.0219 -0.390092,-0.2055 -0.520012,-0.29852 -0.172594,-0.30014 -0.583596,-0.17982 -0.751121,-0.46288 -0.505932,-0.61822 1.242658,-2.04921 1.748589,-1.43099 l 0,0 c 0.150206,0.23329 -0.221074,-0.1445 -0.05343,0.007 0.07612,0.32654 -0.0683,-0.10589 0.297062,0.0381 0.116063,0.0457 0.129787,0.22915 0.24041,0.2868 0.306419,0.15971 2.353254,-2.24996 2.596027,-1.90476 0.795701,0.0368 0.373591,0.031 1.266434,0.007 0.254489,0.008 0.506443,0.0692 0.761032,0.0656 0.276497,-0.004 0.548297,-0.091 0.824816,-0.0888 2.929381,0.0228 -1.220136,0.24502 1.854806,0.0377 0.351823,-0.0579 0.699897,-0.14723 1.055469,-0.17368 0.795896,-0.0592 1.596569,0.0364 2.394249,0.0109 0.47491,-0.0152 0.947764,-0.0774 1.42283,-0.0865 1.183006,-0.0226 2.275986,0.0659 3.458966,0.13476 0.663196,-0.007 1.326947,-0.0498 1.989588,-0.0218 0.722351,0.0306 1.439931,0.13234 2.159991,0.1975 0.812543,0.0735 1.62905,0.11108 2.437792,0.21857 2.769628,0.36811 5.461733,1.13096 8.088149,2.06827 1.338504,0.61396 4.968751,2.26007 6.215545,2.91282 1.160109,0.60737 2.284246,1.28126 3.418057,1.9364 1.114786,0.64414 2.265306,1.2337 3.327496,1.96132 1.15132,0.78867 2.1767,1.74824 3.29888,2.57787 1.12449,0.83135 2.29247,1.60221 3.43872,2.40331 0.56175,0.5624 5.07083,5.05485 5.66082,5.72946 1.83667,2.10008 2.68607,3.41994 3.94065,5.87092 0.51712,1.01025 1.0213,2.03206 1.41828,3.09528 0.39425,1.05591 0.6328,2.16357 0.94919,3.24536 0.26149,1.06449 0.62256,2.10937 0.78446,3.19348 0.16108,1.07863 0.11803,2.17799 0.1803,3.2668 0.0611,1.06769 0.15632,2.13378 0.18969,3.20271 0.0942,3.01726 -0.0579,6.04048 -0.38649,9.03973 -0.29825,2.23897 -0.387,3.67879 -1.08048,5.83856 -0.69854,2.17552 -1.56816,3.75489 -2.69651,5.73496 -0.57049,1.00111 -1.12493,2.01499 -1.77666,2.9652 -0.68463,0.99821 -1.48351,1.91305 -2.22526,2.86958 -0.81835,0.9632 -1.58143,1.97624 -2.45503,2.88964 -0.93404,0.97658 -1.96051,1.86064 -2.9591,2.77112 -1.05882,0.9654 -2.09884,1.95458 -3.21261,2.85604 -1.16869,0.94593 -2.39394,1.82122 -3.62778,2.68045 -4.022467,2.80117 -3.815492,2.53662 -8.041518,4.80706 -1.477725,0.55034 -6.701734,2.5343 -8.240272,2.95469 -1.453084,0.39704 -2.942531,0.65033 -4.425454,0.91499 -4.887843,0.87235 -9.830312,1.24847 -14.795775,0.9941 -7.257198,-0.0105 -3.64288,0.1022 -10.875899,-0.33707 -2.463939,-0.14963 -7.866628,-0.43817 -10.382761,-0.74355 -3.581617,-0.4347 -5.315835,-0.90564 -8.769929,-1.67609 -1.190874,-0.47447 -2.379592,-0.95439 -3.572622,-1.4234 -1.096091,-0.43092 -2.249168,-0.73411 -3.294661,-1.27637 -0.962191,-0.49905 -1.799074,-1.20961 -2.689637,-1.82748 -0.855966,-0.59387 -1.742261,-1.14922 -2.54969,-1.80756 -1.884774,-1.53676 -2.362311,-2.29328 -3.884555,-4.13468 -0.602816,-0.92399 -2.328513,-3.50656 -2.818419,-4.50644 -1.033067,-2.10844 -1.746353,-5.03582 -2.150008,-7.34795 -0.146361,-0.83836 -0.223592,-1.68732 -0.335388,-2.53098 0.012,-0.77962 0.04389,-1.55919 0.03599,-2.33886 -0.02251,-2.22031 -0.117596,-2.32362 -0.195097,-4.4568 -0.02654,-0.73056 -0.02124,-1.46201 -0.04421,-2.19269 -0.02335,-0.74307 -0.133224,-1.48585 -0.09472,-2.22828 0.03921,-0.75595 0.217886,-1.49817 0.326829,-2.24725 0.06973,-0.77153 0.08998,-1.54915 0.209208,-2.3146 0.186638,-1.19823 0.930073,-4.09567 1.310143,-5.15237 0.350715,-0.97508 0.816239,-1.90497 1.230496,-2.8548 0.454633,-1.04241 0.807152,-2.13719 1.376152,-3.12185 0.603027,-1.04353 1.413544,-1.95251 2.120316,-2.92877 0.845008,-1.08977 3.940523,-5.11415 4.850612,-6.15932 0.871747,-1.00114 5.405365,-5.72035 6.267492,-6.52139 1.095165,-1.01755 2.300791,-1.90974 3.429618,-2.88982 1.097295,-0.95271 2.165331,-1.9386 3.247997,-2.9079 6.340005,-5.16786 -0.04215,-0.14512 6.145801,-4.52731 0.894462,-0.63343 1.694886,-1.39591 2.606176,-2.00489 0.773443,-0.51687 1.622784,-0.90996 2.434808,-1.36381 1.63926,-0.91619 2.117832,-1.18037 3.680148,-2.04732 l 1.431202,-0.48759 c 0.375125,-0.19579 0.729365,-0.43829 1.125374,-0.58738 0.32532,-0.12249 0.678333,-0.15271 1.019349,-0.22011 0.595515,-0.11772 1.321224,-1.2575 1.927871,-1.21693 3.985539,-1.30098 0.616699,3.23853 -0.150639,3.23853 z"
       id="path4174"
       style="opacity:1;fill:#000000;fill-opacity:1;stroke:#000000;stroke-width:0;stroke-miterlimit:4;stroke-dasharray:none;stroke-dashoffset:0;stroke-opacity:1" />
    <path
       style="opacity:1;fill:#000000;fill-opacity:1;stroke:#000000;stroke-width:0;stroke-miterlimit:4;stroke-dasharray:none;stroke-dashoffset:0;stroke-opacity:1"
       id="path4198"
       d="m 101.18014,958.05351 c 0.73134,0.44953 1.48216,0.92595 2.1088,1.51921 0.30688,0.29053 0.55132,0.64495 0.87163,0.92061 0.41582,0.35786 0.88527,0.64822 1.32791,0.97234 0.48102,0.47378 0.92302,0.99075 1.44305,1.42134 0.61598,0.51004 1.32874,0.89346 1.95429,1.39171 0.75536,0.60165 1.43935,1.28855 2.18348,1.90403 0.87299,0.72205 1.78704,1.3932 2.66646,2.1074 2.09342,1.70015 4.14708,3.44868 6.2205,5.17316 1.16475,0.98109 2.31039,1.98532 3.49424,2.94328 1.25928,1.019 2.582,1.95836 3.83381,2.98653 1.24732,1.02448 2.44176,2.11171 3.66107,3.16939 13.18202,11.43457 -5.8639,-5.11051 7.13526,6.31062 1.13603,0.99813 2.29685,1.96768 3.44528,2.95151 2.12247,1.79656 4.16474,3.68608 6.28272,5.4878 3.19205,2.71546 2.2311,1.69385 5.27423,4.53486 7.14334,6.669 -2.05935,-1.699 4.47658,4.2103 0.67186,0.6462 1.32959,1.3073 2.0156,1.9384 0.65887,0.6061 1.34565,1.1812 2.01801,1.7723 1.18091,1.0382 2.62875,2.3485 3.87761,3.3154 4.86278,3.7647 -1.03823,-1.0668 3.35545,2.5768 1.19221,1.1722 2.54873,2.1443 3.91275,3.1007 0.36361,0.255 0.74033,0.4918 1.09345,0.7611 1.66689,1.2712 0.21171,0.4068 1.97798,1.3464 2.63068,1.7204 -1.09208,-0.6106 1.61878,0.7575 0.19505,0.098 0.31633,0.3049 0.49847,0.4256 0.38205,0.2531 0.88123,0.3909 1.29433,0.5916 0.0591,0.047 0.12331,0.088 0.17726,0.1402 0.34823,0.3395 -0.052,0.048 0.36897,0.3312 0.0787,0.053 0.38837,0.1184 0.19454,0.1063 0.10557,0.044 0.21292,0.083 0.31671,0.1313 0.0344,0.016 -0.14508,-0.043 -0.10803,-0.035 0.0707,0.015 0.1482,0.018 0.2092,0.057 0.0194,0.012 0.21137,0.3112 0.21488,0.3091 0.0591,-0.037 -0.0515,-0.129 -0.0773,-0.1935 0.55891,0.2368 -0.11078,1.8176 -0.66969,1.5809 l 0,0 c -0.14248,-0.034 -0.2899,-0.052 -0.42742,-0.1022 -0.0497,-0.018 0.0692,-0.1402 0.0192,-0.1576 -0.11563,-0.04 -0.24399,-0.025 -0.36432,-0.048 -0.0372,-0.01 0.0757,2e-4 0.11353,3e-4 -0.0953,-0.061 -0.19068,-0.1228 -0.28601,-0.1843 0.009,-0.01 0.0347,-0.01 0.0263,-0.015 -0.0687,-0.044 -0.14353,-0.079 -0.21924,-0.1103 -0.0325,-0.013 -0.0875,0.01 -0.10305,-0.022 -0.0341,-0.069 0.0282,-0.1712 -0.0213,-0.2303 -0.053,-0.063 -0.15692,-0.051 -0.23538,-0.076 -0.4556,-0.1143 -0.7768,-0.3472 -1.18307,-0.569 -0.21681,-0.1183 -0.45406,-0.1978 -0.66665,-0.3236 -2.75127,-1.6281 1.70191,0.8014 -1.60644,-0.9704 -1.09093,-0.6607 -2.18049,-1.3591 -3.18142,-2.1528 -0.40987,-0.3251 -0.77863,-0.6997 -1.18734,-1.0261 -0.90433,-0.7225 -1.90198,-1.3245 -2.75163,-2.118 -3.53861,-3.1412 0.5549,0.4512 -3.26305,-2.7627 -2.71977,-2.2894 -5.34901,-4.6883 -7.9869,-7.0704 -0.75872,-0.7235 -3.75855,-3.5824 -4.40931,-4.2103 -0.82689,-0.7979 -1.61176,-1.6407 -2.4701,-2.4047 -0.87385,-0.77781 -1.84121,-1.44554 -2.72139,-2.21618 -11.97966,-10.48874 6.73157,5.45358 -6.23212,-5.52944 -3.38268,-3.16216 -3.28802,-3.1736 -6.92071,-6.15663 -1.23057,-1.0105 -2.53532,-1.9306 -3.73894,-2.97305 -1.21904,-1.0558 -2.29848,-2.26646 -3.52272,-3.31622 -2.38075,-2.04148 -5.06251,-3.71584 -7.33728,-5.88938 -1.09181,-0.87514 -2.18817,-1.7446 -3.27541,-2.6254 -1.00727,-0.816 -1.9814,-1.67341 -3.00801,-2.46494 -0.89588,-0.69073 -1.86321,-1.2856 -2.75656,-1.97961 -1.9231,-1.49398 -3.65439,-3.23573 -5.63638,-4.65917 -0.44374,-0.33196 -0.88361,-0.66914 -1.33121,-0.99587 -0.77826,-0.5681 -1.03904,-0.69508 -1.75975,-1.29184 -0.24874,-0.20596 -0.54895,-0.54485 -0.84674,-0.72857 -0.13943,-0.086 -0.29125,-0.15008 -0.43688,-0.22513 -0.499428,-0.37457 0.56003,-1.78718 1.05946,-1.4126 z"
       inkscape:connector-curvature="0" />
    <path
       style="opacity:1;fill:#000000;fill-opacity:1;stroke:#000000;stroke-width:0;stroke-miterlimit:4;stroke-dasharray:none;stroke-dashoffset:0;stroke-opacity:1"
       id="path4200"
       d="m 180.63777,1023.6038 c 0.45534,-0.3161 0.68182,-0.036 1.20564,0.073 0.18822,0.039 0.38234,0.043 0.5719,0.075 0.26678,0.045 0.74712,0.1752 0.99117,0.2378 0.29332,0.228 0.69505,0.1457 1.00967,0.302 0.17124,0.085 0.27053,0.287 0.44796,0.3582 0.17412,0.07 0.38111,-0.01 0.56093,0.047 1.74538,0.5199 -0.59856,0.081 0.8718,0.3272 0.17214,0.1008 0.3384,0.2124 0.51641,0.3024 0.30532,0.1544 0.63093,0.2648 0.94582,0.3986 0.0254,0.011 1.04395,0.437 1.08695,0.4501 0.18741,0.057 0.38371,0.079 0.57557,0.1187 0.60611,0.4022 1.18132,0.233 1.84407,0.236 0.50289,0 0.71312,0.098 1.21403,0.1226 0.19735,0.01 0.39513,-0.01 0.5927,-0.01 0.19032,-0.018 0.38006,-0.044 0.57095,-0.055 0.54911,-0.031 0.45063,0.025 0.97025,-0.04 0.35602,-0.045 0.6399,-0.1247 0.99941,-0.084 0.63419,-0.1284 -0.0828,-0.031 0.48529,0.028 0.0584,0.01 0.11287,-0.038 0.17155,-0.04 0.17937,-0.01 0.21839,0.1041 0.37519,-0 0.17891,-0.088 0.18771,0.084 0.27682,0.094 0.0928,0.011 0.0521,-0.1355 0.27124,-0.062 0.0301,-0.012 0.0603,-0.024 0.0904,-0.035 0.0253,0.013 0.0478,0.044 0.076,0.04 0.0372,-0.01 0.0548,-0.076 0.0913,-0.066 0.046,0.012 0.0427,0.097 0.0877,0.1122 0.0479,0.016 0.0829,-0.061 0.13117,-0.076 0.20816,0.3028 0.0631,0.05 -0.7083,0.5423 -0.0219,0.014 -0.0683,0.063 -0.0686,0.037 -0.005,-0.5381 0.19239,-0.03 0.17471,-0.5183 -0.0208,-0.08 0.10096,0.046 0.0946,0.015 -0.008,-0.038 -0.055,-0.065 -0.054,-0.1042 6.1e-4,-0.024 0.0816,-0.047 0.0577,-0.043 -0.0373,0 -0.0861,0.015 -0.10149,0.05 -0.0138,0.031 0.0635,-0.024 0.0952,-0.036 -0.008,-0.01 -0.0311,-0.012 -0.0249,-0.021 0.0237,-0.034 0.0636,-0.054 0.0954,-0.081 -0.014,-0.1406 -0.0782,-0.2854 -0.042,-0.422 0.018,-0.068 0.1491,-0.044 0.1819,-0.1058 0.0189,-0.036 -0.0507,-0.063 -0.0761,-0.094 0.0443,-0.039 0.0885,-0.078 0.13278,-0.1177 -0.008,0.085 -0.11605,-0.046 -0.10262,-0.089 0.0136,-0.044 0.0902,-0.018 0.1355,-0.025 0.12217,-0.019 -0.12785,0.073 -0.16189,-0.069 -0.008,-0.035 0.0485,-0.053 0.0727,-0.079 -0.0983,-0.4528 0.0316,0.2605 0.0352,-0.3256 4e-4,-0.065 -0.0758,-0.1214 -0.0627,-0.1853 0.0161,-0.079 0.1331,-0.116 0.14051,-0.1961 0.007,-0.076 -0.0801,-0.1327 -0.10334,-0.2059 -0.0224,-0.07 -0.0212,-0.1461 -0.0318,-0.2192 0.0494,-0.5027 0.04,-1.0069 0.10602,-1.5085 -0.24195,-0.4382 -0.15232,-0.1459 -0.14479,-0.6058 0.002,-0.099 -0.0265,-0.1994 -0.0123,-0.2976 0.0146,-0.1004 0.0823,-0.1881 0.0972,-0.2884 0.0152,-0.1029 -0.006,-0.2079 -0.008,-0.3118 0.0207,-0.1057 0.0414,-0.2113 0.0622,-0.3169 -0.16611,-0.8284 -0.0262,-1.674 -0.079,-2.5082 0.035,-0.1915 0.10665,-0.3798 0.10492,-0.5744 -0.002,-0.2073 -0.0946,-0.405 -0.11545,-0.6113 -0.024,-0.238 -0.0145,-0.4782 -0.0185,-0.7173 -0.0141,-0.8453 -0.001,-1.6879 -0.0252,-2.5332 -0.27079,-2.188 0.0425,0.1023 -0.35105,-2.0983 -0.0635,-0.3553 -0.0858,-0.7175 -0.15816,-1.0711 -0.0687,-0.336 -0.19612,-0.6582 -0.26428,-0.9943 -0.4672,-2.3039 0.23087,0.353 -0.35557,-1.7578 -0.0368,-0.1068 -0.46108,-1.3475 -0.51868,-1.4748 -0.0971,-0.2147 -0.23061,-0.411 -0.3456,-0.6166 -0.10018,-0.1791 -0.1793,-0.3717 -0.29991,-0.5378 -0.82153,-1.1311 0.002,0.346 -0.65396,-0.9228 -0.29606,-0.7064 -1.04496,-1.023 -1.48258,-1.6163 -1.11028,-1.505 0.57118,0.4443 -0.63949,-0.914 -1.34168,-0.8594 0.31083,0.3159 -0.66903,-0.7567 -0.1065,-0.1166 -0.30952,-0.1089 -0.41719,-0.2244 -0.0966,-0.1036 -0.0593,-0.2938 -0.1594,-0.3941 -0.11662,-0.1169 -0.29797,-0.1423 -0.44695,-0.2134 -0.11416,-0.1221 -0.22832,-0.2443 -0.34248,-0.36655 -0.50712,-0.52563 -0.0598,-0.0889 -0.64049,-0.57773 -0.0973,-0.0819 -0.1757,-0.18769 -0.28292,-0.25615 -0.13051,-0.0833 -0.2853,-0.12142 -0.42209,-0.19398 -0.43065,-0.22846 -0.34952,-0.19813 -0.67309,-0.54604 -0.0943,-0.0545 -0.18871,-0.10908 -0.28306,-0.16361 -0.0689,-0.10557 -0.10694,-0.23966 -0.20672,-0.31671 -0.072,-0.0556 -0.19527,0.004 -0.26819,-0.05 -0.12168,-0.0907 -0.51512,-0.75991 -0.60188,-0.90802 -0.0468,-0.0679 -0.0831,-0.14429 -0.14029,-0.20372 -0.0897,-0.0932 -0.36043,-0.21433 -0.43047,-0.29861 -0.34373,-0.41362 -0.0425,-0.18212 -0.19099,-0.50943 -0.0467,-0.10286 -0.11997,-0.19142 -0.17995,-0.28713 -0.0148,-0.0869 -0.0295,-0.17372 -0.0443,-0.26058 -0.0615,-0.0809 -0.1542,-0.14576 -0.18461,-0.24277 -0.018,-0.0575 0.0411,-0.11372 0.0544,-0.17253 0.0161,-0.0711 0.0395,-0.1435 0.0336,-0.21619 -0.0265,-0.33019 -0.13714,-0.02 9.7e-4,-0.3035 0.0281,-0.57304 1.64896,-0.49341 1.62081,0.0796 l 0,0 c 0.22461,0.24497 -0.0318,0.2138 0.0606,0.32529 0.0213,0.0256 0.081,0.0171 0.0866,0.0499 0.007,0.0401 -0.0402,0.0706 -0.0603,0.10592 0.13725,0.0687 -0.037,-0.0356 0.085,0.2413 0.0215,0.0489 0.0797,0.0723 0.11135,0.11526 0.0391,0.053 0.0522,0.12484 0.0994,0.17068 0.0628,0.0609 0.15502,0.0837 0.22143,0.14053 0.0782,0.0669 0.13912,0.15174 0.20868,0.2276 0.18426,0.26593 0.39744,0.53438 0.65482,0.73399 0.0698,0.0542 0.17468,0.0583 0.23488,0.12303 0.0932,0.10021 0.13904,0.23579 0.20856,0.35369 0.70542,0.26517 0.0422,-0.0614 0.56992,0.45324 0.34265,0.33416 0.37817,0.1224 0.81124,0.39427 0.30907,0.19403 0.48228,0.56353 0.79676,0.75079 0.0906,0.13639 0.15646,0.29303 0.27191,0.40918 0.22591,0.22729 0.57273,0.30552 0.80355,0.52782 0.1133,0.10913 0.16486,0.27009 0.27025,0.38686 0.78633,0.8713 10e-4,-0.25305 0.67547,0.7906 0.13798,0.1251 0.28575,0.2402 0.41392,0.3753 0.38208,0.4027 0.64851,0.9099 1.02971,1.3116 0.14863,0.1566 0.33351,0.2754 0.48602,0.4282 0.1386,0.1389 0.25688,0.2967 0.38532,0.445 0.12232,0.1744 0.23787,0.3537 0.36695,0.5231 0.1461,0.1918 0.3347,0.3526 0.45802,0.5597 0.12745,0.2141 0.17471,0.4677 0.28626,0.6905 0.12515,0.25 0.33112,0.4604 0.42224,0.7247 0.0986,0.2861 0.0587,0.6051 0.13695,0.8974 0.0725,0.2706 0.20831,0.5202 0.31247,0.7803 0.13009,0.4639 0.40427,1.3925 0.48154,1.8671 0.0556,0.3411 0.0297,0.6936 0.0988,1.0323 0.0758,0.3718 0.26973,0.7142 0.33364,1.0882 0.66561,3.8946 -0.63826,-1.5793 0.31452,2.1951 0.0119,0.3253 0.0136,0.6511 0.0358,0.9759 0.0216,0.3156 0.10153,0.6279 0.0954,0.9442 -0.005,0.2637 -0.12305,0.517 -0.12859,0.7806 -0.005,0.2412 0.0826,0.4764 0.0971,0.7173 0.005,0.079 -0.0343,1.0882 -0.0378,1.1857 -0.16563,1.0007 -0.10992,0.1138 0.0845,1.0469 0.10187,0.4888 -0.19565,0.9739 -0.0383,1.4615 0.0199,0.1228 0.0938,0.4986 0.0642,0.6289 -0.0241,0.1056 -0.14738,0.1802 -0.14952,0.2884 -0.002,0.1094 0.13573,0.1884 0.13796,0.2977 0.002,0.1095 -0.0838,0.2024 -0.12571,0.3035 0.0133,0.1007 0.0265,0.2014 0.0398,0.3021 0.0194,0.181 0.0773,0.3581 0.0804,0.5401 0.003,0.1483 -0.1072,0.6079 -0.0944,0.731 0.008,0.082 0.0645,0.1513 0.0967,0.2269 0.001,0.031 0.0164,0.3823 0.008,0.4192 -0.0151,0.069 -0.0768,0.1242 -0.087,0.1944 -0.0247,0.1694 0.0765,0.3834 0.0833,0.5533 -0.008,0.1502 0.0481,0.4119 -0.0288,0.542 -0.0249,0.042 -0.12126,-0 -0.14036,0.043 -0.0524,0.1234 0.42725,0.2643 -0.0381,0.4005 -0.1402,0.013 -0.001,-0.018 -0.072,0.2192 -0.005,0.016 -0.0492,0.025 -0.0498,0.01 -0.0182,-0.5077 0.0877,-0.1865 0.0298,-0.053 0.16873,0.2147 0.0613,0.01 -0.0558,0.3474 -0.008,0.023 0.0346,0.038 0.0396,0.062 0.0343,0.1656 -0.16803,0.3123 -0.21625,0.4582 0.0797,0.09 -0.0709,-0.096 -0.0519,0.1841 0.003,0.037 0.0878,-0.1167 0.0795,-0.08 -0.10192,0.4515 -0.8418,0.4278 -0.99545,0.8437 -0.11063,-0.096 -0.18375,-0.035 -0.31122,-0.061 -0.0285,-0.01 -0.0481,-0.046 -0.0767,-0.041 -0.0376,0.01 -0.061,0.046 -0.0915,0.068 -0.27312,-0.1672 0.0666,-2e-4 -0.17893,0 -0.038,2e-4 -0.0595,-0.055 -0.0972,-0.059 -0.0898,-0.01 -0.18505,0.1205 -0.28261,0.053 -0.1948,-0.083 -0.32559,0.037 -0.52047,-0 -0.0746,-0.015 -0.13856,-0.068 -0.21365,-0.08 -0.0821,-0.013 -0.16604,0.01 -0.24905,0.01 -0.3722,0.051 -0.17359,0.046 -0.596,-0 -0.13469,0.017 -0.24982,0.1207 -0.38506,0.1332 -0.15267,0.014 -0.30332,-0.058 -0.45662,-0.055 -0.37196,0.01 -0.73257,0.1653 -1.11064,0.1099 -0.5634,-0.064 -0.70927,-0.096 -1.28444,-0.097 -0.67803,-9e-4 -0.72309,0.076 -1.40185,-0.033 -0.24669,-0.04 -0.48238,-0.1347 -0.72904,-0.1749 -0.23741,-0.039 -0.47936,-0.041 -0.71904,-0.061 -0.31308,-0.1322 -0.95075,-0.3978 -1.26792,-0.5454 -0.17433,-0.081 -0.33633,-0.1898 -0.51668,-0.2566 -0.49042,-0.1814 -1.04688,-0.2061 -1.49638,-0.5064 -1.19312,-0.3825 0.0108,0.063 -0.95698,-0.4569 -0.87645,-0.4709 0.0168,0.1093 -0.87481,-0.2748 -0.97043,-0.4182 0.12317,-0.1936 -0.94012,-0.344 -0.21418,-0.082 -0.67953,-0.2704 -0.89532,-0.2983 -0.12985,-0.017 -0.26133,0.043 -0.39164,0.03 -0.12183,-0.012 -0.23052,-0.093 -0.35249,-0.1031 -0.3045,-0.026 -0.60971,0.1074 -0.91595,0.04 -0.59311,-0.099 -0.31352,-1.7764 0.27959,-1.6775 z"
       inkscape:connector-curvature="0" />
    <path
       style="opacity:1;fill:#000000;fill-opacity:1;stroke:#000000;stroke-width:0;stroke-miterlimit:4;stroke-dasharray:none;stroke-dashoffset:0;stroke-opacity:1"
       id="path4202"
       d="m 116.90892,946.81746 c 0.34432,0.28882 0.80117,0.37084 1.17312,0.60619 0.27509,0.17406 0.49045,0.43456 0.77164,0.59858 0.34503,0.20128 0.74114,0.30195 1.09377,0.4896 4.65614,2.47775 -2.54733,-1.09228 2.85131,1.53947 0.54147,0.41403 1.05141,0.87295 1.62443,1.2421 0.61871,0.39859 1.29542,0.69903 1.94003,1.05421 0.72331,0.39854 1.46192,0.77153 2.16367,1.2069 0.74306,0.461 1.42667,1.01308 2.16636,1.47947 0.76296,0.48106 1.56119,0.9038 2.33866,1.36104 0.81981,0.48214 1.63541,0.97139 2.45311,1.45709 0.19224,0.11916 4.5053,2.78866 4.72197,2.93802 0.7485,0.51596 1.43889,1.11188 2.1727,1.64852 1.96595,1.43772 3.99394,2.79898 5.98318,4.20451 0.67549,0.40252 1.38377,0.75452 2.02646,1.20758 0.61623,0.4344 1.1359,0.99386 1.73874,1.44666 0.55619,0.41777 1.17525,0.7468 1.73369,1.16157 0.51011,0.37888 0.96363,0.82957 1.46781,1.21631 2.96522,2.2745 0.0445,-0.21952 2.73662,2.15408 2.12166,1.27078 0.66675,0.33359 2.57334,1.72322 0.38229,0.27863 0.78519,0.52901 1.15981,0.81789 0.36956,0.28498 0.7068,0.60989 1.07067,0.9021 3.37251,2.70829 -1.1371,-1.01846 2.06608,1.64512 0.60299,0.48759 1.37548,1.08835 1.93216,1.6327 0.28232,0.27607 0.49688,0.62101 0.80145,0.87231 0.2869,0.23672 0.66022,0.3503 0.9551,0.577 0.28592,0.21981 0.51013,0.51026 0.77607,0.75387 0.25986,0.23806 0.53375,0.46034 0.80063,0.69051 0.92175,0.56776 1.75853,1.25247 2.68997,1.80572 0.31822,0.18901 0.66379,0.33138 0.97349,0.53405 3.3836,2.2143 -1.49898,-0.73307 1.78169,1.21466 0.65393,0.65745 1.47141,1.10352 2.19659,1.66894 0.18386,0.14336 0.34231,0.318 0.52948,0.457 0.29673,0.22037 0.62315,0.39872 0.92023,0.61862 0.18221,0.20948 0.29291,0.36548 0.52623,0.52182 0.0658,0.0441 0.15549,0.0463 0.21747,0.0955 0.04,0.0318 0.26697,0.36321 0.3651,0.37451 0.042,0.005 0.009,-0.0839 0.0141,-0.12592 0.31753,0.19382 0.48667,0.53542 0.73579,0.7953 0.32053,0.33435 0.0556,-0.003 0.30052,0.32894 0.74873,0.28285 -0.24203,-0.1493 0.45609,0.38062 0.11247,0.0854 0.27383,0.0837 0.39148,0.16178 0.11499,0.0763 0.18982,0.20088 0.29301,0.29252 0.32455,0.28817 0.27971,0.22692 0.69613,0.38711 0.13061,0.0961 0.28347,0.16775 0.39182,0.28842 0.10284,0.11453 0.11162,0.30072 0.22782,0.40167 0.10987,0.0954 0.27833,0.0885 0.40935,0.15189 0.32359,0.15649 0.62816,0.39078 0.90719,0.61433 0.74604,0.0919 -0.27954,-0.0964 0.50014,0.31539 0.0858,0.0453 0.20294,-0.0458 0.29121,-0.005 0.0809,0.0371 0.0846,0.16764 0.16132,0.21267 0.0419,0.0246 0.0977,-0.056 0.14153,-0.035 0.0289,0.0139 -0.0111,0.0632 -0.0167,0.0948 0.3224,-0.33948 0.38209,0.14067 0.38977,0.14655 0.1344,0.10295 0.30224,0.15262 0.45336,0.22893 0.43281,0.54284 -1.10257,1.767 -1.53538,1.22416 l 0,0 c 0.10231,0.0339 0.19961,0.0918 0.30694,0.10178 0.0808,0.008 -0.32663,-0.18083 -0.0339,-0.0415 -0.0382,-0.007 -0.0765,-0.0148 -0.11471,-0.0222 -0.0897,-0.0323 -0.36344,-0.12035 -0.45458,-0.18829 -0.0481,-0.0359 -0.0631,-0.1102 -0.11676,-0.13718 -0.098,-0.0493 -0.22115,-0.0318 -0.31878,-0.0819 -0.0877,-0.045 -0.14804,-0.13027 -0.22206,-0.1954 -0.13441,-0.0574 -0.26881,-0.11475 -0.40322,-0.17212 -0.46643,-0.56621 0.0611,-0.0169 -0.60481,-0.42148 -0.10867,-0.066 -0.17529,-0.18844 -0.2835,-0.25519 -0.12028,-0.0742 -0.27157,-0.0875 -0.39198,-0.16148 -0.13184,-0.081 -0.2373,-0.19863 -0.35594,-0.29794 -0.12215,-0.0715 -0.24429,-0.14302 -0.36643,-0.21453 -0.46969,-0.3644 -0.22128,-0.18709 -0.74767,-0.52851 -0.20981,-0.15811 -0.37986,-0.365 -0.59052,-0.52198 -0.0821,-0.0612 -0.1818,-0.0967 -0.26285,-0.15933 -0.0861,-0.0666 -0.15711,-0.15076 -0.23566,-0.22613 -0.28293,-0.15999 -0.58908,-0.34649 -0.76809,-0.63346 -0.0301,-0.0482 1.9e-4,-0.12274 -0.036,-0.16646 -0.0597,-0.072 -0.22393,0.0308 -0.27066,-0.0742 -0.0911,-0.0956 -0.19521,-0.18032 -0.27332,-0.2868 -0.0228,-0.0311 0.01,-0.0902 -0.0206,-0.11383 -0.0429,-0.0333 -0.11628,0.004 -0.16063,-0.027 -0.15129,-0.10688 -0.55128,-0.62712 -0.73179,-0.68131 -0.0948,-0.12923 -0.16913,-0.27627 -0.28431,-0.3877 -0.21653,-0.2095 -0.80792,-0.53131 -1.02941,-0.69002 -0.72901,-0.5224 -1.32871,-1.19904 -2.08557,-1.68596 -0.30115,-0.19692 -0.60888,-0.38413 -0.90345,-0.59077 -0.28977,-0.20326 -0.54836,-0.45084 -0.8486,-0.63827 -0.31982,-0.19965 -0.68719,-0.31606 -1.00501,-0.51886 -0.30681,-0.19578 -0.55779,-0.4701 -0.8608,-0.67172 -2.69062,-1.79032 0.73861,0.75239 -1.86486,-1.22694 -0.28679,-0.23901 -0.57798,-0.47282 -0.86036,-0.71703 -0.27966,-0.24187 -0.53502,-0.51213 -0.82546,-0.74094 -0.29613,-0.2333 -0.63853,-0.40433 -0.93067,-0.64261 -0.30538,-0.24907 -0.56936,-0.54498 -0.85641,-0.81497 -0.88224,-0.8298 -0.91656,-0.85175 -1.8227,-1.66782 -0.33562,-0.23853 -0.66611,-0.48446 -1.00686,-0.71561 -0.37071,-0.25147 -0.77373,-0.45658 -1.12706,-0.73193 -0.36424,-0.28385 -0.65685,-0.65184 -1.01795,-0.93967 -1.18602,-0.94537 -2.61161,-1.57197 -3.67021,-2.68563 -1.39531,-1.13131 -2.85646,-2.17355 -4.234,-3.32693 -0.53134,-0.44488 -1.00818,-0.95689 -1.569,-1.36399 -6.53969,-4.7472 2.84855,2.65689 -3.73207,-2.62411 -0.65407,-0.51036 -1.28059,-1.05812 -1.96219,-1.53107 -0.63603,-0.44133 -1.3319,-0.79003 -1.98406,-1.20715 -0.69725,-0.44595 -1.37804,-0.91716 -2.0632,-1.38145 -0.16528,-0.11199 -4.34417,-2.97872 -4.48482,-3.06928 -0.78034,-0.5024 -1.58746,-0.96194 -2.38119,-1.44291 -0.81627,-0.47707 -1.63253,-0.95414 -2.4488,-1.43122 -0.7653,-0.49348 -1.51366,-1.0143 -2.29592,-1.48045 -0.74158,-0.44191 -1.52414,-0.81174 -2.27258,-1.24193 -1.93963,-1.11486 -3.80775,-2.35715 -5.79317,-3.3939 -0.4869,-0.29808 -0.95976,-0.6204 -1.46069,-0.89422 -0.7876,-0.43053 -1.65033,-0.71414 -2.43399,-1.1518 -1.15375,-0.64435 -0.42039,-0.39454 -1.39005,-0.91566 -0.11923,-0.0641 -0.2522,-0.0984 -0.3783,-0.1476 -0.56562,-0.22626 0.0743,-1.82609 0.63994,-1.59984 z"
       inkscape:connector-curvature="0" />
    <path
       style="opacity:1;fill:#000000;fill-opacity:1;stroke:#000000;stroke-width:0;stroke-miterlimit:4;stroke-dasharray:none;stroke-dashoffset:0;stroke-opacity:1"
       id="path4238"
       d="m 20.037785,1012.8186 c 0.07938,-0.1363 0.151464,-0.2772 0.23815,-0.409 0.119169,-0.1811 0.346345,-0.3145 0.378747,-0.5289 0.214078,-1.4166 -0.780191,-0.1437 0.153081,-1.5669 0.582915,-0.8889 0.574223,-0.092 0.450125,-0.9548 0.0744,-0.046 0.193798,-0.057 0.223194,-0.1392 0.07815,-0.2197 -0.009,-0.4776 0.0738,-0.6955 0.166049,-0.4371 0.616974,-0.7097 0.854368,-1.1126 0.216738,-0.3677 0.298646,-0.7998 0.451213,-1.1985 -0.135133,-0.3567 0.898557,-1.0446 0.928944,-1.1024 0.549122,-1.0448 -0.0928,-0.6361 0.966593,-1.3219 -0.175058,0 -0.525134,0.191 -0.525176,0.016 -5.7e-5,-0.2354 0.36488,-0.2999 0.525067,-0.4725 0.353978,-0.3813 0.41604,-0.9544 0.65401,-1.3266 0.132232,-0.2069 0.345872,-0.3486 0.518809,-0.5229 0.51364,-0.026 0.397604,-0.678 0.709529,-0.8974 0.07969,-0.056 0.363184,-0.024 0.281839,-0.077 -0.106473,-0.07 -0.451942,0.118 -0.3824,0.011 0.990181,-1.52197 0.420847,0.6335 0.733226,-0.92187 0.588851,-0.5814 0.910652,-1.45428 1.239479,-2.32191 l 0.378433,-0.4694 c 0.08828,-0.25636 0.0992,-0.55442 0.264842,-0.76908 0.136079,-0.17634 0.439122,-0.15746 0.581998,-0.32835 0.758453,-0.90713 -0.759528,-0.15333 0.602585,-1.56122 0.09374,-0.12162 0.208546,-0.22959 0.281235,-0.36485 1.285844,-2.39272 -0.426789,0.66779 0.346715,-1.15189 0.764116,-1.79761 0.008,0.40306 0.906274,-1.12036 0.139421,-0.23644 0.162846,-0.52425 0.244269,-0.78638 0.342435,-0.20419 0.797827,-1.05879 0.862678,-1.38204 0.04848,-0.24168 -0.230682,-0.52839 -0.09396,-0.73349 0.173477,-0.26022 0.600028,-0.21004 0.849068,-0.39922 0.173769,-0.132 0.252725,-0.35582 0.379088,-0.53373 0.201354,-0.63414 0.633916,-1.23649 1.156451,-1.67037 0.04234,-0.0352 0.138299,0.14078 0.141067,0.0858 0.06335,-1.25799 -0.506935,-0.18813 0.397114,-1.36217 0.85381,-0.94451 1.034779,-2.36291 1.903239,-3.29641 0.241573,-0.25967 0.56128,-0.43371 0.84192,-0.65056 0.03806,-1.81754 0.918201,-1.76725 1.707061,-2.9527 0.01845,-0.0277 0.692669,-1.46598 0.736964,-1.56031 0.803398,-0.34057 0.770848,-1.25214 1.057102,-1.63397 0.138269,-0.18444 0.741226,-0.54477 0.572976,-0.3872 -0.09073,0.085 -0.177076,0.17452 -0.265614,0.26177 1.5545,-1.54742 -0.366632,0.58487 0.421669,-0.97249 0.06467,-0.12775 0.307342,-0.0677 0.386823,-0.18678 0.578871,-0.86742 -0.309512,-0.4084 0.849717,-0.99379 -0.395967,-0.19433 -0.182798,0.41013 -0.366449,0.41144 -0.678268,0.005 0.529584,-0.82027 0.75652,-1.15326 0.05581,-0.0819 -0.292106,0.12512 -0.296145,0.0261 -0.0063,-0.15502 0.188071,-0.24683 0.282106,-0.37024 0.03937,-0.1271 0.01815,-0.29349 0.118121,-0.38131 0.839745,-0.73772 0.198876,1.0828 -0.115591,0.64463 -0.833824,-1.16181 0.869731,-1.14956 1.141067,-1.31846 0.163836,-0.10199 0.203818,-0.32777 0.305727,-0.49166 0.06895,0.51158 -0.635576,0.0928 -0.760159,0.341 -0.0469,0.0934 0.387054,0.60927 -0.167281,0.54376 0.124826,-0.44187 0.279339,-0.87642 0.374479,-1.32562 0.03638,-0.1718 -0.185807,0.31328 -0.197185,0.48852 -0.01306,0.20113 0.09143,0.39277 0.127083,0.59114 0.03727,0.2074 0.07975,0.8359 0.09157,0.62551 0.134514,-2.39455 -0.45668,-1.40964 0.329606,-2.4624 0.05093,-0.10933 0.237332,-0.41403 0.152801,-0.328 -0.135168,0.13758 -0.316376,0.29556 -0.310333,0.48833 0.0037,0.11778 0.269882,-0.0419 0.321,-0.14807 0.03904,-0.0811 -0.092,-0.15467 -0.138,-0.23201 0.154836,-0.2403 0.250666,-0.53119 0.464508,-0.72089 0.08806,-0.0781 -0.03102,0.23338 -0.04653,0.35008 -0.07541,0.0763 -0.223084,0.3363 -0.226241,0.22903 -0.0157,-0.53339 0.276176,-1.24423 0.695072,-1.58017 0.08378,-0.0672 0.210377,-0.0907 0.265062,-0.18318 0.04644,-0.0785 0.0034,-0.18239 0.0052,-0.27358 l -0.363735,0.38526 c 0.554383,-1.75104 5.917463,-1.91921 5.363081,-0.16817 l -0.694479,2.24128 -0.262882,0.19568 c 0.04786,0.0618 0.185388,0.1194 0.143563,0.18544 -0.03924,0.062 -0.25217,0.0567 -0.219857,-0.009 0.373931,-0.76202 0.07976,-0.0657 -0.05545,0.29373 -0.03413,0.29193 -0.159218,0.58742 -0.102386,0.87579 0.0233,0.11821 0.321468,-0.22611 0.218195,-0.28817 -0.819775,-0.49262 -0.468826,0.25285 -0.536024,0.41672 -0.46379,1.131 -0.848853,0.70795 -0.41212,1.09603 0.403105,-0.74969 -0.362476,0.74005 0.03536,-1.83634 0.278015,-1.80043 0.177403,4.01959 -0.212699,2.19313 -0.06222,-0.29129 0.161355,-0.57345 0.242032,-0.86018 0.01154,0.37628 0.170019,0.7604 0.0819,1.12639 -0.03103,0.12887 -0.240237,0.13584 -0.310795,0.24804 -0.07635,0.12142 -0.04055,0.28972 -0.107218,0.41671 -0.266389,0.50739 -0.6478,0.67492 -1.114742,1.01469 0.478877,-0.35553 0.756535,-0.95404 0.717988,-0.88792 -0.241637,0.41449 -0.527421,0.80929 -0.704123,1.25535 -0.0041,0.0104 0.448415,0.1796 0.02836,-0.0176 0.09779,0.22801 0.535243,1.1743 -0.417264,0.83385 -0.27388,-0.0979 -0.05819,-0.61835 0.09146,-0.86775 0.07441,-0.124 0.212031,0.24248 0.197397,0.38635 -0.06309,0.62036 -0.493283,1.17686 -0.810056,1.67643 -0.0247,0.007 -0.3201,0.0927 -0.348396,0.11123 -0.02032,0.0133 0.09437,0.0155 0.07276,0.004 -0.106887,-0.0548 -0.234543,-0.20675 -0.332954,-0.13787 -0.383759,0.26862 0.534924,0.21022 0.105801,0.225 l -0.618133,0.79329 c -0.05615,0.25652 -0.02718,0.5482 -0.168453,0.76955 -0.06862,0.10753 -0.264137,0.0159 -0.374093,0.0805 -0.414259,0.24356 -0.725394,0.95457 -0.898944,1.32421 -0.460549,0.68883 -1.118289,1.3469 -1.521654,2.05796 -0.124976,0.22031 -0.102984,0.50704 -0.237006,0.72197 -0.124145,0.19909 -0.342283,0.32099 -0.513425,0.48149 l -0.570939,0.96708 c -0.242466,0.39325 -0.596697,0.71663 -0.801338,1.13082 -0.104065,0.21063 -0.06261,0.475 -0.169847,0.68403 -0.128324,0.25013 -0.384294,0.4175 -0.521239,0.66301 -0.820204,1.47044 0.67158,-0.36837 -0.673967,1.14607 0.01345,0.17135 0.08692,0.3486 0.04035,0.51404 -0.05401,0.1919 -0.225222,0.32938 -0.326155,0.5013 -0.586062,0.9982 -0.735025,1.62465 -1.653163,2.34261 -1.08611,0.96186 -0.318843,0.67137 -0.70982,1.46842 -0.05487,0.11186 -0.268801,0.0392 -0.348576,0.13494 -0.367211,0.44055 -0.246367,1.20536 -0.939316,1.44153 0.180366,1.33522 0.214468,0.0331 -0.6044,0.89009 -0.139652,0.14614 -0.04405,0.40755 -0.122145,0.594 -0.09157,0.21863 -0.335158,0.36886 -0.378735,0.60185 -0.191433,1.02355 0.786506,0.10203 -0.344446,0.88901 -0.107966,0.0451 -0.267138,0.0331 -0.323899,0.13544 -0.129334,0.23318 -0.0864,0.53021 -0.183125,0.7787 -0.08191,0.21044 -0.253287,0.37644 -0.34655,0.5821 -0.284448,0.62726 -0.524357,1.2683 -0.772289,1.9097 -0.367607,0.27217 -0.654719,0.40967 -0.745732,0.96997 -0.04077,0.251 0.267998,0.5176 0.157326,0.7465 -0.146921,0.3039 -1.325593,0.8119 -1.455785,1.2781 0.21352,0.437 0.0071,-0.044 -0.07935,0.035 -0.20455,0.1853 -0.301794,0.4624 -0.461066,0.6878 -0.507794,0.7186 -0.02736,1.1985 -0.694061,0.6735 -0.400774,0.9533 0.07024,-0.2325 -0.263179,0.8495 -0.206859,0.6712 -0.834327,1.1346 -0.968538,1.8463 -0.09283,-0.08 -0.166416,-0.2903 -0.278478,-0.2405 -1.302274,0.5789 0.05448,0.314 -0.128525,0.6565 -0.113561,0.2126 -0.372099,0.318 -0.500031,0.5222 -0.08454,0.135 -0.07812,0.3088 -0.11718,0.4632 -0.100015,0.1493 -0.200031,0.2987 -0.300047,0.448 -0.207587,0.9936 -0.670259,0.7664 -0.876577,1.2014 -0.06515,0.1374 0.0041,0.3101 -0.04516,0.4539 -0.126154,0.3684 -0.618412,0.5691 -0.478446,1.0657 -0.07176,0.3693 -0.206512,1.0016 -0.430077,1.3292 -0.143652,0.2106 -0.40873,0.3269 -0.530047,0.551 -0.322029,0.595 -0.242578,1.36 -0.703148,1.9038 -0.870082,1.4501 -4.971684,-1.0108 -4.101603,-2.4609 z"
       inkscape:connector-curvature="0"
       sodipodi:nodetypes="ccsscccccccsccccccccccccssccccsccccsccccccccccccccscccccscscccccccscccccccccccsscsccccccsccccccccccccccssccsssccccsccccscccscscccccccccccccccccccc" />
    <path
       style="opacity:1;fill:#000000;fill-opacity:1;stroke:#000000;stroke-width:0;stroke-miterlimit:4;stroke-dasharray:none;stroke-dashoffset:0;stroke-opacity:1"
       id="path4240"
       d="m 81.856569,966.41606 0.222987,1.42282 c 0.192336,0.66611 0.450374,1.31667 0.577007,1.99834 0.149762,0.80616 0.01067,1.66265 0.248855,2.44726 0.27569,0.90814 0.940391,1.65853 1.267974,2.54927 0.366426,0.99636 1.333617,5.55544 1.524156,6.41749 0.390826,1.20366 1.882894,5.74521 2.177591,6.88091 0.302116,1.16429 0.433084,2.36879 0.739386,3.53199 0.654618,2.48594 1.315059,3.75946 2.061331,6.17503 0.288858,0.93498 0.50958,1.88967 0.76437,2.83453 4.512349,9.8327 -1.463076,-3.95814 1.316928,4.8016 0.206108,0.6494 0.894872,1.071 1.106725,1.7186 0.206252,0.6304 -0.01005,1.334 0.105595,1.9872 0.70332,2.1795 0.46546,1.1039 0.754005,3.2177 0.285052,3.4652 0.08805,-0.4981 -0.127581,2.6852 -0.02267,0.3347 0.11058,0.6674 0.09126,1.0023 -0.01631,0.2828 -0.224267,0.5448 -0.196748,0.8268 0.107865,1.1051 0.730562,0.1675 -0.01728,0.9953 0.139604,0.1212 0.347772,0.193 0.418813,0.3638 0.06126,0.1472 -0.281253,0.511 -0.319402,0.3562 -0.42966,-1.7439 0.337754,-0.8753 -0.421269,-1.6669 0.352623,0.8993 1.020613,1.5006 1.044784,2.4727 0.26295,1.6609 -4.434856,2.4046 -4.697806,0.7437 l 0,0 c -0.468098,0.2091 0.114618,0.4113 0.377925,0.5923 -0.833282,-0.9469 -0.903585,-1.1652 -1.204339,-2.5784 -0.172441,-0.8103 0.183921,0.179 0.223791,-0.3631 0.01008,-0.1371 -0.08274,-0.2621 -0.124109,-0.3931 0.01253,-0.2477 -0.09826,-0.4984 -0.05309,-0.7423 0.04578,-0.2472 0.24253,-0.4527 0.276454,-0.7018 0.03785,-0.2779 -0.08463,-0.559 -0.06665,-0.8389 0.116246,-1.8099 0.462245,-0.2893 -0.210941,-2.1377 0.05981,-0.4248 0.221552,-0.8474 0.179424,-1.2744 -0.04709,-0.4771 -0.304688,-0.9094 -0.440318,-1.3693 -0.155027,-0.5257 -0.30373,-1.0536 -0.431428,-1.5866 -0.542774,-2.2654 -0.951795,-4.5574 -2.147145,-6.608 -2.145016,-5.26921 -0.331713,-0.1049 -1.485707,-5.98696 -0.583919,-2.9763 -1.228343,-3.8373 -2.082998,-6.7439 -2.005244,-6.81966 0.404749,-0.30928 -2.244765,-6.97494 -0.647665,-3.06968 -1.30419,-6.13895 -2.251034,-9.13455 -0.245777,-0.77758 -0.600246,-1.51972 -0.819109,-2.3053 -0.175605,-0.63032 -0.108598,-1.32573 -0.360713,-1.92953 -0.168468,-0.40347 -0.929745,-2.26805 -1.216046,-2.5985 -0.598917,-1.79675 4.840198,-1.8836 5.439117,-0.0869 z"
       inkscape:connector-curvature="0"
       sodipodi:nodetypes="ccssscssscccccsccccccccccsccscscccscsscssscc" />
    <path
       style="opacity:1;fill:#000000;fill-opacity:1;stroke:#000000;stroke-width:0;stroke-miterlimit:4;stroke-dasharray:none;stroke-dashoffset:0;stroke-opacity:1"
       id="path4242"
       d="m 38.326,987.73631 c 0.315301,0.0139 0.631214,0.0656 0.945904,0.0416 0.428224,-0.0327 0.842246,-0.18688 1.271049,-0.21079 2.105911,-0.11742 4.497555,0.24217 6.588971,0.49656 0.579808,-0.13975 1.143951,-0.38579 1.739425,-0.41927 0.590101,-0.0332 1.168472,0.20007 1.759078,0.22253 1.225778,0.0466 2.451093,-0.17657 3.677262,-0.14173 1.32432,0.0376 2.642218,0.20103 3.964858,0.27759 2.283522,-0.14167 4.552116,-0.26784 6.839305,-0.11464 0.471301,0.0316 0.938896,0.22129 1.407654,0.16309 0.43784,-0.0544 0.819579,-0.327 1.229369,-0.4905 0.264091,0.0354 1.665817,0.24512 1.991138,0.21068 0.285845,-0.0303 0.536816,-0.25326 0.824259,-0.25339 0.264855,-1.2e-4 0.490467,0.22017 0.753319,0.25268 0.431332,0.0533 0.866702,-0.0746 1.30125,-0.0823 0.488096,0.28276 1.49476,-0.11631 1.913362,-0.0709 0.5102,0.0553 0.59182,0.42232 1.405862,0.40549 0.684967,-0.79013 -0.06661,-0.17226 0.706905,-0.004 0.311622,0.1547 0.243974,-0.50193 0.458205,-0.46447 0.621749,0.10873 -5.5e-4,0.67399 0.513038,0.0618 0.05095,0.0487 0.08411,0.13059 0.152863,0.14595 0.632784,0.14141 -0.02943,-0.23162 0.50646,0.002 0.122757,0.0535 0.222495,0.24295 0.349018,0.19904 0.646641,-0.22445 -0.0184,-0.6634 0.481308,-0.24809 0.107514,-0.0669 0.196807,-0.1857 0.322543,-0.20067 0.09421,-0.0112 0.16089,0.10591 0.252034,0.13227 0.361155,0.10442 0.748206,0.1201 1.097924,0.25806 0.154044,0.0608 0.220548,0.26898 0.376834,0.32373 0.215808,0.0756 0.474032,-0.0418 0.684315,0.048 0.07295,0.0312 -0.106949,0.1172 -0.160423,0.1758 0.929723,-0.24567 0.364115,0.38149 0.291846,0.25127 -0.06763,-0.12187 0.06476,-0.32737 0.197995,-0.36829 0.09087,0.36913 -0.02114,0.32132 0.310243,0.19294 0.344687,-0.53981 0.0089,-0.22864 0.404174,-0.13252 0.102307,0.0249 0.217609,-0.0727 0.314331,-0.0311 0.09918,0.0427 0.09507,0.23859 0.20204,0.25313 0.07775,0.0106 0.03761,-0.16832 0.103017,-0.21167 0.08793,-0.0583 0.206863,-0.0415 0.310294,-0.0623 0.236134,0.38226 0.213889,-0.0801 0.439838,0.12048 1.642984,-0.0166 1.689983,4.63044 0.047,4.64706 l 0,0 c -0.259039,0.0521 -0.300372,0.17303 -0.414456,0.44516 -0.07152,-0.11481 -0.09911,-0.27394 -0.214552,-0.34442 -0.05512,-0.0337 -0.09802,0.0845 -0.151262,0.12108 -0.252185,0.17311 -0.847888,0.23808 -1.100045,0.06 -0.61815,-0.16108 -0.31243,-0.20411 -0.886355,0.26875 -0.159563,-0.002 -0.122279,-0.34854 -0.276071,-0.39113 -1.01586,-0.28138 -0.937248,0.47771 -1.069771,-0.58748 -0.297785,0.0385 -0.595569,0.0771 -0.893354,0.11561 0.05708,-0.066 0.257319,-0.18371 0.17123,-0.19812 -0.128029,-0.0214 -0.478922,0.19192 -0.351341,0.16797 1.052749,-0.19761 0.384618,-0.64801 -0.008,-0.14128 -0.467596,-0.007 0.102508,-0.0481 -0.481308,0.28735 -0.297728,0.17105 -0.878813,0.0316 -1.008341,-0.25212 -0.174039,0.0642 -0.330602,0.18199 -0.513038,0.21548 -0.349785,0.0642 -0.797777,-0.4077 -1.16511,-0.0896 -1.113311,-0.0779 -2.199156,-0.18428 -3.319224,-0.1492 -1.634412,0.008 -3.253677,0.34177 -4.869966,-0.13966 -3.060532,-0.18032 0.755965,-0.0745 -2.637023,0.26426 -2.270465,0.22667 -4.575665,-0.58914 -6.839305,-0.0868 -1.974251,-0.027 -3.945038,-0.18463 -5.915646,-0.21937 -1.373156,-0.0242 -2.120709,0.10646 -3.485552,0.26133 -0.584976,-0.006 -1.159617,-0.15557 -1.739425,-0.23335 -2.933337,0.23621 -5.865286,-0.006 -8.805924,0.10607 -1.716974,0 -1.716974,-4.85634 0,-4.85634 z"
       inkscape:connector-curvature="0" />
    <path
       style="opacity:1;fill:#000000;fill-opacity:1;stroke:#000000;stroke-width:0;stroke-miterlimit:4;stroke-dasharray:none;stroke-dashoffset:0;stroke-opacity:1"
       id="path4258"
       d="m 40.750479,952.18996 c 1.36088,-1.0516 2.040185,-2.8727 3.16941,-4.1961 0.522935,-0.6128 1.201615,-1.0249 1.691614,-1.6755 0.504262,-0.6695 1.701382,-3.4392 2.019009,-4.142 1.059823,-1.5332 2.719799,-3.4581 3.618572,-5.1129 0.316034,-0.5819 0.459893,-1.2779 0.752595,-1.877 0.537662,-1.1004 1.402287,-2.3081 2.06904,-3.2965 0.39654,-1.2898 1.456969,-2.0877 1.946029,-3.3 0.266412,-0.6604 0.260923,-1.4431 0.507219,-2.1146 0.224913,-0.6132 0.66329,-1.0907 0.892518,-1.7017 0.672866,-2.6632 0.263915,-1.4208 1.189972,-3.744 -0.02995,-1.9192 0.995427,-3.0162 1.651768,-4.586 0.530503,-1.2688 1.003404,-2.7352 1.292135,-4.1113 1.168283,-2.32565 1.440689,-5.12059 2.575286,-7.4322 0.623922,-1.21367 0.933225,-2.5554 1.512913,-3.79659 0.15775,-0.33775 0.393409,-0.6264 0.510638,-0.98698 0.754197,-2.31987 -0.318984,-0.80638 1.048259,-2.33869 -5.08e-4,-0.25097 -0.07981,-0.52008 -0.0015,-0.75292 0.01425,-0.0424 0.652041,-0.64491 0.772935,-0.60932 1.96091,0.57745 3.987383,0.94151 5.855921,1.85776 0.284055,0.1393 0.09962,0.72465 0.149429,1.08699 -0.154175,0.35911 -0.406453,0.67924 -0.462523,1.07732 -0.05135,0.36459 0.137409,0.72423 0.156793,1.09324 0.02185,0.41597 -0.05654,0.83382 -0.03372,1.2497 0.09159,1.6693 0.232094,0.21005 0.474485,2.09233 0.05045,0.3918 -0.01262,0.7927 -0.01893,1.18905 0.156115,0.52437 0.376022,1.02756 0.468342,1.57311 0.09573,0.56567 -0.04741,1.17492 0.09028,1.72807 0.13276,0.5333 0.466327,0.96304 0.69949,1.44456 0.233411,0.68395 0.548339,1.33581 0.700229,2.05187 0.722859,3.4078 -0.916262,-0.2492 0.95567,3.2498 1.033578,1.1172 0.447881,3.2659 0.770745,4.424 0.277145,0.994 1.015993,1.3769 1.343798,2.8967 0.04517,0.3933 0.01798,0.8087 0.135536,1.18 0.08952,0.2827 0.386591,0.4291 0.464948,0.7165 0.412673,1.5138 -3.75e-4,1.6181 0.158159,3.1092 0.04091,0.3847 0.373186,1.1588 0.523948,1.5359 -0.07853,1.0546 0.851922,1.7477 0.932314,2.7241 0.03949,0.4796 -0.270043,0.9192 -0.303198,1.3995 -0.01334,0.1932 0.153382,0.3524 0.168938,0.5454 0.02129,0.2641 -0.178341,0.5674 -0.06107,0.7926 0.09718,0.1866 0.360575,0.086 0.540863,0.1289 0.152564,0.476 -0.06965,0.9685 -0.0089,1.4445 0.02884,0.2261 0.214091,0.3924 0.251477,0.6166 0.02997,0.1799 -0.138003,0.3896 -0.05773,0.5458 0.07796,0.1516 0.04447,-0.3522 0.06671,-0.5283 l 0.165622,0.5602 0.03917,0.5976 0.240649,0.8946 c 0.03025,-0.03 0.0844,-0.1369 0.09077,-0.09 0.21269,1.5507 0.09737,1.7332 0.8442,3.1578 -0.131627,-0.04 -0.3369,-0.2655 -0.394882,-0.1188 -0.136352,0.3452 0.618154,0.4301 0.681747,0.8041 0.379699,2.2337 -0.50831,10e-5 0.232172,1.6386 -0.878048,-1.5542 -0.158531,-0.2023 -0.06133,-0.2604 0.01173,-0.01 -0.864563,-1.6552 -0.138178,0.475 0.544701,1.5973 0.667887,0.5402 0.542034,1.3019 0.06612,-1.9429 0.442382,1.6231 0.450234,1.7422 0.02099,0.3183 -0.02914,1.2294 0.100427,0.9502 0.637611,-1.3734 0.512722,-1.3697 0.0093,-1.7749 -0.296506,0.235 0.767917,1.0173 0.485558,0.9008 -0.408736,-0.1687 -1.392063,-1.1141 -0.964438,-1.0375 1.438799,0.2575 1.021211,2.553 1.259271,1.0989 -0.07103,0.027 -0.250247,0.01 -0.213076,0.083 0.962355,2.0057 0.347782,-0.2511 0.984017,1.4732 0.07257,0.1968 -0.03461,0.5434 0.131488,0.6258 0.321132,0.1591 0.292146,-1.1263 0.260801,-0.021 1.063782,1.3081 2.759231,3.9886 2.0809,3.5674 1.565928,1.788 -4.001366,4.5856 -5.567305,2.7977 l 0,0 c -0.975683,-0.9402 -1.145847,-1.0222 -0.374058,-0.483 -0.636695,-0.5193 -1.474829,-1.0757 -1.715695,-2.0274 -0.03371,-0.1332 0.102542,-0.3058 0.03125,-0.4158 -0.04858,-0.075 -0.123237,0.1192 -0.184845,0.1789 l -0.668167,-0.6422 c -0.05536,-0.3738 0.02287,-0.8164 -0.166061,-1.1215 -0.103663,-0.1673 -0.641486,-0.142 -0.522384,0.011 0.232617,0.2967 1.056429,0.8842 0.927964,0.5075 -0.228433,-0.6698 -0.853062,-1.0257 -1.279593,-1.5386 0.07746,0.059 0.227252,0.2866 0.232391,0.1769 0.0089,-0.1901 -0.144549,-0.3393 -0.216823,-0.509 -1.205751,-1.1131 -0.535479,-0.1194 -0.238139,-2.7127 0.02354,-0.2053 -0.201849,0.3526 -0.231503,0.5568 -0.06498,0.4474 0.484049,1.6775 0.23716,1.3325 -0.228,-0.3186 -0.312663,-0.7507 -0.468996,-1.1261 -0.02023,-0.115 -0.0097,-0.445 -0.06072,-0.3447 -0.08663,0.1704 -0.125873,0.4073 -0.06562,0.5933 0.02896,0.09 0.262056,-0.033 0.220514,-0.1151 -0.168342,-0.3324 -0.508691,-0.4997 -0.693621,-0.8192 -0.334175,-0.5776 0.226794,-1.6376 -0.306353,-2.0749 -0.128008,-0.057 -0.294148,-0.047 -0.384023,-0.1697 -0.04344,-0.06 0.166473,-0.048 0.167195,-0.1267 0.001,-0.1111 -0.123045,-0.1699 -0.163568,-0.2699 -0.109678,-0.2707 -0.159746,-0.5745 -0.284476,-0.8357 -0.126206,-0.2642 -0.420588,-0.4266 -0.461802,-0.7269 -0.0629,-0.4582 0.115298,-0.9184 0.172941,-1.3777 0.391943,-0.557 -0.176125,0.3227 -0.177629,0.3134 -0.132,-0.8163 -0.105205,-1.4529 -0.270959,-2.21 -0.866103,-0.6725 -0.334399,-0.048 -0.570118,-1.8031 -0.01148,-0.085 -0.124268,-0.1262 -0.123351,-0.2124 0.0066,-0.6201 0.388901,-0.4069 -0.26206,-0.9723 -0.04928,-0.528 -0.120993,-1.5244 -0.25912,-2.021 -0.127211,-0.4573 -0.458349,-0.8407 -0.491523,-1.321 -0.02273,-0.3292 0.310614,-0.576 0.33781,-0.9047 0.01561,-0.1887 -0.378941,-1.3294 -0.436856,-1.5052 -0.153813,-1.0799 -0.722443,-3.105 -0.76129,-4.0807 -0.01924,-0.4832 0.178423,-0.9994 0.03283,-1.4508 -0.110265,-0.3418 -0.480513,-0.4545 -0.72077,-0.6817 0.03533,-0.4051 0.193199,-0.8216 0.105983,-1.2153 -0.06559,-0.2961 -0.399026,-0.4047 -0.524101,-0.6721 -0.142007,-0.3035 -0.153239,-0.6722 -0.256874,-0.9972 -0.482417,-1.5128 -1.080297,-2.9763 -1.174371,-4.6303 -0.536972,-1.2911 -1.011455,-2.3069 -1.36265,-3.7123 -0.127123,-0.5087 -0.06654,-1.0768 -0.235694,-1.5676 -0.237253,-0.6886 -0.768824,-1.2065 -0.963915,-1.9137 -0.323426,-1.17243 0.138062,-2.53746 -0.445658,-3.66524 l -0.280623,-1.80593 c 0.01837,-0.51139 0.118955,-1.02807 0.0551,-1.53421 -0.07459,-0.59135 -0.309267,-1.13746 -0.463899,-1.70618 0.06273,-0.41062 0.218479,-0.81601 0.188216,-1.23187 -0.151878,-2.08696 -0.730021,0.0152 -0.03384,-1.84934 -1.038724,-2.74845 -0.525153,-0.95748 5.879446,0.0948 0.303192,0.0498 -0.610933,0.3609 -0.699486,0.71129 -0.393523,1.55711 0.742287,0.41248 -0.754666,1.44246 -0.150146,0.43998 -0.101943,0.97114 -0.308537,1.37707 -0.201394,0.3957 -0.621797,0.59551 -0.80211,1.0055 -0.482887,1.09797 0.167253,2.40198 -1.275018,3.28458 -0.422624,1.21472 -1.133336,2.55331 -1.298447,3.86902 -0.06044,0.4816 0.136478,0.99295 0.02314,1.46075 -0.199566,0.8235 -1.052868,1.28 -1.074625,2.228 l -0.355342,1.5015 c -0.305806,0.3857 -0.742643,0.6683 -0.917421,1.157 -0.162277,0.4538 0.0819,1.0038 -0.02577,1.4803 -0.276717,1.2246 -1.581936,3.1212 -1.5721,4.568 -1.207417,1.6512 -1.424537,1.557 -1.881834,3.7481 -0.180963,0.867 -0.06106,1.8171 -0.327038,2.6523 -0.237507,0.7457 -0.820657,1.2665 -1.143475,1.9649 -1.715022,3.7102 0.304962,0.8158 -1.929826,3.6388 -0.132507,0.2177 -1.978883,3.2367 -2.103672,3.4971 -0.33001,0.6885 -0.499317,1.477 -0.836266,2.1608 -0.979742,1.9881 -2.405075,3.6881 -3.45863,5.6173 -1.482676,1.7675 -2.631287,3.746 -4.005886,5.6227 -0.179221,0.2448 -2.486265,3.1178 -2.722697,3.509 -0.280005,0.4634 -0.439572,1.0154 -0.659359,1.5231 -1.62544,1.9442 -7.58027,-0.9978 -5.954831,-2.9419 z"
       inkscape:connector-curvature="0"
       sodipodi:nodetypes="csccsscssccscccscccccsssccsccscsccscccsscccccccccccccccscccccccccccccccccccccccccscccccccccccccccccsccsccscccsccsssccccsccsccscscccsccssccsscccccc" />
    <path
       style="opacity:1;fill:#808080;fill-opacity:1;stroke:#000000;stroke-width:1;stroke-miterlimit:4;stroke-dasharray:none;stroke-dashoffset:0;stroke-opacity:1"
       d="m 188.02683,173.2519 c -2.09285,-0.95524 -5.25477,-2.0243 -6.60714,-2.2339 -1.04882,-0.16256 -5.21018,-2.40547 -7.68303,-4.14105 -3.59661,-2.52428 -11.9328,-9.46563 -16.8042,-13.99246 -3.03824,-2.82334 -6.56618,-6.0263 -7.83986,-7.11768 -1.27367,-1.09138 -6.83495,-5.91281 -12.35839,-10.71428 -5.52344,-4.80148 -12.98975,-11.14068 -16.5918,-14.0871 -18.01174,-14.73338 -17.35582,-14.14945 -16.54596,-14.72994 0.37421,-0.26822 2.36788,-1.66626 4.43038,-3.10676 2.0625,-1.44049 4.76779,-3.546544 6.01177,-4.68011 l 2.26176,-2.061028 1.66681,0.806183 c 4.3478,2.102901 17.69931,10.189395 24.4428,14.804065 7.64518,5.23171 7.97745,5.47285 11.88164,8.6233 1.95616,1.57849 4.27986,3.38744 5.16379,4.01987 1.82935,1.30887 3.80828,2.87727 7.56393,5.99481 1.43805,1.19372 3.98071,3.07692 5.65036,4.18488 1.66964,1.10795 4.24107,3.07788 5.71428,4.3776 2.84532,2.51024 6.65453,5.15998 7.41789,5.15998 0.94292,0 7.91647,6.90308 9.21923,9.12608 1.43235,2.44412 2.30025,7.85137 2.27022,14.14399 -0.0141,2.95077 -0.11263,5.59178 -0.21897,5.86891 -0.32972,0.85923 -7.02325,0.67766 -9.04551,-0.24536 z"
       id="path4264"
       inkscape:connector-curvature="0"
       transform="translate(0,852.36216)" />
    <path
       style="opacity:0.10100002;fill:#000000;fill-opacity:1;stroke:#000000;stroke-width:0.35714287;stroke-miterlimit:4;stroke-dasharray:none;stroke-dashoffset:0;stroke-opacity:0.96078431"
       d="m 189.97036,173.0611 c -2.55961,-0.6075 -10.25174,-3.45855 -12.33182,-4.57073 -4.09508,-2.18956 -11.57933,-8.22567 -22.66818,-18.28207 -8.11906,-7.36312 -23.41825,-20.58522 -33.21429,-28.70496 -15.66288,-12.98266 -17.49963,-14.53539 -17.48869,-14.78439 0.006,-0.14153 1.04846,-0.95638 2.31609,-1.81078 l 2.30478,-1.55346 5.30866,3.44919 c 4.91044,3.19045 5.63571,3.80931 9.66842,8.24989 2.39787,2.64038 4.59344,4.80069 4.87903,4.80069 0.2856,0 1.9856,-0.32661 3.77777,-0.72581 1.79217,-0.3992 3.29535,-0.68045 3.34039,-0.625 0.045,0.0554 0.61093,1.70796 1.25753,3.67224 0.96748,2.93906 1.53604,4.01409 3.21105,6.07143 1.11947,1.375 2.55625,3.4241 3.19284,4.55356 0.63659,1.12946 1.30452,2.14446 1.48428,2.25556 0.25633,0.15842 10.53561,1.58347 11.42355,1.58369 0.11628,2e-5 0.59843,1.68746 1.07143,3.74985 l 0.86001,3.74981 2.5,1.4e-4 c 1.92208,1.1e-4 3.52981,-0.32607 6.95477,-1.411 4.41346,-1.39806 4.49288,-1.40911 8.56343,-1.19096 3.88599,0.20825 4.19618,0.28234 5.7238,1.3671 0.88833,0.6308 2.17765,1.43248 2.86515,1.78151 1.89521,0.96215 4.47509,3.25111 7.19647,6.38496 1.94838,2.24369 2.60024,3.30254 3.17124,5.15122 0.92958,3.00964 1.65382,11.93716 1.20726,14.8817 l -0.32497,2.14286 -2.5,0.0552 c -1.375,0.0304 -3.0625,-0.0783 -3.75,-0.24146 z"
       id="path4270"
       inkscape:connector-curvature="0"
       transform="translate(0,852.36216)" />
    <path
       style="opacity:0.10100002;fill:#000000;fill-opacity:1;stroke:#000000;stroke-width:0.35714287;stroke-miterlimit:4;stroke-dasharray:none;stroke-dashoffset:0;stroke-opacity:0.96078431"
       d="m 189.97036,173.1005 c -0.6875,-0.1415 -2.30193,-0.68061 -3.58761,-1.19803 -1.28569,-0.51742 -3.05823,-1.10226 -3.939,-1.29964 -4.54693,-1.01899 -13.10661,-7.29537 -26.01573,-19.07602 -9.4781,-8.64956 -28.0461,-24.60182 -41.99253,-36.07692 -1.92047,-1.58015 -2.03128,-1.74029 -1.07143,-1.54828 0.58882,0.11779 1.71344,0.32253 2.49915,0.45498 2.68212,0.45215 10.60362,6.32202 18.88924,13.99702 5.34972,4.95546 8.68441,7.72814 11.78572,9.79939 2.37877,1.58869 6.01568,4.36383 8.082,6.16695 2.06633,1.80313 4.07525,3.44371 4.46429,3.64573 0.38903,0.20202 2.60808,0.80517 4.93122,1.34034 l 4.22391,0.97303 4.9765,-0.56942 c 2.73708,-0.31319 7.76312,-0.56943 11.16897,-0.56943 l 6.19246,0 1.78486,2.05357 c 2.28132,2.62478 2.78041,3.62068 3.4577,6.89966 0.68521,3.31729 1.10864,11.80121 0.68504,13.72534 l -0.31451,1.42857 -2.48512,0.0552 c -1.36683,0.0304 -3.04763,-0.0606 -3.73513,-0.20206 z"
       id="path4274"
       inkscape:connector-curvature="0"
       transform="translate(0,852.36216)" />
    <path
       style="opacity:0.10100002;fill:#000000;fill-opacity:1;stroke:#000000;stroke-width:0.35714287;stroke-miterlimit:4;stroke-dasharray:none;stroke-dashoffset:0;stroke-opacity:0.96078431"
       d="m 189.97036,173.1005 c -0.6875,-0.1415 -2.30193,-0.68061 -3.58761,-1.19803 -1.28569,-0.51742 -3.13037,-1.11843 -4.0993,-1.33557 -3.33593,-0.7476 -9.20931,-4.63954 -17.15592,-11.3682 l -1.40717,-1.1915 2.14285,0.21461 c 9.69471,0.97094 16.60623,1.30801 22.5,1.09731 3.53572,-0.1264 6.6889,-0.30292 7.00707,-0.39225 0.41782,-0.11732 0.64128,0.15151 0.80456,0.96787 0.40371,2.01855 0.63645,11.17966 0.31201,12.28117 -0.30906,1.04927 -0.36679,1.07257 -2.79104,1.12665 -1.3615,0.0304 -3.03795,-0.0606 -3.72545,-0.20206 z"
       id="path4278"
       inkscape:connector-curvature="0"
       transform="translate(0,852.36216)" />
    <path
       style="opacity:1;fill:#a0896b;fill-opacity:1;stroke:#000000;stroke-width:1;stroke-miterlimit:4;stroke-dasharray:none;stroke-dashoffset:0;stroke-opacity:0.96078431"
       d="M 51.056317,111.92933 C 40.3414,111.12354 32.974866,109.48022 27.127745,106.59134 19.961123,103.05054 15.855394,99.144786 12.867311,93.025472 10.481474,88.139504 10.121342,85.956729 9.9182013,75.150814 9.7470747,66.047857 9.7617645,65.794811 10.664584,62.293672 11.82468,57.794818 15.278846,50.7326 17.794744,47.715699 c 1.012612,-1.214258 2.475236,-3.011313 3.250275,-3.993456 3.643958,-4.617685 11.824722,-12.246874 18.782146,-17.515788 6.950423,-5.263615 15.306927,-9.805641 18.040598,-9.805641 0.995411,0 3.367125,-0.982352 3.367125,-1.394647 0,-0.550064 1.437561,-0.699099 9.107143,-0.944155 4.125,-0.1318 7.580357,-0.28638 7.678572,-0.343511 0.09821,-0.05713 1.668828,0.04606 3.49025,0.229305 3.882917,0.39065 9.811521,2.082786 15.083535,4.305128 3.600522,1.517747 11.270082,6.125337 14.640502,8.795479 9.35071,7.407896 12.77724,11.701278 15.68542,19.653572 1.56011,4.266069 2.0026,7.899472 1.92055,15.770258 -0.0617,5.916307 -0.2047,7.555454 -0.95045,10.892857 -1.83559,8.214689 -6.18399,15.057925 -14.14299,22.257361 -5.88651,5.324729 -8.92699,7.414059 -15.20316,10.447169 -6.213204,3.00267 -12.546065,4.95908 -18.363615,5.67305 -5.240542,0.64316 -21.654978,0.74835 -29.124328,0.18665 z m 30.716025,-5.47532 c 4.694328,-0.86543 11.913528,-3.43516 15.679268,-5.58116 8.49834,-4.842986 16.69149,-12.553475 20.81724,-19.590886 3.71815,-6.342142 4.53585,-10.432114 4.29615,-21.488292 -0.14091,-6.499118 -0.24263,-7.43254 -1.12869,-10.357143 -0.5356,-1.767858 -1.63661,-4.463685 -2.44669,-5.990727 -4.12875,-7.782877 -14.58283,-16.38265 -26.504732,-21.803406 -4.739043,-2.154791 -8.287485,-3.043526 -14.117118,-3.535742 -6.252739,-0.52794 -17.471792,-0.01423 -19.097167,0.874435 -0.589286,0.322191 -3.117654,1.576896 -5.618593,2.788234 -2.500943,1.211337 -5.554515,2.963769 -6.785715,3.894291 -1.231203,0.930523 -2.881407,2.101931 -3.667121,2.603129 -2.799864,1.786001 -12.197495,10.237147 -15.442298,13.887022 -8.389507,9.436831 -11.156331,14.540671 -12.37004,22.818478 -0.690204,4.707368 -0.241851,16.161286 0.784006,20.028704 0.98047,3.696314 1.502497,4.849635 3.570868,7.88916 4.513665,6.632947 11.502181,10.817153 21.314607,12.761623 9.336164,1.85009 32.551189,2.30753 40.716025,0.80228 z"
       id="path4280"
       inkscape:connector-curvature="0"
       transform="translate(0,852.36216)" />
    <path
       style="opacity:0.195;fill:#000000;fill-opacity:1;stroke:#000000;stroke-width:0;stroke-miterlimit:4;stroke-dasharray:none;stroke-dashoffset:0;stroke-opacity:0.96078431"
       d="M 49.411759,111.17213 C 37.971552,110.11083 30.095608,107.89148 23.763242,103.94469 18.75602,100.82383 15.71709,97.399765 13.142033,91.977426 11.082419,87.640464 10.785314,85.42629 10.738867,74.067857 l -0.04121,-10.076271 1.158786,-3.31955 c 1.199299,-3.435604 4.190804,-9.581538 5.431524,-11.158857 0.496615,-0.631345 1.045214,-0.899545 1.832244,-0.895752 2.02598,0.0098 2.046563,0.337543 0.210577,3.353343 -3.859105,6.338989 -5.103678,12.074925 -4.794586,22.097087 0.216216,7.010698 0.540663,9.617798 1.635773,13.144277 1.526728,4.916383 5.714359,10.188819 10.732837,13.513176 4.732987,3.13524 10.178578,5.05091 17.103584,6.01678 9.925609,1.38439 30.535771,1.60467 37.314673,0.39882 11.267679,-2.00432 21.567481,-7.602306 30.314091,-16.475835 7.56129,-7.671019 10.69989,-14.03528 11.5055,-23.330121 l 0.23115,-2.66704 2.43805,0.330026 2.43803,0.330026 -0.20859,2.51379 c -0.82483,9.939902 -5.00925,18.022088 -13.50546,26.085729 -7.82129,7.423075 -14.56959,11.510935 -24.448122,14.809725 -7.043244,2.35199 -8.464107,2.50993 -23.705402,2.6349 -7.486493,0.0614 -15.123246,-0.0286 -16.970562,-0.19998 z"
       id="path4284"
       inkscape:connector-curvature="0"
       transform="translate(0,852.36216)" />
    <path
       style="opacity:0.19500002;fill:#000000;fill-opacity:1;stroke:#000000;stroke-width:0;stroke-miterlimit:4;stroke-dasharray:none;stroke-dashoffset:0;stroke-opacity:0.96078431"
       d="m 47.562358,110.96003 c -2.191327,-0.22424 -4.501302,-0.50266 -5.133279,-0.61872 -0.631977,-0.11605 -1.586571,-0.28892 -2.12132,-0.38414 -0.53475,-0.0952 -1.37002,-0.26858 -1.856156,-0.38524 -0.486136,-0.11667 -1.125329,-0.24516 -1.420429,-0.28555 -0.2951,-0.0404 -0.743208,-0.20116 -0.995794,-0.35727 -0.252587,-0.1561 -0.553349,-0.18973 -0.668361,-0.0747 -0.115012,0.11501 -0.422625,0.0319 -0.683584,-0.18467 -0.26096,-0.21658 -0.474472,-0.27526 -0.474472,-0.13042 0,0.14485 -0.198874,0.10672 -0.441942,-0.0847 -0.243068,-0.19145 -0.919239,-0.47639 -1.502602,-0.63319 -1.570495,-0.42212 -1.576524,-0.42389 -1.767767,-0.51951 -0.09723,-0.0486 -0.296101,-0.10933 -0.441942,-0.13492 -0.738935,-0.12966 -7.159456,-3.53951 -7.159456,-3.80229 0,-0.16799 -0.165814,-0.30543 -0.368475,-0.30543 -0.728115,0 -5.949146,-5.047679 -6.673948,-6.452354 -0.275926,-0.53475 -0.633899,-0.972272 -0.795495,-0.972272 -0.161595,0 -0.29381,-0.227284 -0.29381,-0.505076 0,-0.277792 -0.213521,-0.718598 -0.474491,-0.979568 -0.26097,-0.26097 -0.65416,-0.810205 -0.873755,-1.220522 -0.35952,-0.67177 -0.290293,-0.767825 0.695462,-0.964976 0.602099,-0.12042 1.776819,-0.218945 2.610488,-0.218945 1.459036,0 1.576115,0.08458 3.128458,2.259991 4.947498,6.933292 13.065364,11.147872 24.529654,12.735112 9.977642,1.38142 29.756907,1.58646 36.675445,0.38019 8.450075,-1.4733 16.039586,-4.75208 23.157743,-10.004511 3.5918,-2.650355 11.1454,-10.312903 13.01022,-13.19787 l 1.51709,-2.34701 2.72423,-0.344638 c 1.49833,-0.189551 2.76846,-0.30893 2.82251,-0.265286 0.20127,0.162508 -0.65029,2.017371 -1.16031,2.527397 -0.29093,0.290927 -0.52896,0.756242 -0.52896,1.034034 0,0.277792 -0.1591,0.505076 -0.35355,0.505076 -0.19446,0 -0.35356,0.221627 -0.35356,0.492504 0,0.270877 -0.23864,0.584082 -0.53033,0.696011 -0.29168,0.111929 -0.53033,0.447149 -0.53033,0.744933 0,0.297784 -0.16409,0.541426 -0.36464,0.541426 -0.20056,0 -0.47099,0.278423 -0.60096,0.618719 -0.12997,0.340295 -0.72159,1.097042 -1.31473,1.68166 -0.59313,0.584619 -1.49558,1.539213 -2.00544,2.121321 -0.50985,0.582108 -1.99175,2.012972 -3.2931,3.179698 -1.30136,1.166726 -2.76084,2.479293 -3.24331,2.916816 -0.48247,0.437522 -1.02007,0.795495 -1.19465,0.795495 -0.17459,0 -0.56511,0.353598 -0.86782,0.785774 -0.3027,0.432181 -0.55543,0.631051 -0.56162,0.441941 -0.006,-0.189107 -0.20506,-0.105183 -0.44194,0.1865 -0.23688,0.29168 -0.86822,0.75609 -1.40297,1.03201 -0.53475,0.27593 -0.97227,0.6339 -0.97227,0.7955 0,0.16159 -0.22539,0.29381 -0.50087,0.29381 -0.27548,0 -0.5539,0.13913 -0.61872,0.30918 -0.13473,0.35347 -8.072801,4.36584 -8.072801,4.08047 0,-0.10284 -0.437522,0.0482 -0.972271,0.3356 -0.878535,0.4722 -1.94086,0.92172 -2.651651,1.12204 -0.145841,0.0411 -0.344714,0.1145 -0.441942,0.16312 -0.09723,0.0486 -0.335875,0.12816 -0.53033,0.17677 -0.194454,0.0486 -0.433103,0.12817 -0.53033,0.17678 -0.09723,0.0486 -0.335876,0.12816 -0.53033,0.17678 -0.194454,0.0486 -0.393328,0.12044 -0.441942,0.15963 -0.105489,0.085 -0.33065,0.14555 -3.977475,1.06902 -1.555635,0.39393 -3.862571,0.79353 -5.126524,0.88799 -5.094903,0.38079 -28.754678,0.34489 -32.608546,-0.0495 z"
       id="path4288"
       inkscape:connector-curvature="0"
       transform="translate(0,852.36216)" />
    <path
       style="opacity:0.19500002;fill:#000000;fill-opacity:1;stroke:#000000;stroke-width:0;stroke-miterlimit:4;stroke-dasharray:none;stroke-dashoffset:0;stroke-opacity:0.96078431"
       d="m 50.638847,111.23954 c -0.07051,-0.0705 -1.13117,-0.19918 -2.357023,-0.28593 -2.596758,-0.18378 -4.218404,-0.36029 -5.941133,-0.64669 -0.680591,-0.11315 -1.555635,-0.25827 -1.944544,-0.32248 -0.388909,-0.0642 -0.992392,-0.23642 -1.341073,-0.38268 -0.348682,-0.14625 -0.731791,-0.16809 -0.851354,-0.0485 -0.119562,0.11956 -0.405718,0.0611 -0.635901,-0.12995 -0.230183,-0.19104 -0.888413,-0.39878 -1.462734,-0.46165 -0.574321,-0.0629 -1.235898,-0.23278 -1.470171,-0.37757 -0.234273,-0.14479 -0.58505,-0.16493 -0.779505,-0.0447 -0.194454,0.12018 -0.353553,0.0624 -0.353553,-0.12849 0,-0.36167 0.802858,-0.65771 4.518841,-1.66625 1.945139,-0.52793 2.603303,-0.54896 5.303301,-0.16952 6.512608,0.91523 14.604215,1.32441 24.118983,1.21965 10.885347,-0.11985 11.941641,-0.20226 16.440233,-1.28254 1.750089,-0.42027 3.301305,-0.79237 3.447146,-0.82689 0.14584,-0.0345 0.344714,-0.10255 0.441941,-0.15116 0.09723,-0.0486 0.335876,-0.12816 0.530331,-0.17678 0.194454,-0.0486 0.433102,-0.12816 0.53033,-0.17677 0.09723,-0.0486 0.335875,-0.12817 0.53033,-0.17678 0.194454,-0.0486 0.433103,-0.12816 0.53033,-0.17678 0.09723,-0.0486 0.296101,-0.12201 0.441942,-0.16312 0.543899,-0.15328 1.760282,-0.67884 4.645132,-2.007 2.8371,-1.30618 3.124681,-1.36541 6.629124,-1.36541 2.34265,0 3.66337,0.13498 3.66337,0.37442 0,0.20593 -0.14932,0.28213 -0.33182,0.16934 -0.1825,-0.1128 -0.47523,0.0512 -0.6505,0.36436 -0.17527,0.3132 -0.39636,0.51542 -0.49131,0.44938 -0.2645,-0.18395 -2.76901,1.23807 -2.76901,1.57219 0,0.16171 -0.1591,0.19569 -0.35355,0.0755 -0.19445,-0.12018 -0.35355,-0.0406 -0.35355,0.17678 0,0.21741 -0.1591,0.29696 -0.353557,0.17678 -0.194454,-0.12018 -0.353553,-0.0406 -0.353553,0.17677 0,0.21741 -0.159099,0.29696 -0.353553,0.17678 -0.194455,-0.12018 -0.353554,-0.0406 -0.353554,0.17678 0,0.2174 -0.159099,0.29695 -0.353553,0.17677 -0.194454,-0.12018 -0.353554,-0.05 -0.353554,0.15591 0,0.20593 -0.119324,0.34213 -0.265165,0.30266 -0.378203,-0.10236 -2.916815,0.87957 -2.916815,1.12821 0,0.11401 -0.343657,0.23318 -0.763682,0.26482 -0.420029,0.0316 -0.875339,0.23818 -1.011803,0.45899 -0.136465,0.2208 -0.349654,0.38787 -0.473751,0.37126 -0.124101,-0.0166 -0.265413,-0.0184 -0.314026,-0.004 -0.04861,0.0145 -0.424671,0.0897 -0.835687,0.1672 -0.411013,0.0775 -1.206508,0.33078 -1.767767,0.56282 -0.561256,0.23204 -1.139793,0.45511 -1.285633,0.49571 -0.145841,0.0406 -0.38449,0.11206 -0.530331,0.15879 -0.14584,0.0467 -0.424264,0.12195 -0.618718,0.16712 -0.194454,0.0452 -0.433103,0.11855 -0.53033,0.16305 -0.217234,0.0994 -1.295741,0.34759 -2.474874,0.56949 -0.486136,0.0915 -1.281631,0.25516 -1.767767,0.36372 -0.486136,0.10855 -1.734709,0.17769 -2.774609,0.15364 -1.039899,-0.0241 -1.810812,0.0856 -1.713139,0.2436 0.168044,0.2719 -27.24788,0.43044 -27.519182,0.15914 z"
       id="path4292"
       inkscape:connector-curvature="0"
       transform="translate(0,852.36216)" />
    <path
       style="opacity:0.101;fill:#00bedf;fill-opacity:1;stroke:#000000;stroke-width:0;stroke-miterlimit:4;stroke-dasharray:none;stroke-dashoffset:0;stroke-opacity:0.96078431"
       d="M 52.593739,105.09471 C 46.685321,104.65797 40.250148,103.53857 36.153506,102.2349 33.551779,101.40696 28.838632,98.841131 26.399447,96.924798 23.017753,94.267989 20.191611,90.130445 18.59274,85.49558 17.034644,80.978917 16.836002,66.184239 18.267462,61.269225 20.578497,53.334128 27.1743,44.45957 37.038839,36.012608 c 2.625932,-2.248573 5.887462,-4.903224 7.247845,-5.899225 5.803395,-4.248938 12.720865,-7.911808 14.941753,-7.911808 0.497517,0 1.601975,-0.408704 2.454354,-0.90823 l 1.549776,-0.908231 9.441442,-0.06221 c 9.401094,-0.06194 9.454757,-0.05804 12.558361,0.913444 5.179282,1.621201 10.614932,4.076514 14.457407,6.530487 9.500943,6.067722 14.860323,11.358822 17.823523,17.596462 2.41686,5.087579 2.67933,6.446783 2.87034,14.863715 0.15032,6.623982 0.086,7.849579 -0.58444,11.136932 -1.42523,6.988294 -5.50696,13.493956 -12.33404,19.658573 -5.14171,4.642785 -7.928486,6.546893 -13.505674,9.227963 -6.45009,3.10068 -12.225367,4.58492 -19.622213,5.04289 -6.953063,0.43049 -14.117529,0.36504 -21.743534,-0.19866 z"
       id="path4294"
       inkscape:connector-curvature="0"
       transform="translate(0,852.36216)" />
  </g>
</svg>
