<?xml version="1.0" encoding="UTF-8" standalone="no"?>
<!-- Created with Inkscape (http://www.inkscape.org/) -->

<svg
   xmlns:dc="http://purl.org/dc/elements/1.1/"
   xmlns:cc="http://creativecommons.org/ns#"
   xmlns:rdf="http://www.w3.org/1999/02/22-rdf-syntax-ns#"
   xmlns:svg="http://www.w3.org/2000/svg"
   xmlns="http://www.w3.org/2000/svg"
   xmlns:sodipodi="http://sodipodi.sourceforge.net/DTD/sodipodi-0.dtd"
   xmlns:inkscape="http://www.inkscape.org/namespaces/inkscape"
   width="100"
   height="100"
   viewBox="0 0 100 100"
   id="svg2"
   version="1.1"
   inkscape:version="0.91 r13725"
   sodipodi:docname="logo_sitemap.svg">
  <defs
     id="defs4" />
  <sodipodi:namedview
     id="base"
     pagecolor="#ffffff"
     bordercolor="#666666"
     borderopacity="1.0"
     inkscape:pageopacity="0.0"
     inkscape:pageshadow="2"
     inkscape:zoom="5.6"
     inkscape:cx="72.480672"
     inkscape:cy="56.819106"
     inkscape:document-units="px"
     inkscape:current-layer="layer1"
     showgrid="false"
     units="px"
     inkscape:window-width="1440"
     inkscape:window-height="851"
     inkscape:window-x="0"
     inkscape:window-y="1"
     inkscape:window-maximized="1" />
  <metadata
     id="metadata7">
    <rdf:RDF>
      <cc:Work
         rdf:about="">
        <dc:format>image/svg+xml</dc:format>
        <dc:type
           rdf:resource="http://purl.org/dc/dcmitype/StillImage" />
        <dc:title></dc:title>
      </cc:Work>
    </rdf:RDF>
  </metadata>
  <g
     inkscape:label="Layer 1"
     inkscape:groupmode="layer"
     id="layer1"
     transform="translate(0,-952.36216)">
    <path
       style="opacity:1;fill:#000000;fill-opacity:1;stroke:#000000;stroke-width:0;stroke-miterlimit:4;stroke-dasharray:none;stroke-opacity:1"
       id="path4146"
       d="m 41.983609,959.90481 c -0.200851,0.89367 -0.03843,-0.0148 -0.0714,1.1645 -0.008,0.28598 -0.08287,0.56904 -0.07472,0.85502 0.01027,0.36035 0.118138,0.71337 0.129685,1.07368 0.02161,0.67443 -0.123369,2.12353 -0.177796,2.76238 0.11796,1.13353 0.264713,2.20314 0.239919,3.34735 -0.01227,0.56649 -0.122356,1.12768 -0.141246,1.69399 -0.01803,0.54051 0.03611,1.08137 0.03063,1.62215 -0.01023,1.00943 -0.06897,2.01793 -0.08291,3.02732 -0.366566,1.03593 0.361282,2.0723 0.197289,3.10205 -0.03912,0.24566 -0.257376,0.44065 -0.291225,0.6871 -0.03498,0.25468 0.141519,0.49432 0.207664,0.74274 -0.0573,0.0808 -0.1146,0.16156 -0.171898,0.24233 0,0.85951 -2.431051,0.85951 -2.431051,0 l 0,0 c -0.01129,-0.0808 -0.02259,-0.16155 -0.03388,-0.24233 -0.199194,-0.79698 0.06216,-0.69865 0.0643,-1.42984 7.56e-4,-0.28353 -0.118386,-0.55649 -0.137797,-0.83936 -0.05164,-0.75246 0.0961,-1.51057 0.0066,-2.26269 0.01265,-0.46895 0.01467,-0.9383 0.03796,-1.40683 0.02688,-0.5408 0.128485,-1.07926 0.112512,-1.62049 -0.01609,-0.54491 -0.218356,-1.07709 -0.208212,-1.62215 0.01064,-0.57169 0.25264,-1.12247 0.269931,-1.69399 0.03381,-1.11751 -0.400408,-2.22 -0.212186,-3.34735 -0.05781,-1.95303 0.07567,-3.90555 7.56e-4,-5.85558 0,-0.96769 2.737061,-0.96769 2.737061,0 z"
       inkscape:connector-curvature="0" />
    <path
       style="opacity:1;fill:#000000;fill-opacity:1;stroke:#000000;stroke-width:0;stroke-miterlimit:4;stroke-dasharray:none;stroke-opacity:1"
       id="path4148"
       d="m 40.505389,959.21976 c 0.225713,-0.036 0.448574,-0.10726 0.677139,-0.10798 0.333525,-10e-4 0.661831,0.0962 0.995295,0.10271 0.974466,0.0191 1.948587,-0.0798 2.92317,-0.0681 6.110753,0.0733 -2.844877,0.0481 3.82502,0.053 5.763639,-0.30019 -1.601972,-0.0385 3.921334,0.14339 0.609972,0.0201 1.21638,-0.13607 1.826592,-0.12562 0.524316,0.009 1.038992,0.15189 1.562423,0.1836 0.755582,0.0458 1.514501,-3.8e-4 2.270635,0.0351 0.64546,-0.0203 1.252505,0.002 1.86505,0.19707 0.909176,0.26635 0.155834,2.83788 -0.753342,2.57154 l 0,0 c -0.386661,-0.25948 -0.808268,-0.29998 -1.272278,-0.32982 -1.3885,-0.13903 -0.647798,-0.11762 -2.222946,-0.02 -0.514754,-0.0484 -0.997957,-0.30423 -1.513911,-0.33754 -0.587683,-0.038 -1.17394,0.0989 -1.762223,0.12599 -1.046994,0.0483 -2.889248,0.0494 -3.921334,0.0561 -0.672411,0.006 -1.344931,0.0331 -2.01723,0.0193 -0.603349,-0.0124 -1.20521,-0.13063 -1.80779,-0.0977 -0.551853,0.0301 -1.082052,0.24514 -1.633244,0.28557 -2.537784,0.18614 -0.152734,-0.20851 -2.285221,-0.25654 -0.230962,-0.005 -0.451426,0.0985 -0.677139,0.14772 -0.91138,0 -0.91138,-2.57778 0,-2.57778 z"
       inkscape:connector-curvature="0" />
    <path
       style="opacity:1;fill:#000000;fill-opacity:1;stroke:#000000;stroke-width:0;stroke-miterlimit:4;stroke-dasharray:none;stroke-opacity:1"
       id="path4150"
       d="m 61.526317,960.22977 c 0.02854,0.76324 -0.103442,1.54169 -0.08541,2.30185 0.01051,0.44297 0.149534,0.87995 0.139866,1.32292 -0.01078,0.49354 -0.133863,0.97952 -0.200794,1.46928 5.67e-4,0.49851 0.0013,0.99702 0.0019,1.49553 -0.109803,5.07768 -0.01414,-1.93363 0.09835,3.05318 0.01076,0.4766 -0.05586,0.9522 -0.06551,1.42881 -0.009,0.44544 0.0064,0.89101 0.0095,1.33652 0.01724,0.44727 0.05697,0.89429 0.05174,1.34182 -0.0046,0.3903 -0.05403,0.77904 -0.08105,1.16857 -0.04908,2.82943 -0.01807,-0.60187 0.04216,2.01124 0.0063,0.2717 -0.04561,0.54436 -0.01979,0.81506 0.02202,0.2309 0.172777,0.44745 0.162284,0.67903 -0.0626,1.38162 -0.431871,-0.13283 -0.0884,0.98483 0.169657,0.33262 0.07097,0.65291 0.09586,0.99695 0,0.87974 -2.695831,0.87974 -2.695831,0 l 0,0 c -0.198584,-0.46163 0.127004,-0.49148 0.140134,-0.99695 -0.06214,-0.14111 -0.156823,-0.27347 -0.186417,-0.42331 -0.03637,-0.18416 0.0011,-0.37452 -0.0081,-0.56152 -0.01119,-0.2267 -0.06065,-0.4522 -0.05314,-0.67903 0.0091,-0.27338 0.101118,-0.54155 0.102587,-0.81506 0.0103,-1.91815 -0.321089,0.0461 0.148728,-2.01124 -0.07964,-0.38953 -0.222912,-0.77245 -0.238927,-1.16857 -0.01815,-0.44896 0.104293,-0.8936 0.137446,-1.34182 0.0329,-0.44486 0.06764,-0.89067 0.06066,-1.33652 -0.0075,-0.47729 -0.09238,-0.95158 -0.103935,-1.42881 -0.01217,-0.5027 0.02189,-1.00544 0.03283,-1.50817 -0.01565,-0.515 -0.03131,-1.03001 -0.04696,-1.54501 -0.0083,-0.49851 -0.04917,-0.99747 -0.02481,-1.49553 0.02406,-0.49204 0.181412,-0.97686 0.169809,-1.46928 -0.01053,-0.44678 -0.198363,-0.87735 -0.2356,-1.32292 -0.06337,-0.75829 0.102608,-1.54257 -0.04999,-2.30185 0,-0.91071 2.790768,-0.91071 2.790768,0 z"
       inkscape:connector-curvature="0" />
    <path
       style="opacity:1;fill:#000000;fill-opacity:1;stroke:#000000;stroke-width:0;stroke-miterlimit:4;stroke-dasharray:none;stroke-opacity:1"
       id="path4152"
       d="m 40.223736,978.96231 c 0.239668,0.0402 0.476466,0.13609 0.719001,0.12072 0.357702,-0.0227 0.691352,-0.22872 1.049749,-0.23284 0.420264,-0.005 0.824233,0.18274 1.243856,0.20647 0.445579,0.0252 0.891211,-0.0616 1.337501,-0.0605 3.801463,0.009 -0.852322,0.16709 2.905511,0.005 4.315169,0.31865 -1.487942,-0.0126 2.427942,-0.0804 0.321703,-0.006 0.633381,0.13801 0.955128,0.13944 0.874091,0.004 0.856651,-0.40879 1.685091,0.006 0.443545,-0.39596 0.123201,-0.26879 0.445333,-0.18866 0.03598,0.009 0.07855,-0.0216 0.111159,-0.004 0.05243,0.0284 0.06305,0.12561 0.122473,0.13029 0.345767,0.0272 -0.08238,-0.27064 0.205007,-0.0365 0.18085,-0.10779 0.21876,-0.0164 0.390313,0.0169 0.03453,0.007 0.06852,-0.0436 0.10109,-0.0303 0.209044,0.0852 0.01263,0.20882 0.209785,0.0209 0.239588,-0.0934 0.489983,-0.0889 0.698911,0.0351 0.133765,0.0424 0.684731,-0.13441 0.706345,-0.13178 0.06083,0.007 0.10829,0.0574 0.162436,0.0861 0.255167,0.12491 0.326456,-0.0477 0.384781,-0.0442 0.363662,0.0215 -0.179605,0.27312 0.378493,-1.3e-4 0.459153,-0.0561 -0.139168,-0.0153 0.294414,0.0615 0.06878,0.0122 0.139146,-0.0263 0.208649,-0.0194 0.392667,0.0392 0.39074,0.12692 0.751495,-0.10271 0.08378,0.0986 0.125587,0.26541 0.251355,0.29568 0.101734,0.0245 0.163236,-0.13924 0.262622,-0.17198 0.177679,-0.0585 0.604206,-0.009 0.824029,-0.0525 0.159853,-0.14163 0.278668,0.12942 0.415261,0.0915 0.07857,-0.0218 0.0673,-0.17552 0.146193,-0.19609 0.173074,-0.0451 0.06583,0.37237 0.416063,-0.0118 0.0849,0.17737 0.310011,0.12855 0.431955,0.0283 0.984676,0 0.984676,2.78509 0,2.78509 l 0,0 c -0.128317,-0.12382 -0.282348,0.12865 -0.431955,-0.0444 -0.400829,-0.22027 -0.417592,0.17831 -0.562256,0.16162 -0.09738,-0.0112 -0.132466,-0.14815 -0.215747,-0.19986 -0.05884,-0.0365 -0.133009,-0.0387 -0.199514,-0.058 -0.460654,0.45327 0.02124,0.1192 -0.401663,0.0126 -0.06926,-0.0175 -0.117203,0.0936 -0.188039,0.10274 -0.244021,0.0315 -0.509109,-0.14719 -0.748304,0.0519 -0.416549,-0.11987 -0.849374,-0.0191 -1.254558,-0.137 -0.454712,0.4877 -0.356872,-0.2382 -0.763274,0.12738 -0.05415,0.004 -0.111751,-0.008 -0.162436,0.0113 -0.05012,0.0192 -0.07321,0.10435 -0.126659,0.0994 -0.05749,-0.005 -0.06538,-0.11426 -0.122531,-0.12241 -0.06408,-0.009 -0.112374,0.0815 -0.177072,0.0797 -0.103226,-0.003 -0.158056,-0.1674 -0.280083,-0.13242 -0.283455,0.2279 0.07579,-0.0115 -0.180465,0.0202 -0.05406,0.007 -0.08604,0.0895 -0.140227,0.0839 -0.116272,-0.012 -0.199899,-0.23077 -0.378219,-0.10539 -0.03335,0.001 -0.07245,-0.0152 -0.10006,0.004 -0.04883,0.0332 -0.05069,0.13925 -0.109725,0.139 -0.05753,-1.9e-4 -0.04766,-0.11857 -0.10109,-0.1399 -0.04872,-0.0195 -0.101269,0.0497 -0.152543,0.0386 -0.319189,-0.0688 0.06809,-0.15773 -0.23777,-0.0583 -0.07061,-0.016 -0.153285,-0.12229 -0.205007,-0.0716 -0.07299,0.0715 -0.05331,0.20575 -0.122473,0.28093 -0.06128,0.0666 -0.528995,-0.18875 -0.556492,-0.14643 -1.671984,-0.22409 -3.388718,-0.16101 -5.068161,-0.075 -1.111288,-0.0788 -1.787701,-0.16881 -2.905511,-0.0785 -0.449453,0.0363 -0.886587,0.20135 -1.337501,0.20254 -0.419719,10e-4 -0.82439,-0.18112 -1.243856,-0.19574 -0.351826,-0.0122 -0.699834,0.0772 -1.049749,0.11582 -0.239667,-0.0156 -0.479333,-0.0311 -0.719001,-0.0467 -0.913948,0 -0.913948,-2.58503 0,-2.58503 z"
       inkscape:connector-curvature="0" />
    <path
       inkscape:connector-curvature="0"
       d="m 51.722953,980.72028 c -0.200851,0.89366 -0.03843,-0.0148 -0.0714,1.16449 -0.008,0.28598 -0.08287,0.56904 -0.07472,0.85502 0.01026,0.36035 0.118138,0.71337 0.129685,1.07368 0.02161,0.67443 -0.123369,2.12354 -0.177796,2.76238 0.11796,1.13353 0.264713,2.20314 0.239919,3.34735 -0.01227,0.5665 -0.122356,1.1277 -0.141245,1.694 -0.01803,0.5405 0.03611,1.0814 0.03063,1.6221 -0.01023,1.0095 -0.06897,2.018 -0.08291,3.0274 -0.366566,1.0359 0.361283,2.0723 0.197289,3.102 -0.03912,0.2457 -0.257376,0.4407 -0.291225,0.6871 -0.03498,0.2547 0.14152,0.4943 0.207664,0.7428 -0.0573,0.081 -0.114599,0.1615 -0.171898,0.2423 0,0.8595 -2.43105,0.8595 -2.43105,0 l 0,0 c -0.01129,-0.081 -0.02259,-0.1616 -0.03388,-0.2423 -0.199194,-0.797 0.06216,-0.6987 0.06431,-1.4299 7.56e-4,-0.2835 -0.118386,-0.5565 -0.137797,-0.8393 -0.05164,-0.7525 0.0961,-1.5106 0.0066,-2.2627 0.01265,-0.469 0.01467,-0.9383 0.03796,-1.4069 0.02688,-0.5408 0.128484,-1.0792 0.112512,-1.6205 -0.01609,-0.5449 -0.218357,-1.0771 -0.208212,-1.6221 0.01064,-0.5717 0.25264,-1.1225 0.26993,-1.694 0.03381,-1.11751 -0.400408,-2.22 -0.212186,-3.34735 -0.05781,-1.95303 0.07567,-3.90555 7.57e-4,-5.85557 0,-0.9677 2.73706,-0.9677 2.73706,0 z"
       id="path4154"
       style="opacity:1;fill:#000000;fill-opacity:1;stroke:#000000;stroke-width:0;stroke-miterlimit:4;stroke-dasharray:none;stroke-opacity:1" />
    <path
       inkscape:connector-curvature="0"
       d="m 79.907045,1041.6678 c -0.20085,-0.8937 -0.03843,0.015 -0.0714,-1.1645 -0.008,-0.286 -0.08287,-0.569 -0.07472,-0.855 0.01027,-0.3604 0.118139,-0.7134 0.129686,-1.0737 0.02161,-0.6744 -0.123369,-2.1235 -0.177796,-2.7624 0.11796,-1.1335 0.264712,-2.2031 0.239919,-3.3473 -0.01227,-0.5665 -0.122356,-1.1277 -0.141246,-1.694 -0.01803,-0.5405 0.03611,-1.0814 0.03063,-1.6222 -0.01023,-1.0094 -0.06897,-2.0179 -0.08291,-3.0273 -0.366567,-1.0359 0.361282,-2.0723 0.197289,-3.102 -0.03912,-0.2457 -0.257376,-0.4407 -0.291225,-0.6871 -0.03498,-0.2547 0.141519,-0.4944 0.207663,-0.7428 -0.0573,-0.081 -0.114599,-0.1615 -0.171897,-0.2423 0,-0.8595 -2.431051,-0.8595 -2.431051,0 l 0,0 c -0.01129,0.081 -0.02259,0.1615 -0.03388,0.2423 -0.199195,0.797 0.06216,0.6987 0.06431,1.4299 7.56e-4,0.2835 -0.118386,0.5564 -0.137798,0.8393 -0.05164,0.7525 0.0961,1.5106 0.0066,2.2627 0.01265,0.4689 0.01467,0.9383 0.03796,1.4068 0.02688,0.5408 0.128485,1.0793 0.112512,1.6205 -0.01609,0.5449 -0.218356,1.0771 -0.208212,1.6222 0.01064,0.5717 0.25264,1.1224 0.269931,1.694 0.03381,1.1175 -0.400408,2.22 -0.212186,3.3473 -0.05781,1.953 0.07567,3.9056 7.56e-4,5.8556 0,0.9677 2.737061,0.9677 2.737061,0 z"
       id="path4166"
       style="opacity:1;fill:#000000;fill-opacity:1;stroke:#000000;stroke-width:0;stroke-miterlimit:4;stroke-dasharray:none;stroke-opacity:1" />
    <path
       inkscape:connector-curvature="0"
       d="m 78.428826,1042.3528 c 0.225713,0.036 0.448574,0.1073 0.677139,0.108 0.333524,0 0.661831,-0.096 0.995295,-0.1027 0.974466,-0.019 1.948586,0.08 2.92317,0.068 6.110753,-0.073 -2.844877,-0.048 3.82502,-0.053 5.763639,0.3002 -1.601972,0.039 3.921334,-0.1434 0.609972,-0.02 1.21638,0.136 1.826592,0.1256 0.524315,-0.01 1.038992,-0.1519 1.562423,-0.1836 0.755582,-0.046 1.514501,0 2.270635,-0.035 0.64546,0.02 1.252505,0 1.86505,-0.1971 0.909176,-0.2664 0.155834,-2.8379 -0.753342,-2.5715 l 0,0 c -0.386661,0.2594 -0.808268,0.3 -1.272278,0.3298 -1.3885,0.139 -0.647798,0.1176 -2.222946,0.02 -0.514754,0.048 -0.997957,0.3042 -1.513911,0.3375 -0.587683,0.038 -1.173941,-0.099 -1.762223,-0.126 -1.046994,-0.048 -2.889248,-0.049 -3.921334,-0.056 -0.672411,-0.01 -1.344931,-0.033 -2.01723,-0.019 -0.603349,0.012 -1.20521,0.1306 -1.80779,0.098 -0.551853,-0.03 -1.082052,-0.2451 -1.633245,-0.2856 -2.537783,-0.1861 -0.152734,0.2086 -2.28522,0.2566 -0.230962,0.01 -0.451426,-0.099 -0.677139,-0.1477 -0.91138,0 -0.91138,2.5777 0,2.5777 z"
       id="path4168"
       style="opacity:1;fill:#000000;fill-opacity:1;stroke:#000000;stroke-width:0;stroke-miterlimit:4;stroke-dasharray:none;stroke-opacity:1" />
    <path
       inkscape:connector-curvature="0"
       d="m 99.449753,1041.3428 c 0.02854,-0.7632 -0.103441,-1.5417 -0.08541,-2.3018 0.01051,-0.443 0.149534,-0.88 0.139866,-1.3229 -0.01078,-0.4936 -0.133863,-0.9796 -0.200794,-1.4693 5.67e-4,-0.4985 0.0013,-0.997 0.0019,-1.4955 -0.109803,-5.0777 -0.01414,1.9336 0.09835,-3.0532 0.01076,-0.4766 -0.05586,-0.9522 -0.06551,-1.4288 -0.009,-0.4455 0.0064,-0.8911 0.0095,-1.3366 0.01724,-0.4472 0.05697,-0.8942 0.05174,-1.3418 -0.0046,-0.3903 -0.05403,-0.779 -0.08105,-1.1685 -0.04908,-2.8295 -0.01807,0.6018 0.04216,-2.0113 0.0063,-0.2717 -0.04561,-0.5443 -0.01979,-0.8151 0.02202,-0.2308 0.172776,-0.4474 0.162284,-0.679 -0.0626,-1.3816 -0.431871,0.1329 -0.0884,-0.9848 0.169658,-0.3326 0.07098,-0.6529 0.09586,-0.997 0,-0.8797 -2.695831,-0.8797 -2.695831,0 l 0,0 c -0.198584,0.4617 0.127004,0.4915 0.140134,0.997 -0.06214,0.1411 -0.156823,0.2735 -0.186417,0.4233 -0.03637,0.1842 0.0011,0.3745 -0.0081,0.5615 -0.01119,0.2267 -0.06065,0.4522 -0.05314,0.679 0.0091,0.2734 0.101118,0.5416 0.102587,0.8151 0.0103,1.9182 -0.321089,-0.046 0.148728,2.0113 -0.07964,0.3895 -0.222912,0.7724 -0.238927,1.1685 -0.01815,0.449 0.104293,0.8936 0.137446,1.3418 0.0329,0.4449 0.06764,0.8907 0.06066,1.3366 -0.0075,0.4773 -0.09238,0.9515 -0.103935,1.4288 -0.01217,0.5027 0.02189,1.0054 0.03283,1.5081 -0.01565,0.515 -0.03131,1.03 -0.04696,1.5451 -0.0083,0.4985 -0.04917,0.9974 -0.02481,1.4955 0.02406,0.492 0.181412,0.9768 0.169808,1.4693 -0.01053,0.4468 -0.198362,0.8773 -0.235599,1.3229 -0.06337,0.7583 0.102608,1.5426 -0.04999,2.3018 0,0.9108 2.790768,0.9108 2.790768,0 z"
       id="path4170"
       style="opacity:1;fill:#000000;fill-opacity:1;stroke:#000000;stroke-width:0;stroke-miterlimit:4;stroke-dasharray:none;stroke-opacity:1" />
    <path
       inkscape:connector-curvature="0"
       d="m 78.147173,1022.6103 c 0.239668,-0.04 0.476466,-0.1361 0.719001,-0.1207 0.357702,0.023 0.691351,0.2287 1.049749,0.2328 0.420264,0 0.824233,-0.1827 1.243856,-0.2065 0.445579,-0.025 0.891211,0.062 1.337501,0.061 3.801463,-0.01 -0.852322,-0.1671 2.90551,0 4.31517,-0.3186 -1.487941,0.013 2.427943,0.081 0.321703,0.01 0.633381,-0.138 0.955128,-0.1395 0.874091,0 0.856651,0.4088 1.685091,-0.01 0.443545,0.3959 0.123201,0.2688 0.445333,0.1886 0.03598,-0.01 0.07855,0.022 0.111159,0 0.05243,-0.028 0.06305,-0.1256 0.122473,-0.1303 0.345767,-0.027 -0.08238,0.2706 0.205007,0.036 0.18085,0.1078 0.218759,0.016 0.390313,-0.017 0.03453,-0.01 0.06852,0.044 0.10109,0.03 0.209044,-0.085 0.01263,-0.2089 0.209785,-0.021 0.239588,0.093 0.489982,0.089 0.698911,-0.035 0.133765,-0.042 0.684731,0.1344 0.706345,0.1318 0.06084,-0.01 0.10829,-0.058 0.162436,-0.086 0.255167,-0.1249 0.326456,0.048 0.384781,0.044 0.363662,-0.021 -0.179606,-0.2731 0.378493,2e-4 0.459153,0.056 -0.139168,0.015 0.294414,-0.061 0.06878,-0.012 0.139146,0.026 0.208649,0.019 0.392666,-0.039 0.39074,-0.1269 0.751495,0.1027 0.08378,-0.099 0.125587,-0.2654 0.251355,-0.2957 0.101734,-0.024 0.163235,0.1392 0.262622,0.172 0.177679,0.058 0.604206,0.01 0.824029,0.053 0.159853,0.1416 0.278668,-0.1294 0.415261,-0.091 0.07857,0.022 0.0673,0.1755 0.146193,0.196 0.173074,0.045 0.06583,-0.3723 0.416063,0.012 0.0849,-0.1774 0.310011,-0.1286 0.431955,-0.028 0.984676,0 0.984676,-2.7851 0,-2.7851 l 0,0 c -0.128317,0.1238 -0.282348,-0.1287 -0.431955,0.044 -0.400829,0.2203 -0.417592,-0.1783 -0.562256,-0.1616 -0.09738,0.011 -0.132466,0.1482 -0.215747,0.1999 -0.05884,0.037 -0.133009,0.039 -0.199514,0.058 -0.460654,-0.4533 0.02124,-0.1192 -0.401663,-0.013 -0.06926,0.017 -0.117203,-0.094 -0.188039,-0.1028 -0.244022,-0.032 -0.509109,0.1472 -0.748304,-0.052 -0.416549,0.1199 -0.849375,0.019 -1.254558,0.137 -0.454712,-0.4877 -0.356872,0.2382 -0.763274,-0.1274 -0.05415,0 -0.111751,0.01 -0.162436,-0.011 -0.05012,-0.019 -0.07321,-0.1043 -0.126659,-0.099 -0.05749,0.01 -0.06538,0.1143 -0.122531,0.1224 -0.06408,0.01 -0.112375,-0.082 -0.177073,-0.08 -0.103225,0 -0.158055,0.1674 -0.280082,0.1324 -0.283455,-0.2279 0.07579,0.012 -0.180465,-0.02 -0.05406,-0.01 -0.08604,-0.09 -0.140227,-0.084 -0.116272,0.012 -0.1999,0.2308 -0.378219,0.1054 -0.03335,0 -0.07246,0.015 -0.10006,0 -0.04882,-0.033 -0.0507,-0.1393 -0.109725,-0.139 -0.05753,2e-4 -0.04766,0.1186 -0.10109,0.1399 -0.04872,0.019 -0.101269,-0.05 -0.152543,-0.039 -0.319189,0.069 0.06809,0.1577 -0.23777,0.058 -0.07061,0.016 -0.153286,0.1223 -0.205007,0.072 -0.07299,-0.072 -0.05331,-0.2058 -0.122473,-0.281 -0.06128,-0.067 -0.528995,0.1888 -0.556492,0.1465 -1.671984,0.2241 -3.388718,0.161 -5.068162,0.075 -1.111287,0.079 -1.7877,0.1688 -2.90551,0.079 -0.449453,-0.036 -0.886587,-0.2014 -1.337501,-0.2026 -0.419719,0 -0.82439,0.1812 -1.243856,0.1958 -0.351826,0.012 -0.699834,-0.077 -1.049749,-0.1158 -0.239667,0.015 -0.479333,0.031 -0.719001,0.047 -0.913948,0 -0.913948,2.585 0,2.585 z"
       id="path4172"
       style="opacity:1;fill:#000000;fill-opacity:1;stroke:#000000;stroke-width:0;stroke-miterlimit:4;stroke-dasharray:none;stroke-opacity:1" />
    <path
       style="opacity:1;fill:#000000;fill-opacity:1;stroke:#000000;stroke-width:0;stroke-miterlimit:4;stroke-dasharray:none;stroke-opacity:1"
       id="path4174"
       d="m 89.64639,1020.8523 c -0.200851,-0.8936 -0.03843,0.015 -0.0714,-1.1645 -0.008,-0.2859 -0.08287,-0.569 -0.07472,-0.855 0.01027,-0.3603 0.118138,-0.7134 0.129685,-1.0737 0.02161,-0.6744 -0.123369,-2.1235 -0.177796,-2.7623 0.11796,-1.1336 0.264713,-2.2032 0.239919,-3.3474 -0.01227,-0.5665 -0.122356,-1.1277 -0.141245,-1.694 -0.01804,-0.5405 0.03611,-1.0814 0.03063,-1.6221 -0.01023,-1.0095 -0.06897,-2.018 -0.08291,-3.0274 -0.366566,-1.0359 0.361283,-2.0723 0.197289,-3.102 -0.03912,-0.2457 -0.257376,-0.4407 -0.291225,-0.6871 -0.03498,-0.2547 0.14152,-0.4943 0.207664,-0.7428 -0.0573,-0.081 -0.114599,-0.1615 -0.171898,-0.2423 0,-0.8595 -2.43105,-0.8595 -2.43105,0 l 0,0 c -0.01129,0.081 -0.02259,0.1616 -0.03388,0.2423 -0.199194,0.797 0.06216,0.6987 0.0643,1.4299 7.56e-4,0.2835 -0.118386,0.5565 -0.137797,0.8393 -0.05164,0.7525 0.0961,1.5106 0.0066,2.2627 0.01265,0.469 0.01467,0.9383 0.03796,1.4069 0.02688,0.5408 0.128485,1.0792 0.112513,1.6205 -0.01609,0.5449 -0.218357,1.0771 -0.208213,1.6221 0.01064,0.5717 0.252641,1.1225 0.269931,1.694 0.03381,1.1175 -0.400408,2.22 -0.212186,3.3474 -0.05781,1.953 0.07567,3.9055 7.56e-4,5.8555 0,0.9677 2.737061,0.9677 2.737061,0 z"
       inkscape:connector-curvature="0" />
    <path
       inkscape:connector-curvature="0"
       d="m 30.957014,999.132 c 0.225712,-0.036 0.448574,-0.1073 0.677139,-0.108 0.333524,0 0.661831,0.096 0.995295,0.1027 0.974466,0.019 1.948586,-0.08 2.923169,-0.068 6.110753,0.073 -2.844877,0.048 3.82502,0.053 5.76364,-0.3001 -1.601971,-0.038 3.921335,0.1434 0.609972,0.02 1.21638,-0.136 1.826591,-0.1256 0.524316,0.01 1.038992,0.1519 1.562423,0.1836 0.755583,0.046 1.514502,-4e-4 2.270636,0.035 0.64546,-0.02 1.252505,0 1.865049,0.1971 0.909177,0.2664 0.155835,2.8379 -0.753342,2.5716 l 0,0 c -0.38666,-0.2595 -0.808268,-0.3 -1.272277,-0.3299 -1.388501,-0.139 -0.647798,-0.1176 -2.222946,-0.02 -0.514754,-0.049 -0.997957,-0.3043 -1.513912,-0.3376 -0.587682,-0.038 -1.17394,0.099 -1.762222,0.126 -1.046994,0.048 -2.889248,0.049 -3.921335,0.056 -0.67241,0.01 -1.34493,0.033 -2.017229,0.019 -0.603349,-0.012 -1.205211,-0.1306 -1.807791,-0.098 -0.551852,0.03 -1.082051,0.2451 -1.633244,0.2856 -2.537783,0.1861 -0.152734,-0.2085 -2.28522,-0.2566 -0.230962,-0.01 -0.451427,0.098 -0.677139,0.1478 -0.911381,0 -0.911381,-2.5778 0,-2.5778 z"
       id="path4176"
       style="opacity:1;fill:#000000;fill-opacity:1;stroke:#000000;stroke-width:0;stroke-miterlimit:4;stroke-dasharray:none;stroke-opacity:1" />
    <path
       style="opacity:1;fill:#000000;fill-opacity:1;stroke:#000000;stroke-width:0;stroke-miterlimit:4;stroke-dasharray:none;stroke-opacity:1"
       id="path4178"
       d="m 10.917904,998.941 c 0.225712,-0.036 0.448573,-0.1073 0.677138,-0.108 0.333525,0 0.661832,0.096 0.995296,0.1027 0.974466,0.019 1.948586,-0.08 2.923169,-0.068 6.110752,0.073 -2.844877,0.048 3.82502,0.053 5.763639,-0.3002 -1.601972,-0.038 3.921334,0.1434 0.609972,0.02 1.21638,-0.1361 1.826592,-0.1257 0.524315,0.01 1.038992,0.1519 1.562423,0.1836 0.755582,0.046 1.514501,-3e-4 2.270635,0.035 0.64546,-0.02 1.252505,0 1.865049,0.197 0.909177,0.2664 0.155835,2.8379 -0.753342,2.5716 l 0,0 c -0.38666,-0.2595 -0.808268,-0.3 -1.272277,-0.3298 -1.388501,-0.1391 -0.647798,-0.1176 -2.222946,-0.02 -0.514754,-0.048 -0.997957,-0.3042 -1.513911,-0.3376 -0.587683,-0.038 -1.173941,0.099 -1.762223,0.126 -1.046994,0.048 -2.889248,0.049 -3.921334,0.056 -0.67241,0.01 -1.34493,0.033 -2.017229,0.019 -0.60335,-0.012 -1.205211,-0.1307 -1.807791,-0.098 -0.551852,0.03 -1.082051,0.2452 -1.633244,0.2856 -2.537783,0.1861 -0.152734,-0.2085 -2.285221,-0.2565 -0.230962,-0.01 -0.451426,0.098 -0.677138,0.1477 -0.911381,0 -0.911381,-2.5778 0,-2.5778 z"
       inkscape:connector-curvature="0" />
    <path
       style="opacity:1;fill:#000000;fill-opacity:1;stroke:#000000;stroke-width:0;stroke-miterlimit:4;stroke-dasharray:none;stroke-opacity:1"
       id="path4180"
       d="m 69.078316,999.132 c -0.225712,-0.036 -0.448573,-0.1073 -0.677138,-0.108 -0.333525,0 -0.661832,0.096 -0.995296,0.1027 -0.974466,0.019 -1.948586,-0.08 -2.923169,-0.068 -6.110753,0.073 2.844877,0.048 -3.82502,0.053 -5.76364,-0.3001 1.601972,-0.038 -3.921335,0.1434 -0.609971,0.02 -1.216379,-0.136 -1.826591,-0.1256 -0.524316,0.01 -1.038992,0.1519 -1.562423,0.1836 -0.755582,0.046 -1.514501,-4e-4 -2.270635,0.035 -0.64546,-0.02 -1.252505,0 -1.86505,0.1971 -0.909176,0.2664 -0.155834,2.8379 0.753342,2.5716 l 0,0 c 0.38666,-0.2595 0.808268,-0.3 1.272278,-0.3299 1.3885,-0.139 0.647798,-0.1176 2.222946,-0.02 0.514753,-0.049 0.997957,-0.3043 1.513911,-0.3376 0.587683,-0.038 1.17394,0.099 1.762222,0.126 1.046995,0.048 2.889249,0.049 3.921335,0.056 0.67241,0.01 1.344931,0.033 2.017229,0.019 0.60335,-0.012 1.205211,-0.1306 1.807791,-0.098 0.551853,0.03 1.082052,0.2451 1.633244,0.2856 2.537784,0.1861 0.152734,-0.2085 2.285221,-0.2566 0.230962,-0.01 0.451426,0.098 0.677138,0.1478 0.911381,0 0.911381,-2.5778 0,-2.5778 z"
       inkscape:connector-curvature="0" />
    <path
       inkscape:connector-curvature="0"
       d="m 89.117427,998.941 c -0.225712,-0.036 -0.448573,-0.1073 -0.677138,-0.108 -0.333525,0 -0.661832,0.096 -0.995296,0.1027 -0.974466,0.019 -1.948586,-0.08 -2.923169,-0.068 -6.110753,0.073 2.844877,0.048 -3.82502,0.053 -5.76364,-0.3002 1.601972,-0.038 -3.921335,0.1434 -0.609971,0.02 -1.216379,-0.1361 -1.826591,-0.1257 -0.524316,0.01 -1.038992,0.1519 -1.562423,0.1836 -0.755582,0.046 -1.514501,-3e-4 -2.270636,0.035 -0.645459,-0.02 -1.252505,0 -1.865049,0.197 -0.909176,0.2664 -0.155834,2.8379 0.753342,2.5716 l 0,0 c 0.38666,-0.2595 0.808268,-0.3 1.272277,-0.3298 1.388501,-0.1391 0.647799,-0.1176 2.222947,-0.02 0.514753,-0.048 0.997957,-0.3042 1.513911,-0.3376 0.587683,-0.038 1.17394,0.099 1.762222,0.126 1.046995,0.048 2.889249,0.049 3.921335,0.056 0.67241,0.01 1.34493,0.033 2.017229,0.019 0.60335,-0.012 1.205211,-0.1307 1.807791,-0.098 0.551852,0.03 1.082051,0.2452 1.633244,0.2856 2.537783,0.1861 0.152734,-0.2085 2.285221,-0.2565 0.230962,-0.01 0.451426,0.098 0.677138,0.1477 0.911381,0 0.911381,-2.5778 0,-2.5778 z"
       id="path4182"
       style="opacity:1;fill:#000000;fill-opacity:1;stroke:#000000;stroke-width:0;stroke-miterlimit:4;stroke-dasharray:none;stroke-opacity:1" />
    <path
       style="opacity:1;fill:#000000;fill-opacity:1;stroke:#000000;stroke-width:0;stroke-miterlimit:4;stroke-dasharray:none;stroke-opacity:1"
       id="path4184"
       d="m 41.904505,1042.0536 c -0.20085,-0.8937 -0.03843,0.015 -0.0714,-1.1645 -0.008,-0.286 -0.08287,-0.5691 -0.07472,-0.8551 0.01027,-0.3603 0.118138,-0.7133 0.129685,-1.0736 0.02161,-0.6745 -0.123369,-2.1236 -0.177796,-2.7624 0.117961,-1.1335 0.264713,-2.2032 0.239919,-3.3474 -0.01227,-0.5664 -0.122355,-1.1276 -0.141245,-1.694 -0.01804,-0.5405 0.03611,-1.0813 0.03063,-1.6221 -0.01023,-1.0094 -0.06897,-2.0179 -0.08291,-3.0273 -0.366566,-1.036 0.361283,-2.0723 0.197289,-3.1021 -0.03912,-0.2456 -0.257376,-0.4406 -0.291225,-0.6871 -0.03498,-0.2547 0.14152,-0.4943 0.207664,-0.7427 -0.0573,-0.081 -0.114599,-0.1616 -0.171898,-0.2423 0,-0.8596 -2.43105,-0.8596 -2.43105,0 l 0,0 c -0.01129,0.081 -0.02259,0.1615 -0.03388,0.2423 -0.199195,0.797 0.06216,0.6986 0.0643,1.4298 7.57e-4,0.2836 -0.118385,0.5565 -0.137797,0.8394 -0.05164,0.7524 0.0961,1.5106 0.0066,2.2627 0.01265,0.4689 0.01467,0.9383 0.03796,1.4068 0.02688,0.5408 0.128484,1.0793 0.112512,1.6205 -0.01609,0.5449 -0.218357,1.0771 -0.208212,1.6221 0.01064,0.5717 0.25264,1.1225 0.26993,1.694 0.03381,1.1176 -0.400408,2.22 -0.212185,3.3474 -0.05781,1.953 0.07567,3.9055 7.56e-4,5.8556 0,0.9677 2.737061,0.9677 2.737061,0 z"
       inkscape:connector-curvature="0" />
    <path
       style="opacity:1;fill:#000000;fill-opacity:1;stroke:#000000;stroke-width:0;stroke-miterlimit:4;stroke-dasharray:none;stroke-opacity:1"
       id="path4186"
       d="m 40.426286,1042.7386 c 0.225712,0.036 0.448574,0.1073 0.677139,0.108 0.333524,0 0.661831,-0.096 0.995295,-0.1027 0.974466,-0.019 1.948586,0.08 2.923169,0.068 6.110753,-0.073 -2.844877,-0.048 3.82502,-0.053 5.76364,0.3001 -1.601971,0.038 3.921335,-0.1434 0.609972,-0.02 1.21638,0.136 1.826591,0.1256 0.524316,-0.01 1.038992,-0.1519 1.562423,-0.1836 0.755583,-0.046 1.514502,0 2.270636,-0.035 0.64546,0.02 1.252505,0 1.865049,-0.1971 0.909177,-0.2664 0.155835,-2.8379 -0.753342,-2.5716 l 0,0 c -0.38666,0.2595 -0.808268,0.3 -1.272277,0.3299 -1.388501,0.139 -0.647798,0.1176 -2.222946,0.02 -0.514754,0.049 -0.997957,0.3043 -1.513912,0.3376 -0.587683,0.038 -1.17394,-0.099 -1.762222,-0.126 -1.046994,-0.048 -2.889249,-0.049 -3.921335,-0.056 -0.67241,-0.01 -1.34493,-0.033 -2.017229,-0.019 -0.603349,0.012 -1.205211,0.1307 -1.807791,0.098 -0.551852,-0.03 -1.082051,-0.2452 -1.633244,-0.2856 -2.537783,-0.1861 -0.152734,0.2085 -2.28522,0.2565 -0.230963,0.01 -0.451427,-0.098 -0.677139,-0.1477 -0.911381,0 -0.911381,2.5778 0,2.5778 z"
       inkscape:connector-curvature="0" />
    <path
       style="opacity:1;fill:#000000;fill-opacity:1;stroke:#000000;stroke-width:0;stroke-miterlimit:4;stroke-dasharray:none;stroke-opacity:1"
       id="path4188"
       d="m 61.447213,1041.7286 c 0.02854,-0.7632 -0.103441,-1.5417 -0.08541,-2.3018 0.01051,-0.443 0.149533,-0.88 0.139865,-1.323 -0.01078,-0.4935 -0.133863,-0.9795 -0.200793,-1.4692 5.67e-4,-0.4986 0.0013,-0.9971 0.0019,-1.4956 -0.109803,-5.0776 -0.01414,1.9337 0.09835,-3.0532 0.01076,-0.4766 -0.05586,-0.9522 -0.06551,-1.4288 -0.009,-0.4454 0.0064,-0.891 0.0095,-1.3365 0.01724,-0.4473 0.05697,-0.8943 0.05174,-1.3418 -0.0046,-0.3903 -0.05403,-0.779 -0.08105,-1.1686 -0.04908,-2.8294 -0.01807,0.6019 0.04216,-2.0112 0.0063,-0.2717 -0.04561,-0.5444 -0.01979,-0.8151 0.02202,-0.2309 0.172777,-0.4474 0.162285,-0.679 -0.0626,-1.3816 -0.431871,0.1328 -0.0884,-0.9848 0.169658,-0.3326 0.07097,-0.6529 0.09586,-0.997 0,-0.8797 -2.695831,-0.8797 -2.695831,0 l 0,0 c -0.198584,0.4616 0.127004,0.4915 0.140133,0.997 -0.06214,0.1411 -0.156823,0.2734 -0.186416,0.4233 -0.03637,0.1841 0.0011,0.3745 -0.0081,0.5615 -0.01119,0.2267 -0.06064,0.4522 -0.05314,0.679 0.0091,0.2734 0.101118,0.5416 0.102587,0.8151 0.0103,1.9181 -0.321089,-0.046 0.148728,2.0112 -0.07964,0.3896 -0.222913,0.7725 -0.238927,1.1686 -0.01815,0.449 0.104292,0.8936 0.137446,1.3418 0.0329,0.4449 0.06764,0.8907 0.06066,1.3365 -0.0075,0.4773 -0.09238,0.9516 -0.103934,1.4288 -0.01217,0.5027 0.02189,1.0055 0.03283,1.5082 -0.01565,0.515 -0.03131,1.03 -0.04696,1.545 -0.0083,0.4985 -0.04917,0.9975 -0.02481,1.4956 0.02406,0.492 0.181413,0.9768 0.169809,1.4692 -0.01053,0.4468 -0.198362,0.8774 -0.235599,1.323 -0.06337,0.7582 0.102607,1.5425 -0.04999,2.3018 0,0.9107 2.790767,0.9107 2.790767,0 z"
       inkscape:connector-curvature="0" />
    <path
       style="opacity:1;fill:#000000;fill-opacity:1;stroke:#000000;stroke-width:0;stroke-miterlimit:4;stroke-dasharray:none;stroke-opacity:1"
       id="path4190"
       d="m 40.144633,1022.9961 c 0.239667,-0.04 0.476465,-0.1361 0.719001,-0.1208 0.357702,0.023 0.691351,0.2288 1.049749,0.2329 0.420263,0 0.824233,-0.1828 1.243856,-0.2065 0.445579,-0.025 0.891211,0.062 1.337501,0.061 3.801463,-0.01 -0.852322,-0.1671 2.90551,0 4.315169,-0.3186 -1.487942,0.013 2.427943,0.08 0.321703,0.01 0.633381,-0.138 0.955128,-0.1394 0.874091,0 0.856651,0.4088 1.685091,-0.01 0.443545,0.3959 0.1232,0.2687 0.445333,0.1886 0.03598,-0.01 0.07855,0.022 0.111158,0 0.05243,-0.028 0.06305,-0.1256 0.122473,-0.1303 0.345768,-0.027 -0.08238,0.2706 0.205008,0.036 0.180849,0.1078 0.218759,0.016 0.390313,-0.017 0.03453,-0.01 0.06852,0.044 0.10109,0.03 0.209043,-0.085 0.01263,-0.2088 0.209784,-0.021 0.239589,0.093 0.489983,0.089 0.698912,-0.035 0.133765,-0.042 0.68473,0.1345 0.706344,0.1318 0.06084,-0.01 0.108291,-0.057 0.162436,-0.086 0.255168,-0.1249 0.326456,0.048 0.384781,0.044 0.363663,-0.022 -0.179605,-0.2731 0.378494,10e-5 0.459153,0.056 -0.139168,0.015 0.294414,-0.062 0.06878,-0.012 0.139145,0.026 0.208649,0.02 0.392666,-0.039 0.39074,-0.127 0.751495,0.1027 0.08378,-0.099 0.125586,-0.2654 0.251355,-0.2957 0.101734,-0.024 0.163235,0.1392 0.262622,0.172 0.177678,0.058 0.604205,0.01 0.824029,0.053 0.159853,0.1416 0.278668,-0.1294 0.415261,-0.092 0.07857,0.022 0.0673,0.1755 0.146193,0.1961 0.173073,0.045 0.06583,-0.3724 0.416063,0.012 0.0849,-0.1774 0.310011,-0.1286 0.431954,-0.028 0.984677,0 0.984677,-2.7851 0,-2.7851 l 0,0 c -0.128316,0.1238 -0.282347,-0.1287 -0.431954,0.044 -0.40083,0.2203 -0.417593,-0.1783 -0.562256,-0.1616 -0.09738,0.011 -0.132466,0.1481 -0.215748,0.1999 -0.05884,0.037 -0.133008,0.039 -0.199513,0.058 -0.460654,-0.4533 0.02124,-0.1192 -0.401664,-0.013 -0.06926,0.018 -0.117202,-0.093 -0.188038,-0.1027 -0.244022,-0.032 -0.509109,0.1472 -0.748304,-0.052 -0.416549,0.1198 -0.849375,0.019 -1.254558,0.137 -0.454712,-0.4877 -0.356872,0.2382 -0.763275,-0.1274 -0.05414,0 -0.11175,0.01 -0.162436,-0.011 -0.05012,-0.019 -0.07321,-0.1044 -0.126658,-0.099 -0.05749,0.01 -0.06538,0.1142 -0.122532,0.1224 -0.06408,0.01 -0.112374,-0.082 -0.177072,-0.08 -0.103226,0 -0.158055,0.1674 -0.280082,0.1324 -0.283455,-0.2279 0.07579,0.012 -0.180466,-0.02 -0.05406,-0.01 -0.08604,-0.09 -0.140226,-0.084 -0.116272,0.012 -0.1999,0.2308 -0.37822,0.1054 -0.03335,0 -0.07245,0.015 -0.100059,0 -0.04883,-0.033 -0.0507,-0.1393 -0.109725,-0.139 -0.05753,2e-4 -0.04766,0.1185 -0.10109,0.1399 -0.04872,0.019 -0.10127,-0.05 -0.152543,-0.039 -0.319189,0.069 0.06809,0.1578 -0.23777,0.058 -0.07061,0.016 -0.153286,0.1223 -0.205008,0.072 -0.07299,-0.071 -0.05331,-0.2057 -0.122473,-0.2809 -0.06128,-0.067 -0.528994,0.1888 -0.556491,0.1464 -1.671984,0.2241 -3.388718,0.161 -5.068162,0.075 -1.111288,0.079 -1.7877,0.1689 -2.90551,0.079 -0.449453,-0.036 -0.886587,-0.2014 -1.337501,-0.2026 -0.419719,0 -0.82439,0.1811 -1.243856,0.1958 -0.351827,0.012 -0.699834,-0.077 -1.049749,-0.1159 -0.239668,0.016 -0.479334,0.031 -0.719001,0.047 -0.913948,0 -0.913948,2.5851 0,2.5851 z"
       inkscape:connector-curvature="0" />
    <path
       inkscape:connector-curvature="0"
       d="m 51.643849,1021.2381 c -0.20085,-0.8937 -0.03843,0.015 -0.0714,-1.1645 -0.008,-0.286 -0.08287,-0.569 -0.07472,-0.855 0.01027,-0.3604 0.118138,-0.7134 0.129685,-1.0737 0.02161,-0.6744 -0.123369,-2.1235 -0.177796,-2.7624 0.11796,-1.1335 0.264712,-2.2031 0.239919,-3.3473 -0.01227,-0.5665 -0.122356,-1.1277 -0.141246,-1.694 -0.01803,-0.5405 0.03611,-1.0814 0.03063,-1.6222 -0.01023,-1.0094 -0.06897,-2.0179 -0.08291,-3.0273 -0.366567,-1.0359 0.361282,-2.0723 0.197289,-3.102 -0.03912,-0.2457 -0.257376,-0.4407 -0.291225,-0.6871 -0.03498,-0.2547 0.141519,-0.4944 0.207663,-0.7428 -0.0573,-0.081 -0.114599,-0.1615 -0.171897,-0.2423 0,-0.8595 -2.431051,-0.8595 -2.431051,0 l 0,0 c -0.01129,0.081 -0.02259,0.1615 -0.03388,0.2423 -0.199194,0.797 0.06216,0.6987 0.0643,1.4299 7.56e-4,0.2835 -0.118386,0.5565 -0.137798,0.8393 -0.05164,0.7525 0.0961,1.5106 0.0066,2.2627 0.01265,0.469 0.01467,0.9383 0.03796,1.4068 0.02688,0.5408 0.128485,1.0793 0.112512,1.6205 -0.01609,0.5449 -0.218356,1.0771 -0.208212,1.6222 0.01064,0.5717 0.25264,1.1225 0.269931,1.694 0.03381,1.1175 -0.400408,2.22 -0.212186,3.3473 -0.05781,1.9531 0.07567,3.9056 7.56e-4,5.8556 0,0.9677 2.737061,0.9677 2.737061,0 z"
       id="path4192"
       style="opacity:1;fill:#000000;fill-opacity:1;stroke:#000000;stroke-width:0;stroke-miterlimit:4;stroke-dasharray:none;stroke-opacity:1" />
    <path
       inkscape:connector-curvature="0"
       d="m 3.3290634,1041.8626 c -0.2008505,-0.8937 -0.038434,0.015 -0.0714,-1.1645 -0.008,-0.286 -0.082873,-0.569 -0.074723,-0.855 0.010265,-0.3604 0.1181382,-0.7134 0.1296852,-1.0737 0.021614,-0.6744 -0.1233691,-2.1235 -0.177796,-2.7624 0.1179604,-1.1335 0.2647128,-2.2031 0.2399192,-3.3473 -0.012269,-0.5665 -0.1223558,-1.1277 -0.1412455,-1.694 -0.018035,-0.5405 0.03611,-1.0814 0.030633,-1.6222 -0.010228,-1.0094 -0.068967,-2.0179 -0.082911,-3.0273 -0.3665664,-1.0359 0.3612825,-2.0723 0.1972888,-3.102 -0.039122,-0.2457 -0.2573759,-0.4407 -0.291225,-0.6871 -0.03498,-0.2547 0.1415196,-0.4944 0.2076638,-0.7428 -0.057299,-0.081 -0.1145991,-0.1615 -0.1718978,-0.2423 0,-0.8595 -2.43105039,-0.8595 -2.43105039,0 l 0,0 c -0.0112862,0.081 -0.0225875,0.1615 -0.0338793,0.2423 -0.19919443,0.797 0.0621609,0.6987 0.0643047,1.4299 7.5619e-4,0.2835 -0.11838577,0.5565 -0.13779724,0.8393 -0.0516404,0.7525 0.0961027,1.5106 0.006598,2.2627 0.0126473,0.469 0.0146701,0.9383 0.0379609,1.4068 0.0268789,0.5408 0.12848473,1.0793 0.11251205,1.6205 -0.016088,0.5449 -0.21835636,1.0771 -0.20821204,1.6222 0.0106434,0.5717 0.25264026,1.1224 0.26993061,1.694 0.0338094,1.1175 -0.4004079,2.22 -0.21218583,3.3473 -0.0578128,1.953 0.0756741,3.9056 7.5619e-4,5.8556 0,0.9677 2.73706085,0.9677 2.73706085,0 z"
       id="path4194"
       style="opacity:1;fill:#000000;fill-opacity:1;stroke:#000000;stroke-width:0;stroke-miterlimit:4;stroke-dasharray:none;stroke-opacity:1" />
    <path
       inkscape:connector-curvature="0"
       d="m 1.8508443,1042.5477 c 0.2257122,0.036 0.4485736,0.1072 0.6771386,0.1079 0.3335245,0 0.6618313,-0.096 0.9952954,-0.1027 0.974466,-0.019 1.9485861,0.08 2.9231693,0.068 6.1107534,-0.073 -2.8448769,-0.048 3.8250204,-0.053 5.763639,0.3002 -1.6019721,0.039 3.921334,-0.1434 0.609972,-0.02 1.21638,0.1361 1.826592,0.1256 0.524316,-0.01 1.038992,-0.1519 1.562423,-0.1836 0.755583,-0.046 1.514502,0 2.270635,-0.035 0.64546,0.02 1.252505,0 1.86505,-0.1971 0.909176,-0.2663 0.155834,-2.8379 -0.753342,-2.5715 l 0,0 c -0.386661,0.2595 -0.808268,0.2999 -1.272278,0.3298 -1.3885,0.139 -0.647797,0.1176 -2.222945,0.02 -0.514754,0.048 -0.997957,0.3042 -1.513912,0.3375 -0.587683,0.038 -1.173941,-0.099 -1.762223,-0.126 -1.046994,-0.048 -2.889248,-0.049 -3.921334,-0.056 -0.6724107,-0.01 -1.3449308,-0.033 -2.0172298,-0.019 -0.6033492,0.012 -1.2052107,0.1306 -1.8077906,0.098 -0.5518525,-0.03 -1.0820514,-0.2451 -1.6332442,-0.2855 -2.5377833,-0.1862 -0.1527339,0.2085 -2.2852205,0.2565 -0.2309621,0.01 -0.4514264,-0.099 -0.6771386,-0.1477 -0.91138064,0 -0.91138064,2.5778 0,2.5778 z"
       id="path4196"
       style="opacity:1;fill:#000000;fill-opacity:1;stroke:#000000;stroke-width:0;stroke-miterlimit:4;stroke-dasharray:none;stroke-opacity:1" />
    <path
       inkscape:connector-curvature="0"
       d="m 22.871772,1041.5376 c 0.02854,-0.7632 -0.103442,-1.5416 -0.08541,-2.3018 0.01051,-0.443 0.149533,-0.8799 0.139865,-1.3229 -0.01078,-0.4936 -0.133863,-0.9795 -0.200794,-1.4693 5.67e-4,-0.4985 0.0013,-0.997 0.0019,-1.4955 -0.109803,-5.0777 -0.01414,1.9336 0.09835,-3.0532 0.01076,-0.4766 -0.05586,-0.9522 -0.06551,-1.4288 -0.009,-0.4455 0.0064,-0.891 0.0095,-1.3366 0.01724,-0.4472 0.05697,-0.8942 0.05174,-1.3418 -0.0046,-0.3903 -0.05403,-0.779 -0.08105,-1.1685 -0.04908,-2.8295 -0.01807,0.6018 0.04216,-2.0113 0.0063,-0.2717 -0.04561,-0.5443 -0.01979,-0.815 0.02202,-0.2309 0.172777,-0.4475 0.162284,-0.6791 -0.0626,-1.3816 -0.431871,0.1329 -0.0884,-0.9848 0.169657,-0.3326 0.07097,-0.6529 0.09586,-0.997 0,-0.8797 -2.695831,-0.8797 -2.695831,0 l 0,0 c -0.198584,0.4617 0.127004,0.4915 0.140134,0.997 -0.06214,0.1411 -0.156823,0.2735 -0.186417,0.4233 -0.03637,0.1842 0.0011,0.3745 -0.0081,0.5615 -0.01119,0.2267 -0.06065,0.4522 -0.05314,0.6791 0.0091,0.2733 0.101118,0.5415 0.102587,0.815 0.0103,1.9182 -0.321089,-0.046 0.148728,2.0113 -0.07964,0.3895 -0.222912,0.7724 -0.238926,1.1685 -0.01815,0.449 0.104292,0.8936 0.137445,1.3418 0.0329,0.4449 0.06764,0.8907 0.06066,1.3366 -0.0075,0.4773 -0.09238,0.9516 -0.103935,1.4288 -0.01217,0.5027 0.02189,1.0054 0.03283,1.5082 -0.01565,0.515 -0.03131,1.03 -0.04696,1.545 -0.0083,0.4985 -0.04917,0.9974 -0.02481,1.4955 0.02406,0.492 0.181412,0.9768 0.169809,1.4693 -0.01053,0.4467 -0.198363,0.8773 -0.2356,1.3229 -0.06337,0.7583 0.102608,1.5426 -0.04999,2.3018 0,0.9107 2.790768,0.9107 2.790768,0 z"
       id="path4198"
       style="opacity:1;fill:#000000;fill-opacity:1;stroke:#000000;stroke-width:0;stroke-miterlimit:4;stroke-dasharray:none;stroke-opacity:1" />
    <path
       inkscape:connector-curvature="0"
       d="m 1.5691908,1022.8051 c 0.2396678,-0.04 0.4764658,-0.1361 0.7190014,-0.1207 0.357702,0.023 0.6913513,0.2287 1.0497489,0.2328 0.4202636,0 0.8242332,-0.1827 1.2438559,-0.2064 0.4455791,-0.025 0.8912111,0.062 1.337501,0.061 3.8014629,-0.01 -0.8523219,-0.1671 2.9055104,0 4.3151696,-0.3187 -1.4879418,0.013 2.4279426,0.08 0.321703,0.01 0.633381,-0.138 0.955128,-0.1395 0.874091,0 0.856651,0.4088 1.685091,-0.01 0.443545,0.3959 0.123201,0.2688 0.445333,0.1886 0.03598,-0.01 0.07855,0.022 0.111159,0 0.05243,-0.028 0.06305,-0.1256 0.122473,-0.1303 0.345767,-0.027 -0.08238,0.2706 0.205007,0.036 0.18085,0.1078 0.218759,0.016 0.390313,-0.017 0.03453,-0.01 0.06852,0.043 0.10109,0.03 0.209044,-0.085 0.01263,-0.2089 0.209785,-0.021 0.239588,0.093 0.489982,0.089 0.698911,-0.035 0.133765,-0.042 0.684731,0.1344 0.706345,0.1318 0.06084,-0.01 0.108291,-0.058 0.162436,-0.086 0.255168,-0.1249 0.326456,0.048 0.384781,0.044 0.363663,-0.021 -0.179605,-0.2731 0.378494,2e-4 0.459153,0.056 -0.139168,0.015 0.294414,-0.062 0.06878,-0.012 0.139145,0.026 0.208649,0.019 0.392666,-0.039 0.39074,-0.1269 0.751495,0.1027 0.08378,-0.099 0.125586,-0.2654 0.251355,-0.2957 0.101734,-0.024 0.163235,0.1393 0.262621,0.172 0.177679,0.058 0.604206,0.01 0.824029,0.053 0.159854,0.1416 0.278668,-0.1294 0.415261,-0.091 0.07857,0.022 0.0673,0.1755 0.146193,0.196 0.173074,0.045 0.06583,-0.3723 0.416063,0.012 0.0849,-0.1774 0.310011,-0.1285 0.431955,-0.028 0.984676,0 0.984676,-2.7851 0,-2.7851 l 0,0 c -0.128317,0.1238 -0.282348,-0.1287 -0.431955,0.044 -0.400829,0.2202 -0.417592,-0.1784 -0.562256,-0.1617 -0.09738,0.011 -0.132466,0.1482 -0.215747,0.1999 -0.05884,0.037 -0.133009,0.039 -0.199514,0.058 -0.460654,-0.4533 0.02124,-0.1192 -0.401663,-0.013 -0.06926,0.017 -0.117202,-0.094 -0.188039,-0.1028 -0.244021,-0.032 -0.509108,0.1472 -0.748303,-0.052 -0.416549,0.1199 -0.849375,0.019 -1.254558,0.137 -0.454712,-0.4877 -0.356872,0.2382 -0.763275,-0.1274 -0.05415,0 -0.11175,0.01 -0.162436,-0.011 -0.05012,-0.019 -0.07321,-0.1043 -0.126658,-0.099 -0.05749,0.01 -0.06538,0.1143 -0.122532,0.1224 -0.06408,0.01 -0.112374,-0.082 -0.177072,-0.08 -0.103226,0 -0.158056,0.1674 -0.280083,0.1325 -0.283455,-0.228 0.07579,0.011 -0.180465,-0.02 -0.05406,-0.01 -0.08604,-0.09 -0.140227,-0.084 -0.116272,0.012 -0.1999,0.2308 -0.378219,0.1054 -0.03335,0 -0.07245,0.015 -0.10006,0 -0.04882,-0.033 -0.05069,-0.1393 -0.109725,-0.139 -0.05753,2e-4 -0.04766,0.1186 -0.10109,0.1399 -0.04872,0.02 -0.101269,-0.05 -0.152543,-0.039 -0.319189,0.069 0.06809,0.1577 -0.23777,0.058 -0.07061,0.016 -0.153286,0.1223 -0.205007,0.072 -0.07299,-0.072 -0.05331,-0.2058 -0.122473,-0.281 -0.06128,-0.067 -0.528995,0.1888 -0.556492,0.1465 -1.671984,0.2241 -3.388718,0.161 -5.0681616,0.075 -1.1112878,0.079 -1.7877004,0.1688 -2.9055104,0.079 -0.4494526,-0.036 -0.8865869,-0.2014 -1.337501,-0.2026 -0.4197191,0 -0.8243901,0.1812 -1.2438559,0.1958 -0.3518263,0.012 -0.6998338,-0.077 -1.0497489,-0.1158 -0.2396677,0.016 -0.4793336,0.031 -0.7190014,0.047 -0.9139479,0 -0.9139479,2.585 0,2.585 z"
       id="path4200"
       style="opacity:1;fill:#000000;fill-opacity:1;stroke:#000000;stroke-width:0;stroke-miterlimit:4;stroke-dasharray:none;stroke-opacity:1" />
    <path
       style="opacity:1;fill:#000000;fill-opacity:1;stroke:#000000;stroke-width:0;stroke-miterlimit:4;stroke-dasharray:none;stroke-opacity:1"
       id="path4202"
       d="m 13.068408,1021.0471 c -0.200851,-0.8936 -0.03843,0.015 -0.0714,-1.1645 -0.008,-0.2859 -0.08287,-0.569 -0.07472,-0.855 0.01027,-0.3603 0.118138,-0.7134 0.129685,-1.0737 0.02161,-0.6744 -0.123369,-2.1235 -0.177796,-2.7623 0.11796,-1.1336 0.264713,-2.2032 0.239919,-3.3474 -0.01227,-0.5665 -0.122356,-1.1277 -0.141245,-1.694 -0.01804,-0.5405 0.03611,-1.0813 0.03063,-1.6221 -0.01023,-1.0095 -0.06897,-2.018 -0.08291,-3.0273 -0.366566,-1.036 0.361283,-2.0724 0.197289,-3.1021 -0.03912,-0.2457 -0.257376,-0.4407 -0.291225,-0.6871 -0.03498,-0.2547 0.14152,-0.4943 0.207664,-0.7427 -0.0573,-0.081 -0.114599,-0.1616 -0.171898,-0.2424 0,-0.8595 -2.43105,-0.8595 -2.43105,0 l 0,0 c -0.01129,0.081 -0.02259,0.1616 -0.03388,0.2424 -0.199195,0.7969 0.06216,0.6986 0.0643,1.4298 7.56e-4,0.2835 -0.118386,0.5565 -0.137798,0.8394 -0.05164,0.7524 0.0961,1.5105 0.0066,2.2627 0.01265,0.4689 0.01467,0.9382 0.03796,1.4068 0.02688,0.5408 0.128485,1.0792 0.112512,1.6205 -0.01609,0.5449 -0.218356,1.0771 -0.208212,1.6221 0.01064,0.5717 0.252641,1.1225 0.269931,1.694 0.03381,1.1175 -0.400408,2.22 -0.212186,3.3474 -0.05781,1.953 0.07567,3.9055 7.56e-4,5.8555 0,0.9677 2.737061,0.9677 2.737061,0 z"
       inkscape:connector-curvature="0" />
    <path
       style="opacity:1;fill:#cbe7e7;fill-opacity:1;stroke:#cbe7e7;stroke-width:0.75619286;stroke-miterlimit:4;stroke-dasharray:none;stroke-dashoffset:0;stroke-opacity:1"
       d="m 5.6039732,1039.8963 c -0.4014689,-0.085 -1.0736852,-0.1279 -1.4938138,-0.096 l -0.7638701,0.059 0,-8.3388 c 0,-4.5864 0.071926,-8.4105 0.1598359,-8.4981 0.1733095,-0.1726 16.3376348,-0.1486 16.5107628,0.024 0.157731,0.1578 0.156143,16.4724 -0.0017,16.6302 -0.307194,0.3074 -13.0767353,0.5011 -14.411297,0.2187 z"
       id="path4206"
       inkscape:connector-curvature="0" />
    <path
       style="opacity:1;fill:#cbe7e7;fill-opacity:1;stroke:#cbe7e7;stroke-width:0.76387018;stroke-miterlimit:4;stroke-dasharray:none;stroke-dashoffset:0;stroke-opacity:1"
       d="m 48.147272,1040.1798 c -3.045931,-0.089 -5.688445,-0.1678 -5.872251,-0.176 -0.288365,-0.013 -0.339484,-0.2425 -0.372771,-1.674 -0.02122,-0.9126 -0.02912,-1.9169 -0.01756,-2.2321 0.01155,-0.315 0.01397,-2.5494 0.0053,-4.9651 -0.02116,-5.9381 -0.02071,-5.9849 0.06821,-7.017 0.07173,-0.8325 0.124507,-0.9146 0.650959,-1.0118 0.315096,-0.058 3.859932,-0.075 7.87741,-0.037 4.017481,0.038 7.30451,0.011 7.30451,-0.06 0,-0.071 0.200727,-0.09 0.446061,-0.043 0.420891,0.081 0.447794,0.1733 0.476766,1.6445 0.02715,1.379 0.02508,1.8964 -0.01389,3.4689 -0.0052,0.2101 0.01049,2.6615 0.03487,5.4477 0.02439,2.7861 -0.01414,5.3774 -0.08561,5.7584 l -0.129951,0.6927 -1.653153,0.1067 c -0.909235,0.059 -1.996896,0.1408 -2.417023,0.1824 -0.42013,0.042 -3.255997,0 -6.30193,-0.085 z"
       id="path4216"
       inkscape:connector-curvature="0" />
    <path
       style="opacity:1;fill:#cbe7e7;fill-opacity:1;stroke:#cbe7e7;stroke-width:0.76387018;stroke-miterlimit:4;stroke-dasharray:none;stroke-dashoffset:0;stroke-opacity:1"
       d="m 86.245297,1039.7943 c -2.993418,-0.09 -5.63593,-0.1724 -5.872253,-0.1836 -0.407717,-0.019 -0.431649,-0.1048 -0.468254,-1.6712 -0.02122,-0.9079 -0.02912,-1.9086 -0.01756,-2.2237 0.01155,-0.3151 0.01397,-2.5494 0.0054,-4.9651 -0.02116,-5.9382 -0.02071,-5.985 0.06821,-7.017 0.07172,-0.8324 0.124611,-0.9147 0.650961,-1.0124 0.315096,-0.058 3.85993,-0.077 7.877411,-0.042 4.017478,0.035 7.304507,0.01 7.304507,-0.059 0,-0.068 0.194801,-0.086 0.432888,-0.041 0.403106,0.077 0.436055,0.1902 0.478916,1.6445 0.02532,0.8589 0.03716,1.9054 0.02631,2.3256 -0.01085,0.4201 -0.02397,0.9357 -0.02918,1.1458 -0.0052,0.21 0.01049,2.6615 0.03488,5.4476 0.02439,2.7862 -0.01414,5.3775 -0.08561,5.7585 l -0.129954,0.6927 -1.653153,0.1066 c -0.909233,0.059 -1.996894,0.1405 -2.417023,0.1818 -0.420128,0.041 -3.213028,0 -6.206443,-0.088 z"
       id="path4218"
       inkscape:connector-curvature="0" />
    <path
       style="opacity:1;fill:#cbe7e7;fill-opacity:1;stroke:#cbe7e7;stroke-width:0.76387018;stroke-miterlimit:4;stroke-dasharray:none;stroke-dashoffset:0;stroke-opacity:1"
       d="m 42.304452,978.85784 c -0.317337,-0.87257 -0.44247,-3.12112 -0.346221,-6.2214 0.06298,-2.02867 0.08909,-5.2684 0.05801,-7.1994 -0.04821,-2.99608 -0.01609,-3.49542 0.219012,-3.4052 0.15153,0.0581 0.813271,0.0144 1.470538,-0.0972 1.282297,-0.21778 9.858808,-0.28042 13.082761,-0.0956 l 1.957416,0.11225 0.01565,0.59843 c 0.02472,0.94497 0.02932,12.83253 0.0057,14.66058 l -0.02133,1.64926 -8.211605,0.0243 c -4.516382,0.0134 -8.219844,0.002 -8.229915,-0.026 z"
       id="path4220"
       inkscape:connector-curvature="0" />
    <path
       style="opacity:0.09800002;fill:#000000;fill-opacity:1;stroke:#000000;stroke-width:0.56714463;stroke-miterlimit:4;stroke-dasharray:none;stroke-dashoffset:0;stroke-opacity:1"
       d="m 43.421513,979.04205 c -0.708591,-0.0722 -1.345532,-0.18852 -1.415429,-0.25842 -0.24867,-0.24867 -0.449694,-4.4579 -0.306396,-6.41559 l 0.145656,-1.9899 0.98521,-0.27359 c 0.822314,-0.22836 1.838925,-0.96499 6.148576,-4.45525 l 5.163368,-4.18166 1.031634,0 c 0.5674,0 1.689117,0.0556 2.492705,0.12351 l 1.461068,0.1235 0,8.75649 0,8.75648 -7.209023,-0.0271 c -3.964964,-0.0149 -7.78878,-0.0862 -8.497369,-0.15846 z"
       id="path4224"
       inkscape:connector-curvature="0" />
    <path
       style="opacity:0.09800002;fill:#000000;fill-opacity:1;stroke:#000000;stroke-width:0.57290262;stroke-miterlimit:4;stroke-dasharray:none;stroke-dashoffset:0;stroke-opacity:1"
       d="m 43.659536,979.08587 c -0.577676,-0.0391 -1.109692,-0.13063 -1.182255,-0.20338 -0.07256,-0.0728 0.958662,-0.72599 2.291611,-1.45164 2.201324,-1.19837 2.696107,-1.38367 5.396177,-2.02089 l 2.972634,-0.70155 1.753813,-1.38344 c 0.964596,-0.7609 1.753812,-1.44661 1.753812,-1.52381 0,-0.0772 0.252865,-1.67551 0.561921,-3.55181 0.552184,-3.35233 0.573695,-3.42322 1.241289,-4.09082 l 0.679367,-0.67937 0,7.87423 0,7.87423 -7.209023,-0.0353 c -3.964964,-0.0194 -7.681669,-0.0673 -8.259346,-0.10642 z"
       id="path4228"
       inkscape:connector-curvature="0" />
    <path
       style="opacity:0.09800002;fill:#000000;fill-opacity:1;stroke:#000000;stroke-width:0.57290262;stroke-miterlimit:4;stroke-dasharray:none;stroke-dashoffset:0;stroke-opacity:1"
       d="m 4.5589332,1040.1952 -1.5754823,-0.064 0,-3.9936 0,-3.9936 0.6206445,-0.1693 c 0.3413546,-0.093 1.857291,-0.5053 3.3687476,-0.9161 l 2.7481031,-0.7468 2.5035039,-2.3158 c 1.944839,-1.799 2.71658,-2.6623 3.458342,-3.8686 l 0.954837,-1.5529 1.708353,0.1026 c 0.939595,0.056 1.75598,0.1502 1.814192,0.2083 0.190205,0.1899 0.213866,16.578 0.02436,16.8703 -0.131177,0.2023 -0.790371,0.3147 -2.436272,0.4152 -2.221689,0.1356 -10.1097508,0.1504 -13.1893258,0.025 z"
       id="path4236"
       inkscape:connector-curvature="0" />
    <path
       style="opacity:0.09800002;fill:#000000;fill-opacity:1;stroke:#000000;stroke-width:0.57290262;stroke-miterlimit:4;stroke-dasharray:none;stroke-dashoffset:0;stroke-opacity:1"
       d="m 45.441374,1040.4048 c -1.908374,-0.058 -3.541145,-0.1772 -3.628383,-0.2645 -0.08724,-0.087 -0.186169,-1.9953 -0.219846,-4.24 l -0.06123,-4.0812 1.18495,-0.7252 c 0.651723,-0.3988 3.376872,-2.4124 6.055889,-4.4746 l 4.870941,-3.7495 2.407913,-0.088 c 1.40567,-0.052 2.507271,-0.011 2.646622,0.097 0.184577,0.1428 0.238046,2.0741 0.235785,8.5162 -0.0015,4.5969 -0.07989,8.453 -0.174626,8.6027 -0.331046,0.5231 -4.917783,0.6633 -13.318014,0.4074 z"
       id="path4238"
       inkscape:connector-curvature="0" />
    <path
       style="opacity:0.09800002;fill:#000000;fill-opacity:1;stroke:#000000;stroke-width:0.57290262;stroke-miterlimit:4;stroke-dasharray:none;stroke-dashoffset:0;stroke-opacity:1"
       d="m 83.635246,1040.0254 c -2.013204,-0.06 -3.731912,-0.1798 -3.81935,-0.2671 -0.08744,-0.087 -0.187905,-1.4694 -0.223257,-3.0713 l -0.06428,-2.9125 1.352767,-0.8174 c 1.034974,-0.6253 2.173614,-1.6759 4.846914,-4.4719 1.921781,-2.01 3.82965,-4.1815 4.239707,-4.8255 l 0.745557,-1.171 2.874376,-0.089 c 1.713968,-0.053 2.970743,-0.014 3.113085,0.096 0.184566,0.1434 0.238046,2.0752 0.235785,8.517 -0.0015,4.5968 -0.07989,8.453 -0.174628,8.6027 -0.331435,0.5236 -4.688433,0.6597 -13.12668,0.4099 z"
       id="path4240"
       inkscape:connector-curvature="0" />
    <path
       style="opacity:0.09800002;fill:#000000;fill-opacity:1;stroke:#000000;stroke-width:0.57290262;stroke-miterlimit:4;stroke-dasharray:none;stroke-dashoffset:0;stroke-opacity:1"
       d="m 5.2003433,1040.164 -0.9340721,-0.1132 3.0521458,-1.4027 c 1.6786803,-0.7714 4.548172,-2.325 6.376647,-3.4525 l 3.324501,-2.0498 1.670965,-2.1492 1.670967,-2.1492 -0.0029,5.3152 c -0.0015,2.9234 -0.08189,5.4401 -0.178402,5.5927 -0.128263,0.2027 -0.782568,0.3144 -2.431911,0.4152 -2.647403,0.1616 -11.1971035,0.1572 -12.5479163,-0.01 z"
       id="path4248"
       inkscape:connector-curvature="0" />
    <path
       style="opacity:0.09800002;fill:#000000;fill-opacity:1;stroke:#000000;stroke-width:0.57290262;stroke-miterlimit:4;stroke-dasharray:none;stroke-dashoffset:0;stroke-opacity:1"
       d="m 47.251609,1040.4062 -1.659535,-0.1072 2.518888,-2.7163 c 2.992752,-3.2274 9.881236,-9.0282 10.721009,-9.0282 0.178794,0 0.10945,11.1553 -0.07112,11.4405 -0.316206,0.4995 -6.641035,0.7255 -11.509246,0.4112 z"
       id="path4250"
       inkscape:connector-curvature="0" />
    <path
       style="opacity:0.09800002;fill:#000000;fill-opacity:1;stroke:#000000;stroke-width:0.57290262;stroke-miterlimit:4;stroke-dasharray:none;stroke-dashoffset:0;stroke-opacity:1"
       d="m 88.154971,1039.8275 c 0.583261,-0.3134 2.503299,-2.2525 6.350773,-6.4138 l 1.069081,-1.1562 0.582656,-3.3114 c 0.320461,-1.8212 0.627509,-3.3562 0.682328,-3.411 0.176115,-0.1761 0.100259,13.7989 -0.07642,14.078 -0.21387,0.3378 -2.908839,0.5716 -6.603263,0.5727 l -2.673544,0 0.668385,-0.3591 0,0 z"
       id="path4252"
       inkscape:connector-curvature="0" />
  </g>
</svg>
