<?xml version="1.0" encoding="UTF-8" standalone="no"?>
<!-- Created with Inkscape (http://www.inkscape.org/) -->

<svg
   xmlns:dc="http://purl.org/dc/elements/1.1/"
   xmlns:cc="http://creativecommons.org/ns#"
   xmlns:rdf="http://www.w3.org/1999/02/22-rdf-syntax-ns#"
   xmlns:svg="http://www.w3.org/2000/svg"
   xmlns="http://www.w3.org/2000/svg"
   xmlns:sodipodi="http://sodipodi.sourceforge.net/DTD/sodipodi-0.dtd"
   xmlns:inkscape="http://www.inkscape.org/namespaces/inkscape"
   width="100"
   height="100"
   viewBox="0 0 100 100"
   id="svg2"
   version="1.1"
   inkscape:version="0.91 r13725"
   sodipodi:docname="logo_preprint.svg">
  <defs
     id="defs4" />
  <sodipodi:namedview
     id="base"
     pagecolor="#ffffff"
     bordercolor="#666666"
     borderopacity="1.0"
     inkscape:pageopacity="0.0"
     inkscape:pageshadow="2"
     inkscape:zoom="5.6"
     inkscape:cx="-16.087132"
     inkscape:cy="64.070985"
     inkscape:document-units="px"
     inkscape:current-layer="layer1"
     showgrid="false"
     units="px"
     inkscape:window-width="1440"
     inkscape:window-height="851"
     inkscape:window-x="0"
     inkscape:window-y="1"
     inkscape:window-maximized="1" />
  <metadata
     id="metadata7">
    <rdf:RDF>
      <cc:Work
         rdf:about="">
        <dc:format>image/svg+xml</dc:format>
        <dc:type
           rdf:resource="http://purl.org/dc/dcmitype/StillImage" />
        <dc:title></dc:title>
      </cc:Work>
    </rdf:RDF>
  </metadata>
  <g
     inkscape:label="Layer 1"
     inkscape:groupmode="layer"
     id="layer1"
     transform="translate(0,-952.36216)">
    <path
       style="opacity:1;fill:#000000;fill-opacity:1;stroke:#000000;stroke-width:0;stroke-miterlimit:4;stroke-dasharray:none;stroke-dashoffset:0;stroke-opacity:1"
       id="path4342"
       d="m 12.787861,1000.5351 c -0.08961,-0.69159 0.0129,0.2822 0.0278,-0.73889 0.02192,-1.50234 -0.138712,0.34779 -0.0742,-1.31304 0.104328,-2.68599 0.11933,1.14333 0.07309,-1.98816 0.0099,-0.39218 0.01973,-0.78436 0.02959,-1.17654 -0.04333,-0.41837 -0.133058,-0.83451 -0.129978,-1.25511 0.003,-0.41204 0.139555,-0.81528 0.148155,-1.22724 0.0078,-0.37509 -0.102199,-0.74599 -0.09913,-1.12115 0.0067,-0.82014 0.161765,-1.2582 0.355049,-2.03366 0.339888,-0.6875 0.472661,-1.02394 0.906752,-1.64666 0.178616,-0.25623 0.342671,-0.53196 0.577474,-0.73793 0.262183,-0.22999 0.606268,-0.34724 0.8903,-0.54963 1.551543,-1.10559 -0.0068,-0.29019 1.855096,-1.13511 0.881607,-0.36779 1.575013,-0.68618 2.502165,-0.94917 1.113562,-0.31586 1.790172,-0.37807 2.943031,-0.53523 1.464686,-0.19968 1.619586,-0.2131 3.074323,-0.3896 2.080778,-0.20693 4.006965,-0.22278 5.868706,0.8853 0.92285,0.54926 1.369869,1.0996 2.102833,1.84952 0.248832,0.34337 0.547487,0.65566 0.746496,1.03011 0.521651,0.98154 0.690815,2.00381 0.840787,3.09395 0.09911,0.72045 0.2094,1.44358 0.218296,2.17076 0.01035,0.84648 -0.133819,1.68843 -0.160736,2.53455 -0.03025,0.9508 -0.0071,1.90254 -0.01069,2.85382 -0.213945,1.71098 -0.523913,4.54941 -0.917767,6.21941 -0.251726,1.0673 -0.576379,2.1798 -0.863292,3.2382 -0.281266,1.0376 -0.556339,2.0103 -0.840513,3.0471 -0.554332,2.0224 -1.31383,4.1251 -1.995643,6.1056 l -0.887265,-0.321 c 1.076081,-3.1135 2.157021,-6.2495 3.006556,-9.4385 0.775057,-2.9094 1.357503,-5.863 1.567924,-8.88404 0.04443,-0.93489 0.137302,-1.86874 0.133279,-2.80468 -0.0038,-0.89408 -0.235361,-3.54879 -0.365935,-4.53616 -0.08373,-0.63318 -0.302442,-2.02783 -0.616474,-2.67472 -0.156294,-0.32196 -0.416392,-0.58215 -0.62458,-0.87321 -0.849476,-0.80599 -1.808169,-1.78561 -2.930923,-2.20578 -1.335404,-0.49976 -2.797437,-0.21923 -4.172777,-0.18522 -0.69928,0.0796 -2.283287,0.2518 -2.972196,0.36324 -0.483488,0.0782 -0.960735,0.19118 -1.442329,0.28031 -0.458248,0.0848 -0.923254,0.13552 -1.377077,0.24149 -1.106248,0.25831 -1.325868,0.40623 -2.340554,0.8476 -1.238569,0.6409 -0.598119,0.25016 -1.688608,1.04025 -0.490899,0.35568 -0.803798,0.50961 -1.165295,0.99904 -0.17296,0.23417 -0.586267,1.08664 -0.714262,1.34198 -0.08063,0.27051 -0.188611,0.53432 -0.241886,0.81151 -0.157832,0.8212 -0.07019,1.21509 -0.08646,2.06751 -0.0078,0.40941 -0.04507,0.81786 -0.05434,1.22724 -0.0052,0.22878 -8.2e-5,2.16644 4.32e-4,2.43165 0.0018,0.36454 0.0035,0.72909 0.0053,1.09363 0.01586,0.29818 0.04357,0.59596 0.04758,0.89453 0.0032,0.2342 -0.03904,0.46831 -0.0261,0.70218 0.01139,0.20595 0.08824,0.40487 0.09874,0.61086 0.01259,0.24699 -0.06779,0.49189 -0.06603,0.73889 0,0.4083 -1.154705,0.4083 -1.154705,0 z"
       inkscape:connector-curvature="0"
       sodipodi:nodetypes="cssccccccssscsscscsssscsssccsccsscscccsccscsccccccsccc" />
    <path
       sodipodi:nodetypes="cssccccccssscsscscsssscsssccccsscscccsccscsccccccsccc"
       inkscape:connector-curvature="0"
       d="m 48.249822,1032.0024 c 0.08961,0.6916 -0.0129,-0.2822 -0.0278,0.7389 -0.02192,1.5023 0.138712,-0.3478 0.0742,1.313 -0.104328,2.686 -0.11933,-1.1433 -0.07309,1.9882 -0.0099,0.3922 -0.01973,0.7844 -0.02959,1.1765 0.04333,0.4184 0.133058,0.8346 0.129978,1.2552 -0.003,0.412 -0.139555,0.8152 -0.148155,1.2272 -0.0078,0.3751 0.102199,0.746 0.09913,1.1211 -0.0067,0.8202 -0.161765,1.2582 -0.355049,2.0337 -0.339888,0.6875 -0.472661,1.0239 -0.906752,1.6467 -0.178616,0.2562 -0.342671,0.5319 -0.577474,0.7379 -0.262183,0.23 -0.606268,0.3472 -0.8903,0.5496 -1.551543,1.1056 0.0068,0.2902 -1.855096,1.1351 -0.881607,0.3678 -1.575013,0.6862 -2.502165,0.9492 -1.113562,0.3159 -1.790172,0.3781 -2.943031,0.5352 -1.464686,0.1997 -1.619586,0.2131 -3.074323,0.3896 -2.080778,0.207 -4.006965,0.2228 -5.868706,-0.8853 -0.92285,-0.5492 -1.369869,-1.0996 -2.102833,-1.8495 -0.248832,-0.3434 -0.547487,-0.6556 -0.746496,-1.0301 -0.521651,-0.9815 -0.690815,-2.0038 -0.840787,-3.0939 -0.09911,-0.7205 -0.2094,-1.4436 -0.218296,-2.1708 -0.01035,-0.8465 0.133819,-1.6884 0.160736,-2.5346 0.03025,-0.9508 0.0071,-1.9025 0.01069,-2.8538 0.213945,-1.711 0.523913,-4.5494 0.917767,-6.2194 0.251726,-1.0673 0.665665,-2.0905 0.952578,-3.1488 0.281266,-1.0376 0.467053,-2.0996 0.751227,-3.1364 0.554332,-2.0225 1.31383,-4.1251 1.995643,-6.1056 l 0.887265,0.3209 c -2.057824,5.9542 -4.133419,11.9902 -4.57448,18.3226 -0.04443,0.9348 -0.137302,1.8687 -0.133279,2.8046 0.0038,0.8941 0.235361,3.5488 0.365935,4.5362 0.08373,0.6332 0.302442,2.0278 0.616474,2.6747 0.156294,0.322 0.416392,0.5822 0.62458,0.8732 0.849476,0.806 1.808169,1.7856 2.930923,2.2058 1.335404,0.4998 2.797437,0.2192 4.172777,0.1852 0.69928,-0.08 2.283287,-0.2518 2.972196,-0.3632 0.483488,-0.078 0.960735,-0.1912 1.442329,-0.2803 0.458248,-0.085 0.923254,-0.1355 1.377077,-0.2415 1.106248,-0.2583 1.325868,-0.4062 2.340554,-0.8476 1.238569,-0.6409 0.598119,-0.2502 1.688608,-1.0403 0.490899,-0.3556 0.803798,-0.5096 1.165295,-0.999 0.17296,-0.2342 0.586267,-1.0866 0.714262,-1.342 0.08063,-0.2705 0.188611,-0.5343 0.241886,-0.8115 0.157832,-0.8212 0.07019,-1.2151 0.08646,-2.0675 0.0078,-0.4094 0.04507,-0.8179 0.05434,-1.2272 0.0052,-0.2288 8.2e-5,-2.1665 -4.32e-4,-2.4317 -0.0018,-0.3645 -0.0035,-0.7291 -0.0053,-1.0936 -0.01586,-0.2982 -0.04357,-0.596 -0.04758,-0.8946 -0.0032,-0.2342 0.03904,-0.4683 0.0261,-0.7021 -0.01139,-0.206 -0.08824,-0.4049 -0.09874,-0.6109 -0.01259,-0.247 0.06779,-0.4919 0.06603,-0.7389 0,-0.4083 1.154705,-0.4083 1.154705,0 z"
       id="path4348"
       style="opacity:1;fill:#000000;fill-opacity:1;stroke:#000000;stroke-width:0;stroke-miterlimit:4;stroke-dasharray:none;stroke-dashoffset:0;stroke-opacity:1" />
    <path
       sodipodi:nodetypes="csscsscscsssscsssccccsscscccscccc"
       inkscape:connector-curvature="0"
       d="m 47.596418,961.96322 c 0.178616,-0.25623 0.342671,-0.53196 0.577474,-0.73793 0.262183,-0.22999 0.606268,-0.34724 0.8903,-0.54963 1.551543,-1.10559 -0.0068,-0.29019 1.855096,-1.13511 0.881607,-0.36779 1.575013,-0.68618 2.502165,-0.94917 1.113562,-0.31586 1.790172,-0.37807 2.943031,-0.53523 1.464686,-0.19968 1.619586,-0.2131 3.074323,-0.3896 2.080778,-0.20693 4.006965,-0.22278 5.868706,0.8853 0.92285,0.54926 1.369869,1.0996 2.102833,1.84952 0.248832,0.34337 0.547487,0.65566 0.746496,1.03011 0.521651,0.98154 0.690815,2.00381 0.840787,3.09395 0.09911,0.72045 0.2094,1.44358 0.218296,2.17076 0.01035,0.84648 -0.133819,1.68843 -0.160736,2.53455 -0.03025,0.9508 -0.0071,1.90254 -0.01069,2.85382 -0.213945,1.71098 -0.523913,4.54941 -0.917767,6.21943 -0.251726,1.0673 -0.665665,2.0905 -0.952578,3.1489 -0.281266,1.0376 -0.467053,2.0996 -0.751227,3.1364 -0.554332,2.0224 -1.31383,4.1251 -1.995643,6.1056 l -0.887265,-0.321 c 2.057824,-5.9541 4.133419,-11.9902 4.57448,-18.32256 0.04443,-0.93489 0.137302,-1.86874 0.133279,-2.80468 -0.0038,-0.89408 -0.235361,-3.54879 -0.365935,-4.53616 -0.08373,-0.63318 -0.302442,-2.02783 -0.616474,-2.67472 -0.156294,-0.32196 -0.416392,-0.58215 -0.62458,-0.87321 -0.849476,-0.80599 -1.808169,-1.78561 -2.930923,-2.20578 -1.335404,-0.49976 -2.797437,-0.21923 -4.172777,-0.18522 -0.69928,0.0796 -2.283287,0.2518 -2.972196,0.36324 -0.483488,0.0782 -0.960735,0.19118 -1.442329,0.28031 -0.458248,0.0848 -0.923254,0.13552 -1.377077,0.24149 -1.106248,0.25831 -1.325868,0.40623 -2.340554,0.8476 -1.238569,0.6409 -0.598119,0.25016 -1.688608,1.04025 -0.490899,0.35568 -0.803798,0.50961 -1.165295,0.99904 -1.658949,0.59811 -2.130531,-0.14783 -0.954612,-0.58027 z"
       id="path4350"
       style="opacity:1;fill:#000000;fill-opacity:1;stroke:#000000;stroke-width:0;stroke-miterlimit:4;stroke-dasharray:none;stroke-dashoffset:0;stroke-opacity:1" />
    <path
       style="opacity:1;fill:#000000;fill-opacity:1;stroke:#000000;stroke-width:0;stroke-miterlimit:4;stroke-dasharray:none;stroke-dashoffset:0;stroke-opacity:1"
       id="path4352"
       d="m 81.821251,1005.931 c 0.08961,0.6916 -0.0129,-0.2822 -0.0278,0.7389 -0.02192,1.5023 0.138712,-0.3478 0.0742,1.313 -0.104328,2.686 -0.11933,-1.1433 -0.07309,1.9882 -0.0099,0.3922 -0.01973,0.7844 -0.02959,1.1765 0.04333,0.4184 0.133058,0.8346 0.129978,1.2552 -0.003,0.412 -0.139555,0.8152 -0.148155,1.2272 -0.0078,0.3751 0.102199,0.746 0.09913,1.1211 -0.0067,0.8202 -0.161765,1.2582 -0.355049,2.0337 -0.339888,0.6875 -0.472661,1.0239 -0.906752,1.6467 -0.178616,0.2562 -0.342671,0.5319 -0.577474,0.7379 -0.262183,0.23 -0.606268,0.3472 -0.8903,0.5496 -1.551543,1.1056 0.0068,0.2902 -1.855096,1.1351 l -0.485645,-0.9636 c 1.238569,-0.6409 0.598119,-0.2502 1.688608,-1.0403 0.490899,-0.3556 0.803798,-0.5096 1.165295,-0.999 0.17296,-0.2342 0.586267,-1.0866 0.714262,-1.342 0.08063,-0.2705 0.188611,-0.5343 0.241886,-0.8115 0.157832,-0.8212 0.07019,-1.2151 0.08646,-2.0675 0.0078,-0.4094 0.04507,-0.8179 0.05434,-1.2272 0.0052,-0.2288 8.2e-5,-2.1665 -4.32e-4,-2.4317 -0.0018,-0.3645 -0.0035,-0.7291 -0.0053,-1.0936 -0.01586,-0.2982 -0.04357,-0.596 -0.04758,-0.8946 -0.0032,-0.2342 0.03904,-0.4683 0.0261,-0.7021 -0.01139,-0.206 -0.08824,-0.4049 -0.09874,-0.6109 -0.01259,-0.247 0.06779,-0.4919 0.06603,-0.7389 0,-0.4083 1.154705,-0.4083 1.154705,0 z"
       inkscape:connector-curvature="0"
       sodipodi:nodetypes="cssccccccssscccscsccccccsccc" />
    <path
       style="opacity:1;fill:#000000;fill-opacity:1;stroke:#000000;stroke-width:0;stroke-miterlimit:4;stroke-dasharray:none;stroke-dashoffset:0;stroke-opacity:1"
       id="path4362"
       d="m 46.961559,1031.7161 c 0.153648,-0.1283 0.307295,-0.2566 0.460943,-0.385 0.207547,-0.1999 0.40482,-0.4111 0.62264,-0.5998 0.306121,-0.2652 0.646933,-0.4892 0.947622,-0.7605 0.375153,-0.3385 0.714925,-0.7144 1.077187,-1.0667 1.297371,-1.2617 1.4023,-1.3384 2.791727,-2.6136 1.924694,-1.6639 3.752522,-3.4287 5.787242,-4.963 0.789285,-0.5952 1.636129,-1.1119 2.420747,-1.7132 8.641956,-6.6232 -3.903097,2.6325 4.848432,-3.7725 0.72995,-0.569 1.428615,-1.1805 2.18985,-1.7069 0.693531,-0.4795 1.465033,-0.8378 2.166638,-1.3054 0.620307,-0.4135 1.191759,-0.896 1.794425,-1.3348 0.522139,-0.3801 1.058098,-0.7411 1.579786,-1.1218 4.864109,-3.5502 -1.812339,1.2525 2.425221,-1.7873 0.824191,-0.586 1.653176,-1.1569 2.429382,-1.8056 0.179499,-0.15 0.334984,-0.3321 0.533361,-0.4561 1.195364,-0.747 0.02033,0.2834 0.914521,-0.563 0.251185,-0.1887 0.553894,-0.278 0.829336,-0.4195 0.15147,-0.078 0.256207,-0.1509 0.415663,-0.2063 0.197508,-0.073 0.111417,-0.057 0.252594,-0.073 0.430492,-0.098 0.707256,1.1198 0.276764,1.2176 l 0,0 c -0.05097,0.029 -0.02877,0.032 -0.06306,-0.024 -0.190225,0.2097 -0.342731,0.049 -0.530867,0.1813 -0.07297,0.051 -0.104318,0.1513 -0.180649,0.1975 -0.106245,0.064 -0.234121,0.083 -0.351182,0.1242 -0.09785,0.1199 -0.174361,0.261 -0.293539,0.3597 -0.101483,0.084 -1.076166,0.6193 -1.128655,0.6522 -0.843953,0.5293 -1.621226,1.1625 -2.425648,1.747 -0.405941,0.2249 -0.831417,0.4178 -1.217821,0.6748 -0.456714,0.3038 -0.860542,0.681 -1.304517,1.0031 -0.52449,0.3806 -1.074567,0.725 -1.599927,1.1043 -0.60496,0.4369 -1.172538,0.9254 -1.790368,1.3438 -0.691948,0.4687 -1.444627,0.8435 -2.13483,1.3147 -0.76253,0.5206 -1.479334,1.1051 -2.219001,1.6577 -0.832278,0.582 -1.678035,1.1452 -2.496832,1.7461 -0.826907,0.6067 -1.625733,1.2509 -2.439011,1.8758 -0.776078,0.5963 -1.569371,1.1709 -2.329057,1.7879 -1.955438,1.5884 -3.793984,3.3238 -5.637724,5.0378 -0.9207,0.8793 -1.861124,1.7381 -2.768162,2.6314 -0.360537,0.3551 -0.685252,0.7463 -1.055768,1.091 -0.291915,0.2715 -0.636616,0.4824 -0.92805,0.7545 -2.322537,2.1682 0.417697,-0.1957 -0.94548,0.9672 -0.279994,0.3267 -1.203927,-0.4653 -0.923933,-0.7919 z"
       inkscape:connector-curvature="0" />
    <path
       inkscape:connector-curvature="0"
       d="m 12.675845,999.93041 c 0.153648,-0.1283 0.307295,-0.2566 0.460943,-0.385 0.207547,-0.1999 0.40482,-0.4111 0.62264,-0.5998 0.306121,-0.2652 0.646933,-0.4892 0.947622,-0.7605 0.375153,-0.3385 0.714925,-0.7144 1.077187,-1.0667 1.297371,-1.2617 1.4023,-1.3384 2.791727,-2.6136 1.924694,-1.6639 3.752522,-3.4287 5.787242,-4.963 0.789285,-0.5952 1.636129,-1.1119 2.420747,-1.7132 8.641956,-6.6232 -4.471308,3.20071 4.280221,-3.20429 l 0.630612,0.83734 c -0.832278,0.582 -1.172959,0.51385 -1.991756,1.11475 -0.826907,0.6067 -1.625733,1.2509 -2.439011,1.8758 -0.776078,0.5963 -1.569371,1.1709 -2.329057,1.7879 -1.955438,1.5884 -3.793984,3.3238 -5.637724,5.0378 -0.9207,0.8793 -1.861124,1.7381 -2.768162,2.6314 -0.360537,0.3551 -0.685252,0.7463 -1.055768,1.091 -0.291915,0.2715 -0.636616,0.4824 -0.92805,0.7545 -2.322537,2.16819 0.417697,-0.1957 -0.94548,0.96719 -0.279994,0.3267 -1.203927,-0.4653 -0.923933,-0.79189 z"
       id="path4364"
       style="opacity:1;fill:#000000;fill-opacity:1;stroke:#000000;stroke-width:0;stroke-miterlimit:4;stroke-dasharray:none;stroke-dashoffset:0;stroke-opacity:1"
       sodipodi:nodetypes="ccscsccccccccccccccc" />
    <path
       style="opacity:1;fill:#000000;fill-opacity:1;stroke:#000000;stroke-width:0;stroke-miterlimit:4;stroke-dasharray:none;stroke-dashoffset:0;stroke-opacity:1"
       id="path4366"
       d="m 14.104417,987.78755 c 0.153648,-0.1283 0.307295,-0.2566 0.460943,-0.385 0.207547,-0.1999 0.40482,-0.4111 0.62264,-0.5998 0.306121,-0.2652 0.646933,-0.4892 0.947622,-0.7605 0.375153,-0.3385 0.714925,-0.7144 1.077187,-1.0667 1.297371,-1.2617 1.4023,-1.3384 2.791727,-2.6136 1.924694,-1.6639 3.752522,-3.4287 5.787242,-4.963 0.789285,-0.5952 1.636129,-1.1119 2.420747,-1.7132 8.641956,-6.6232 -3.903097,2.6325 4.848432,-3.7725 0.72995,-0.569 1.428615,-1.1805 2.18985,-1.7069 0.693531,-0.4795 1.465033,-0.8378 2.166638,-1.3054 0.620307,-0.4135 1.191759,-0.896 1.794425,-1.3348 0.522139,-0.3801 1.058098,-0.7411 1.579786,-1.1218 4.864109,-3.5502 -1.812339,1.2525 2.425221,-1.7873 0.824191,-0.586 1.653176,-1.1569 2.429382,-1.8056 0.179499,-0.15 0.334984,-0.3321 0.533361,-0.4561 1.195364,-0.747 0.02033,0.2834 0.914521,-0.563 0.251185,-0.1887 0.553894,-0.278 0.829336,-0.4195 0.15147,-0.078 0.256207,-0.1509 0.415663,-0.2063 0.197508,-0.073 0.111417,-0.057 0.252594,-0.073 0.430492,-0.098 0.707256,1.1198 0.276764,1.2176 l 0,0 c -0.05097,0.029 -0.02877,0.032 -0.06306,-0.024 -0.190225,0.2097 -0.342731,0.049 -0.530867,0.1813 -0.07297,0.051 -0.104318,0.1513 -0.180649,0.1975 -0.106245,0.064 -0.234121,0.083 -0.351182,0.1242 -0.09785,0.1199 -0.174361,0.261 -0.293539,0.3597 -0.101483,0.084 -1.076166,0.6193 -1.128655,0.6522 -0.843953,0.5293 -1.621226,1.1625 -2.425648,1.747 -0.405941,0.2249 -0.831417,0.4178 -1.217821,0.6748 -0.456714,0.3038 -0.860542,0.681 -1.304517,1.0031 -0.52449,0.3806 -1.074567,0.725 -1.599927,1.1043 -0.60496,0.4369 -1.172538,0.9254 -1.790368,1.3438 -0.691948,0.4687 -1.444627,0.8435 -2.13483,1.3147 -0.76253,0.5206 -1.479334,1.1051 -2.219001,1.6577 -0.832278,0.582 -1.678035,1.1452 -2.496832,1.7461 -0.826907,0.6067 -1.625733,1.2509 -2.439011,1.8758 -0.776078,0.5963 -1.569371,1.1709 -2.329057,1.7879 -1.955438,1.5884 -3.793984,3.3238 -5.637724,5.0378 -0.9207,0.8793 -1.861124,1.7381 -2.768162,2.6314 -0.360537,0.3551 -0.685252,0.7463 -1.055768,1.091 -0.291915,0.2715 -0.636616,0.4824 -0.92805,0.7545 -2.322537,2.1682 0.417697,-0.1957 -0.94548,0.9672 -0.279994,0.3267 -1.203927,-0.4653 -0.923933,-0.7919 z"
       inkscape:connector-curvature="0" />
    <path
       inkscape:connector-curvature="0"
       d="m 45.71156,1044.5732 c 0.153648,-0.1283 0.307295,-0.2566 0.460943,-0.385 0.207547,-0.1999 0.40482,-0.4111 0.62264,-0.5998 0.306121,-0.2652 0.646933,-0.4892 0.947622,-0.7605 0.375153,-0.3385 0.714925,-0.7144 1.077187,-1.0667 1.297371,-1.2617 1.4023,-1.3384 2.791727,-2.6136 1.924694,-1.6639 3.752522,-3.4287 5.787242,-4.963 0.789285,-0.5952 1.636129,-1.1119 2.420747,-1.7132 8.641956,-6.6232 -3.903097,2.6325 4.848432,-3.7725 0.72995,-0.569 1.428615,-1.1805 2.18985,-1.7069 0.693531,-0.4795 1.465033,-0.8378 2.166638,-1.3054 0.620307,-0.4135 1.191759,-0.896 1.794425,-1.3348 0.522139,-0.3801 1.058098,-0.7411 1.579786,-1.1218 4.864109,-3.5502 -1.812339,1.2525 2.425221,-1.7873 0.824191,-0.586 1.653176,-1.1569 2.429382,-1.8056 0.179499,-0.15 0.334984,-0.3321 0.533361,-0.4561 1.195364,-0.747 0.02033,0.2834 0.914521,-0.563 0.251185,-0.1887 0.553894,-0.278 0.829336,-0.4195 0.15147,-0.078 0.256207,-0.1509 0.415663,-0.2063 0.197508,-0.073 0.111417,-0.057 0.252594,-0.073 0.430492,-0.098 0.707256,1.1198 0.276764,1.2176 l 0,0 c -0.05097,0.029 -0.02877,0.032 -0.06306,-0.024 -0.190225,0.2097 -0.342731,0.049 -0.530867,0.1813 -0.07297,0.051 -0.104318,0.1513 -0.180649,0.1975 -0.106245,0.064 -0.234121,0.083 -0.351182,0.1242 -0.09785,0.1199 -0.174361,0.261 -0.293539,0.3597 -0.101483,0.084 -1.076166,0.6193 -1.128655,0.6522 -0.843953,0.5293 -1.621226,1.1625 -2.425648,1.747 -0.405941,0.2249 -0.831417,0.4178 -1.217821,0.6748 -0.456714,0.3038 -0.860542,0.681 -1.304517,1.0031 -0.52449,0.3806 -1.074567,0.725 -1.599927,1.1043 -0.60496,0.4369 -1.172538,0.9254 -1.790368,1.3438 -0.691948,0.4687 -1.444627,0.8435 -2.13483,1.3147 -0.76253,0.5206 -1.479334,1.1051 -2.219001,1.6577 -0.832278,0.582 -1.678035,1.1452 -2.496832,1.7461 -0.826907,0.6067 -1.625733,1.2509 -2.439011,1.8758 -0.776078,0.5963 -1.569371,1.1709 -2.329057,1.7879 -1.955438,1.5884 -3.793984,3.3238 -5.637724,5.0378 -0.9207,0.8793 -1.861124,1.7381 -2.768162,2.6314 -0.360537,0.3551 -0.685252,0.7463 -1.055768,1.091 -0.291915,0.2715 -0.636616,0.4824 -0.92805,0.7545 -2.322537,2.1682 0.417697,-0.1957 -0.94548,0.9672 -0.279994,0.3267 -1.203927,-0.4653 -0.923933,-0.7919 z"
       id="path4368"
       style="opacity:1;fill:#000000;fill-opacity:1;stroke:#000000;stroke-width:0;stroke-miterlimit:4;stroke-dasharray:none;stroke-dashoffset:0;stroke-opacity:1" />
    <path
       sodipodi:nodetypes="csssscsssccccsscc"
       inkscape:connector-curvature="0"
       d="m 60.770195,1019.9933 c -0.248832,-0.3434 -0.547487,-0.6556 -0.746496,-1.0301 -0.521651,-0.9815 -0.690815,-2.0038 -0.840787,-3.0939 -0.09911,-0.7205 -0.2094,-1.4436 -0.218296,-2.1708 -0.01035,-0.8465 0.133819,-1.6884 0.160736,-2.5346 0.03025,-0.9508 0.0071,-1.9025 0.01069,-2.8538 0.213945,-1.711 0.523913,-4.5494 0.917767,-6.2194 0.251726,-1.0673 0.665665,-2.0905 0.952578,-3.14881 0.281266,-1.0376 0.467053,-2.0996 0.751227,-3.1364 0.554332,-2.0225 1.31383,-4.1251 1.995643,-6.1056 l 0.887265,0.3209 c -2.057824,5.9542 -4.133419,11.99021 -4.57448,18.32261 -0.04443,0.9348 -0.137302,1.8687 -0.133279,2.8046 0.0038,0.8941 0.235361,3.5488 0.365935,4.5362 0.08373,0.6332 0.302442,2.0278 0.616474,2.6747 0.156294,0.322 0.416392,0.5822 0.62458,0.8732 z"
       id="path4370"
       style="opacity:1;fill:#000000;fill-opacity:1;stroke:#000000;stroke-width:0;stroke-miterlimit:4;stroke-dasharray:none;stroke-dashoffset:0;stroke-opacity:1" />
    <path
       style="opacity:1;fill:#000000;fill-opacity:1;stroke:#000000;stroke-width:0;stroke-miterlimit:4;stroke-dasharray:none;stroke-dashoffset:0;stroke-opacity:1"
       id="path4436"
       d="m 4.4658881,972.11854 c 0.106348,0.43034 0.3364785,0.78296 0.4964367,1.17699 0.099561,0.24479 0.1648675,0.51368 0.2726802,0.75269 1.0553911,2.33911 -0.2129305,-0.87591 0.7560119,1.66541 0.2992743,0.97798 0.7314634,1.86877 1.0765929,2.81701 0.1059291,0.29094 0.1916425,0.59419 0.2955194,0.88657 0.4018084,1.05901 0.2114118,0.53611 0.5727196,1.5673 0.371374,1.1575 0.141216,0.34826 0.399505,1.50038 0.1433201,0.63921 0.1888937,0.7105 0.2925047,1.34023 0.060858,0.37006 0.098356,0.74589 0.1476096,1.11877 0.015146,0.15285 0.011792,0.31056 0.045438,0.45816 0.028562,0.12565 0.1021295,0.22605 0.1381213,0.34788 0.012053,0.041 0.062522,0.43071 0.067553,0.48238 0.00681,0.0705 -0.00236,0.14348 0.013901,0.21069 0.010743,0.0448 0.042515,0.0718 0.063793,0.11031 0.00537,0.023 0.010743,0.045 0.016063,0.0692 0.06116,0.37571 -0.7431043,0.60447 -0.8042718,0.22876 l 0,0 c 0.018304,-0.0321 0.03662,-0.0616 0.054923,-0.0923 -0.082896,-0.1781 -0.062064,-0.30556 -0.1054438,-0.50509 -0.021369,-0.0988 -0.065601,-0.1881 -0.077642,-0.28902 -0.1291714,-1.0848 0.1840171,0.44213 -0.100557,-0.80834 -0.1870725,-1.28765 -0.4001718,-2.57582 -0.8321026,-3.76588 -0.2276321,-0.84489 -0.1891492,-0.77693 -0.4946967,-1.59886 -0.1069768,-0.28787 -0.2319033,-0.56344 -0.3358011,-0.85322 -0.1121521,-0.31262 -0.1940991,-0.64384 -0.3119177,-0.95285 -0.2363094,-0.61972 -0.5578016,-1.17905 -0.7687378,-1.81761 -0.098303,-0.28941 -0.1752508,-0.59331 -0.2949049,-0.86849 -0.1200001,-0.27593 -0.2895921,-0.50919 -0.420506,-0.77629 -0.1116673,-0.22784 -0.1970785,-0.47661 -0.3063061,-0.70664 -0.09191,-0.19364 -0.2074211,-0.36636 -0.2965296,-0.56215 -0.097714,-0.21464 -0.1450259,-0.46572 -0.2607915,-0.6678 -0.1251884,-0.32723 0.5756492,-0.79514 0.7008429,-0.46778 z"
       inkscape:connector-curvature="0" />
    <path
       style="opacity:1;fill:#000000;fill-opacity:1;stroke:#000000;stroke-width:0;stroke-miterlimit:4;stroke-dasharray:none;stroke-dashoffset:0;stroke-opacity:1"
       id="path4438"
       d="m 3.3319837,972.3319 c 0.093273,-0.42377 0.1280578,-0.87269 0.2699799,-1.27739 0.079397,-0.22632 0.1860519,-0.43467 0.2857348,-0.64638 0.3579184,-0.76103 0.3181254,-0.6405 0.7898637,-1.38025 0.9287893,-1.18236 0.2718887,-0.45608 1.3741702,-1.40535 0.2438312,-0.21016 0.4653799,-0.46661 0.720256,-0.65243 0.8519874,-0.62034 1.8090165,-0.92271 2.7404053,-1.24801 1.5508954,-0.2208 0.2485465,-0.0745 1.7290414,-0.13772 0.328323,-0.018 1.043449,-0.10391 1.394788,-0.0705 1.856411,0.17002 -0.626651,0.10123 0.932467,0.12433 0.164806,0.11544 0.59779,0.39969 0.733041,0.59473 0.09173,0.13168 0.132194,0.31338 0.201508,0.46751 0.06682,0.1481 0.160843,0.27915 0.206836,0.44096 0.01127,0.0386 0.121128,0.98069 0.127049,1.03082 0.0263,0.174 0.07197,0.34506 0.07886,0.52239 0.0063,0.16273 -0.02988,0.32313 -0.03971,0.48534 -0.03021,0.49945 -0.01987,1.00133 -0.06745,1.49756 -0.09145,0.19349 -0.0017,0.40647 -0.02919,0.60537 -0.02657,0.19246 -0.167848,0.57008 -0.227093,0.74896 -0.168187,0.507 -0.04768,0.20465 -0.257578,0.67576 -0.106008,0.2031 -0.269725,0.53381 -0.39887,0.71127 -0.08961,0.12302 -0.2012,0.21619 -0.291392,0.33878 -0.08896,0.12053 -0.158255,0.26465 -0.244432,0.3889 -0.226037,0.32596 -0.421193,0.546 -0.669381,0.8436 -0.574202,0.62767 -1.136747,1.27356 -1.710909,1.90134 -0.160889,0.17581 -0.316251,0.3616 -0.485367,0.52331 -0.16908,0.16105 -0.351696,0.29748 -0.5275431,0.44623 -0.3085282,0.24145 -0.7234279,0.55547 -1.0220944,0.82923 -0.1411648,0.13024 -0.2658095,0.28928 -0.4108394,0.41097 -0.3311198,0.27774 -0.4296078,0.25478 -0.7609805,0.48445 -0.093993,0.0667 -0.1800617,0.14808 -0.2700926,0.22297 -0.09022,0.041 -0.1804337,0.0821 -0.2706597,0.12434 -0.079004,0.0257 -0.1595154,0.0462 -0.2370313,0.0782 -0.2541817,0.109 -0.2767981,0.17631 -0.5523882,0.11032 -0.027487,-0.023 -0.054989,-0.0475 -0.082463,-0.0705 -0.2441876,-0.0833 -0.065326,-0.99619 0.178851,-0.91272 l 0,0 c -0.00353,-0.0153 -0.00681,-0.0193 -0.010348,-0.0321 0.033043,0.0512 -0.01436,0 0.050691,-0.0153 0.1400525,0 0.038232,0.0988 0.222137,0.0308 0.059103,-0.023 0.1082608,-0.0769 0.1623625,-0.11412 0.078245,-0.0205 0.1564559,-0.0386 0.2346899,-0.0603 0.6975242,-0.43354 -0.1860322,0.13023 0.5782264,-0.41212 0.1229611,-0.0873 0.2541344,-0.15298 0.3767274,-0.24196 0.4894691,-0.35212 0.926279,-0.80835 1.3879026,-1.21765 0.4322872,-0.37839 0.5923014,-0.49533 0.9909084,-0.93567 0.152087,-0.16785 0.285843,-0.3639 0.440228,-0.5283 0.145284,-0.15438 0.311915,-0.27171 0.457094,-0.42647 0.269459,-0.28698 0.493298,-0.64408 0.763642,-0.9299 0.530591,-0.6169 1.053688,-1.26226 1.437085,-2.0547 0.316842,-0.66281 -0.03588,0.10637 0.222924,-0.55779 0.08263,-0.21234 0.144408,-0.23197 0.162295,-0.47008 0.08971,-1.19468 -0.125608,0.58805 0.02996,-0.60844 0.0034,-0.045 0.04123,-0.58803 0.04704,-0.63023 0.01669,-0.12185 0.05662,-0.23837 0.06829,-0.36159 0.03941,-0.41648 -0.02612,-0.84732 -0.0018,-1.2647 -0.05384,-0.25107 -0.08556,-0.51189 -0.157549,-0.75487 -0.03205,-0.10901 -0.08791,-0.20171 -0.12507,-0.30685 -0.06832,-0.19338 -0.06507,-0.34288 -0.204226,-0.47483 -0.06523,-0.0629 -0.146318,-0.0885 -0.219476,-0.13168 -0.120406,-0.0217 -0.241611,-0.0372 -0.361113,-0.068 -0.163238,-0.041 -0.32088,-0.12302 -0.486301,-0.14336 -0.201453,-0.0243 -0.404494,0.0154 -0.606784,0.0154 -0.239284,0 -0.478797,-0.0154 -0.717877,0 -0.151852,0 -1.4951244,0.17105 -1.6148324,0.18542 -0.2778383,0.0935 -1.4496387,0.47777 -1.7132929,0.61254 -1.0272697,0.52508 -1.9041507,1.46781 -2.7527851,2.3659 -0.118716,0.2344 -0.233047,0.47264 -0.3561718,0.70294 -0.2828118,0.52893 -0.3538292,0.53765 -0.5500482,1.11197 -0.045215,0.13349 -0.065063,0.27723 -0.100452,0.41469 -0.026951,0.10509 -0.074196,0.20196 -0.086578,0.31133 -0.00969,0.0873 0.01457,0.17336 0.021881,0.25992 -0.020478,0.37212 -0.8170971,0.2957 -0.7966202,-0.0769 z"
       inkscape:connector-curvature="0" />
    <path
       style="opacity:1;fill:#000000;fill-opacity:1;stroke:#000000;stroke-width:0;stroke-miterlimit:4;stroke-dasharray:none;stroke-dashoffset:0;stroke-opacity:1"
       id="path4442"
       d="m 14.211892,974.97249 c 0.06018,0.15451 -0.07627,0.28389 -0.06282,0.42814 0.01271,0.13618 0.07598,0.25825 0.09089,0.3943 0.01569,0.14361 -0.0212,0.29196 -6.4e-5,0.43392 0.02416,0.16272 0.09487,0.30658 0.133626,0.46392 0.04146,0.16823 0.07116,0.34147 0.106757,0.51201 0.136741,0.38044 0.165127,0.80667 0.274801,1.19789 0.05567,0.19863 0.15719,0.37288 0.203543,0.57574 0.04204,0.18387 0.01761,0.3866 0.05857,0.57086 0.271441,1.22072 0.110515,-0.22453 0.205444,0.86232 0.162647,0.29582 0.119582,0.13631 0.145034,0.47124 0.07124,0.32954 -0.63394,0.59575 -0.705174,0.26633 l 0,0 c -0.09894,-0.26646 -0.06306,-0.11033 -0.0744,-0.47982 -0.110449,-0.33802 -0.154279,-0.44881 -0.239203,-0.8136 -0.04375,-0.18799 -0.07354,-0.38135 -0.117405,-0.56933 -0.140806,-0.60343 -0.303034,-1.19943 -0.450882,-1.7998 -0.02979,-0.19862 -0.0596,-0.39736 -0.08938,-0.59624 -0.04592,-0.16952 -0.107461,-0.33288 -0.137753,-0.50842 -0.02648,-0.15298 -0.0059,-0.31672 -0.03124,-0.47047 -0.06475,-0.39211 -0.249489,-0.58766 -0.04335,-1.00928 0.01884,-0.34261 0.751868,-0.27221 0.733027,0.0705 z"
       inkscape:connector-curvature="0" />
    <path
       style="opacity:1;fill:#000000;fill-opacity:1;stroke:#000000;stroke-width:0;stroke-miterlimit:4;stroke-dasharray:none;stroke-dashoffset:0;stroke-opacity:1"
       id="path4444"
       d="m 13.576107,974.11758 c 0.07482,0 0.151192,0.045 0.224482,0.023 0.07831,-0.023 0.136622,-0.11281 0.211932,-0.14976 0.110646,-0.0525 0.228518,-0.0756 0.342113,-0.11792 0.1211,-0.045 0.23794,-0.11149 0.361907,-0.13785 1.545591,-0.33389 -0.723969,0.30557 0.77434,-0.1363 0.450967,-0.0744 0.908708,-0.14964 1.364386,-0.14796 0.315452,10e-4 0.100298,0.0539 0.36572,-0.0397 0.07375,-0.023 0.136107,0.0756 0.207123,0.0693 0.02959,0 0.04969,-0.0475 0.07876,-0.0552 0.07339,-0.0217 0.0677,0.082 0.139699,0.0552 0.07425,0.0666 0.269347,0.21811 0.330754,0.34018 0.05446,0.109 0.0829,0.33993 0.119266,0.46726 0.0013,0 0.08789,0.36583 0.08582,0.3916 -0.03839,0.47522 -0.09865,-0.14643 -0.09832,0.33506 6e-5,0.0576 0.02252,0.1115 0.03382,0.16747 -0.0019,0.0821 -0.0037,0.16298 -0.0059,0.24529 -0.03341,0.0846 -0.06684,0.17029 -0.100265,0.2553 -0.02542,0.11032 -0.03683,0.22722 -0.07629,0.32968 -0.03894,0.10123 -0.102997,0.18169 -0.155292,0.27183 -0.148206,0.25504 -0.287764,0.48624 -0.463561,0.70807 -0.02571,0.2676 -0.231715,0.33544 -0.329156,0.53086 -0.02269,0.0461 -0.0095,0.11791 -0.03987,0.15464 -0.441758,0.54034 -0.04027,-0.11411 -0.204064,0.16118 -0.01219,0.0372 -0.01321,0.0859 -0.03656,0.1115 -0.0439,0.0487 -0.104026,0.0667 -0.154374,0.10262 -0.181867,0.13349 -0.352477,0.24505 -0.554539,0.31224 -0.03412,0.0166 -0.06824,0.0307 -0.102354,0.0436 -0.05915,0.041 -0.11455,0.0923 -0.177496,0.12315 -0.24981,0.11543 0.07395,-0.14464 -0.219246,0.0539 -0.01689,0.0153 -0.02389,0.0386 -0.03582,0.0576 -0.04269,0.023 -0.08539,0.045 -0.128057,0.068 -0.0035,10e-4 -0.0071,0 -0.0106,0 -0.0099,0.0307 -0.0077,0.0718 -0.02935,0.0873 -0.02148,0.0153 -0.04862,-0.0359 -0.07001,-0.0217 -0.03654,0.0243 -0.04687,0.0923 -0.08048,0.12316 -0.116227,0.10637 -0.08962,0.041 -0.07617,-0.0153 -0.01127,-0.30582 -0.0492,-0.61176 -0.03412,-0.91733 0.0018,-0.0359 0.0497,0.041 0.07742,0.041 0.04274,0 0.0797,-0.0487 0.122451,-0.05 0.05652,6.4e-4 0.109125,0.0423 0.165467,0.0487 0.06667,0 0.133788,-0.0166 0.200696,0 0.07835,0 0.156353,0.0153 0.23453,0.0217 0.08367,0.0154 0.167118,0.0308 0.251058,0.0397 0.251474,0.0321 0.323187,0.0154 0.581352,0.0693 0.200507,0.041 0.394517,0.13158 0.595754,0.1667 0.08682,0.0154 0.175022,0 0.262489,0.0154 0.178643,0.0589 0.305329,0.0911 0.471103,0.18194 0.06357,0.0346 0.120315,0.0898 0.185442,0.12054 0.376476,0.1708 -0.02654,-0.0666 0.295441,0.0552 0.05073,0.0206 0.09595,0.0576 0.143916,0.0873 0.01863,0.068 0.258881,0.22531 0.259481,0.22734 0.0105,0.0346 -0.0038,0.0744 -0.0058,0.11033 0.187085,0.25683 -0.362123,0.95606 -0.549208,0.69948 l 0,0 c 0.01258,-0.16119 -0.003,-0.11281 -0.08417,-0.10901 -0.02167,-0.1077 0.0041,-0.0449 -0.126787,-0.0859 -0.531881,-0.15951 0.262388,0.0756 -0.299239,-0.12316 -0.385467,-0.13629 -0.05276,0.0475 -0.4132,-0.18156 -0.09491,-0.0153 -0.189929,-0.023 -0.284847,-0.0359 -0.08474,-0.041 -0.164594,-0.11033 -0.254244,-0.12185 -0.09737,-0.0166 -0.195173,0.0616 -0.2921,0.0423 -0.09442,-0.0206 -0.16802,-0.13489 -0.262689,-0.15131 -0.173805,-0.0307 -0.348893,0.16477 -0.525464,0.0257 -0.07827,0 -0.156969,0.023 -0.234758,0.0153 -0.327237,-0.0487 -0.06437,-0.11281 -0.365487,-0.0821 -0.0801,0 -0.21236,0.12316 -0.240229,0.023 -0.08928,-0.31876 -0.115716,-0.66227 -0.173587,-0.99349 0.02169,0 0.04911,0.0243 0.06509,0 0.01218,-0.0153 -0.01438,-0.0386 -0.02155,-0.0589 -0.0071,0 -0.02818,0.018 -0.0213,0.0166 0.09473,-0.0693 0.08649,-0.20157 0.227117,-0.2149 0.185279,0.0166 -0.07581,0.0166 0.218252,-0.13913 0.03552,-0.0193 0.0772,0.018 0.114537,0 0.166042,-0.0475 0.252675,-0.2226 0.425729,-0.23851 0.148341,0.0603 0.09502,0.0859 0.212206,-0.12826 0.0043,0 -0.006,-0.0269 0.0013,-0.0308 0.286899,-0.0462 0.02661,0.0795 0.231087,-0.17991 0.04222,-0.0307 0.08305,-0.0641 0.126656,-0.0898 0.01205,0 0.02964,0 0.03905,-0.0154 0.03172,-0.041 0.05022,-0.0975 0.07819,-0.14361 0.0933,-0.15285 0.230436,-0.2285 0.332215,-0.37147 0.06243,-0.18298 0.198075,-0.57023 0.291904,-0.71614 0.04029,-0.0641 0.107502,-0.0911 0.145271,-0.15464 0.0063,-0.0166 0.08872,-0.33174 0.0941,-0.3525 0.03643,-0.13772 0.06072,-0.28519 0.05402,-0.43367 -0.0016,-0.0346 -0.02374,-0.068 -0.01893,-0.10262 0.0037,-0.0257 0.04109,-0.0346 0.04186,-0.0603 5.88e-4,-0.0217 -0.02736,0.0217 -0.04104,0.0321 0.09425,-0.0975 0.01467,0.0166 -0.04559,-0.15606 -0.01284,-0.0359 0.0087,-0.0809 0.0076,-0.12053 -2.57e-4,0 -0.01478,-0.027 -0.01167,-0.0193 0.01007,0.023 0.01505,0.0552 0.03244,0.0692 0.0424,0.0346 0.09301,0.0487 0.139523,0.0744 -0.08612,0.0461 -0.209529,-0.0487 -0.295533,-0.0769 -0.103061,0.0166 -0.205251,0.0372 -0.308537,0.0372 -0.07715,7.6e-4 -0.153469,-0.0257 -0.230522,-0.0243 -0.342906,0 -0.675112,0.17131 -1.021299,0.10262 -0.232616,0.0807 -0.525217,0.1908 -0.765646,0.23811 -0.112441,0.023 -0.227467,0.0153 -0.339833,0.0386 -0.253648,0.0539 -0.470763,0.19093 -0.709939,0.29966 -0.266696,0.1115 -0.506609,-0.88463 -0.239911,-0.99671 z"
       inkscape:connector-curvature="0" />
    <path
       style="opacity:1;fill:#000000;fill-opacity:1;stroke:#000000;stroke-width:0;stroke-miterlimit:4;stroke-dasharray:none;stroke-dashoffset:0;stroke-opacity:1"
       id="path4446"
       d="m 19.35653,972.44283 c 0.02787,0.0988 0.08485,0.28402 0.08996,0.38584 0.0035,0.0705 -0.03208,0.1436 -0.02055,0.21233 0.01074,0.0641 0.06313,0.10509 0.0832,0.16657 0.01127,0.0346 0.05742,0.29851 0.06882,0.36249 -0.03418,0.25428 0.112899,0.11412 0.160717,0.3302 0.0073,0.0333 -0.02778,0.10123 -0.04999,0.0795 -0.0353,-0.0307 -0.02679,-0.10519 -0.04021,-0.15785 -0.04181,-0.0269 -0.138687,-0.14208 -0.125437,-0.0821 0.05342,0.0782 0.106822,0.15772 0.160235,0.23748 0.0058,-0.023 0.0021,-0.0782 0.01703,-0.068 0.172753,0.14629 0.09698,0.33106 0.111379,0.20681 0.138666,0.11033 0.01804,-0.018 0.110987,0.24441 0.02403,0.068 0.07713,0.11149 0.09944,0.17963 0.01732,0.0539 0.01628,0.11675 0.04498,0.16273 0.01826,0.0282 0.05375,0.0193 0.08065,0.0282 -0.07305,-0.0154 -0.115388,-0.0372 -0.0087,0.17052 0.0087,0.0193 0.296795,-0.0307 0.103298,0.17222 -0.0049,-0.0321 -0.02191,-0.0641 -0.01491,-0.0935 0.01075,-0.0475 0.123734,0.0307 0.186651,0.19118 0.08275,0.21285 -0.0047,0.28184 0.01386,0.46624 0.0071,-0.0449 0.02964,-0.0898 0.02115,-0.1349 -0.01219,-0.0641 -0.06259,-0.10509 -0.07885,-0.16836 -0.0037,-0.0166 0.0285,0 0.0359,0 0.0465,0.0782 0.07305,0.17554 0.117341,0.2567 0.01192,0.0218 -0.0021,-0.0923 -0.01904,-0.0769 -0.02376,0.0218 -0.0127,0.0745 -0.01905,0.11031 0.09119,0.11281 0.08323,0.0833 0.106008,0.30364 0.0061,0.0589 -0.02839,-0.12185 -0.01393,-0.0935 0.02841,0.0552 0.04753,0.11544 0.07131,0.17361 0.0065,0.018 0.01334,0.0309 0.01997,0.045 0.01356,0.0603 0.01645,0.12564 0.04069,0.18078 0.0094,0.0217 0.0051,-0.0475 0.0078,-0.0718 -0.02165,-3.8e-4 -0.06729,-0.027 -0.06501,2.6e-4 0.0029,0.0359 0.04997,0.0321 0.06952,0.0552 0.0179,0.023 0.02665,0.0565 0.03998,0.0833 0.0014,0.0307 0.003,0.0589 0.0046,0.0884 0.01486,0.0308 0.04013,0.0526 0.04458,0.0873 0.0018,0.0153 -0.03583,0 -0.03094,0.018 0.01284,0.0346 0.05274,0.0423 0.06618,0.0782 0.06629,0.17195 -0.08834,0.0217 0.05531,0.13349 -0.09505,-0.023 -0.0011,-0.0153 0.01875,0.0782 0.0035,0.018 -0.02181,0.0243 -0.03518,0.027 -0.007,0 0.01576,-0.0166 0.01411,-0.0217 -0.0019,-0.018 -0.0149,-0.018 -0.02154,-0.0206 -0.04115,-0.0449 -0.08118,-0.0923 -0.121755,-0.13632 -0.297522,-0.25785 0.501424,0.33597 0.275335,0.18363 0.02642,0.0423 0.07354,0.13926 0.123865,0.15464 0.0084,0 9.1e-4,-0.023 0.0052,-0.0333 0.007,-0.0154 -0.01433,0.0475 -0.0018,0.0552 0.04966,0.0346 0.106179,0.0487 0.159265,0.0744 0.02057,0.0423 0.07851,0.0833 0.06168,0.13023 -0.01468,0.0386 -0.04481,-0.0885 -0.07822,-0.0833 -0.216133,0.0321 -0.424186,0.12565 -0.636589,0.1885 -0.02084,0 0.0085,-0.0552 0.01179,-0.0833 0.0082,-0.0666 0.01468,-0.13348 0.02207,-0.19927 0.02914,-0.0705 0.05827,-0.14348 0.08743,-0.21336 0.01179,-0.0885 0.0049,-0.18171 0.03555,-0.25953 0.111458,-0.28441 0.235424,-0.2898 0.393985,-0.51701 0.46394,-0.66524 -0.136088,-0.0269 0.461929,-0.60473 0.203105,-0.27234 0.215156,-0.32197 0.457156,-0.52059 0.07642,-0.0616 0.166622,-0.0949 0.238927,-0.16567 0.05426,-0.0525 0.08491,-0.13938 0.134799,-0.19978 0.06574,-0.0782 0.145645,-0.13503 0.214341,-0.21029 0.04899,-0.17567 0.104582,-0.0923 0.185099,-0.18183 0.06961,-0.0769 0.07887,-0.0975 0.163148,-0.12433 0.241196,-0.18144 0.629928,0.71999 0.388731,0.90156 l 0,0 c -0.0087,0 -0.07407,-0.0475 -0.08812,0 -0.004,0.0153 0.02913,0.023 0.02043,0.0307 -0.125253,0.0999 -0.113867,0 -0.167731,0.17092 -0.149311,0.1613 -0.0635,0.091 -0.262405,0.19708 -0.05856,0.0565 -0.08997,0.15298 -0.147902,0.21068 -0.06326,0.0641 -0.145759,0.0859 -0.210431,0.1463 -0.161053,0.14978 -0.279263,0.37198 -0.448933,0.50881 -0.07892,0.0666 -0.166995,0.11542 -0.236705,0.20015 -0.06936,0.0821 -0.115821,0.19287 -0.175009,0.28826 -0.06831,0.11031 -0.157228,0.19862 -0.213065,0.31994 -0.201169,0.43749 0.133221,-0.12827 -0.0909,0.23362 0.158944,0.47468 -0.465085,0.56996 -0.653731,0.61612 -0.04364,0.0154 -0.07477,-0.0653 -0.109073,-0.10123 -0.01416,-0.0166 0.03217,0.023 0.04826,0.0346 0.02079,0.0346 0.0548,0.0603 0.06237,0.10391 0.0049,0.0269 -0.04247,-0.0243 -0.05301,-0.0525 -0.01701,-0.041 1.63e-4,-0.10263 -0.02478,-0.1349 -0.01869,-0.0243 -0.154568,-0.0153 -0.111313,-0.0949 -0.04529,-0.0243 -0.131407,-0.14208 -0.135902,-0.0756 -0.0046,0.068 0.08673,0.0718 0.134569,0.0949 0.03675,0.018 0.0779,0.0153 0.115913,0.0243 0.01558,0 -0.03206,0 -0.04802,0 -0.02441,10e-4 -0.04999,0.0217 -0.073,0.018 -0.03599,-0.018 -0.06192,-0.0589 -0.0929,-0.0898 -0.134788,-0.0898 -0.174896,-0.0693 -0.231811,-0.20337 -0.01166,-0.0282 -0.01232,-0.0653 -0.02854,-0.0871 -0.02244,-0.0334 -0.06942,-0.0346 -0.08283,-0.0745 -0.0081,-0.0243 0.02515,-0.041 0.03772,-0.0603 -0.02424,-0.0397 -0.04847,-0.0782 -0.07272,-0.11674 0.08653,-0.10263 -0.01375,-0.0206 -0.02073,-0.0475 -0.03387,-0.13155 0.03251,-0.11674 -0.01938,-0.16104 -0.09401,0 0.04072,0.0153 -0.01511,-0.10509 -0.02231,-0.0487 -0.0855,-0.0436 -0.108522,-0.0936 -0.171238,-0.35916 0.11147,-0.10509 -0.06246,-0.2208 0.01808,0 0.05785,0.045 0.05414,0.0217 -0.0073,-0.0474 -0.05222,-0.0718 -0.06859,-0.11542 -0.0213,-0.0576 -0.02837,-0.12316 -0.04254,-0.1844 0.0047,0.023 -0.0033,0.0629 0.01422,0.0705 0.0145,0 0.02048,-0.0372 0.0155,-0.0576 -0.0047,-0.018 -0.02536,-0.0193 -0.03801,-0.0309 -0.01599,-0.0756 -0.129945,-0.13348 -0.09767,-0.19964 0.02477,-0.0512 0.0721,0.0756 0.110644,0.10901 0.01114,0.0153 -0.02145,-0.023 -0.02839,-0.0372 -0.131394,-0.28876 -0.100255,-0.19617 -0.135689,-0.49302 0.01952,0.0693 0.01039,0.15297 0.04105,0.21542 0.07276,0.14643 0.172879,0.10263 0.05834,0.13348 -0.0327,-0.0589 -0.06538,-0.12054 -0.09809,-0.17875 -0.02273,-0.0321 -0.03296,-0.0795 -0.06215,-0.10262 -0.02083,-0.0154 -0.0525,0 -0.06646,-0.0333 -0.01675,-0.0308 0.01564,-0.10769 -0.01664,-0.11032 -0.03381,-0.05 -0.06762,-0.10123 -0.101423,-0.15129 -0.214841,-0.30583 0.0436,0.1128 -0.03599,-0.1844 -0.0167,-0.0641 -0.119215,-0.16285 -0.123118,-0.25441 -0.02641,-0.0589 -0.0448,-0.12695 -0.07922,-0.17938 -0.01445,-0.0217 -0.05254,-0.0603 -0.06101,-0.0333 -0.0087,0.0269 0.06643,0.0769 0.05525,0.0539 -0.01922,-0.0448 -0.111391,-0.14361 -0.08074,-0.1115 0.01522,0.0154 0.390489,0.48214 -0.05456,-0.0257 -0.03177,-0.0718 -0.07397,-0.13642 -0.09533,-0.21515 -0.006,-0.0217 0.0293,-0.0475 0.0184,-0.0667 -0.0092,-0.0153 -0.02728,0.045 -0.03855,0.0321 -0.04308,-0.05 -0.112664,-0.3684 -0.113188,-0.44482 -0.02901,-0.18733 -0.03759,-0.38031 -0.0845,-0.5624 -0.02236,-0.0873 -0.06545,-0.1645 -0.08039,-0.25351 -0.02594,-0.15617 0.03328,-0.3262 -0.04001,-0.47456 -0.02419,-0.34454 0.713147,-0.43494 0.737346,-0.091 z"
       inkscape:connector-curvature="0" />
    <path
       style="opacity:1;fill:#000000;fill-opacity:1;stroke:#000000;stroke-width:0;stroke-miterlimit:4;stroke-dasharray:none;stroke-dashoffset:0;stroke-opacity:1"
       id="path4450"
       d="m 20.016712,974.30774 c 0.04353,-0.0244 0.08709,-0.0512 0.130612,-0.0756 0.0474,-0.0461 0.08915,-0.10509 0.14219,-0.13925 0.05077,-0.0333 0.114052,-0.023 0.16384,-0.0589 0.128858,-0.091 0.311038,-0.35326 0.44792,-0.4838 0.124337,-0.0589 0.23665,-0.17451 0.30605,-0.32505 0.197012,-0.25839 0.750059,0.47802 0.553045,0.73627 l 0,0 c -0.23723,0.44456 0.12376,-0.16118 -0.186974,0.12827 -0.08946,0.0833 -0.0598,0.3207 -0.217442,0.32544 -0.05473,0.0385 -0.107723,0.0833 -0.164191,0.11791 -0.05387,0.0333 -0.114615,0.0462 -0.166165,0.0859 -0.251376,0.1908 -0.402872,0.57331 -0.713598,0.63511 -0.253205,0.13785 -0.548489,-0.80835 -0.295284,-0.94631 z"
       inkscape:connector-curvature="0" />
    <path
       style="opacity:1;fill:#000000;fill-opacity:1;stroke:#000000;stroke-width:0;stroke-miterlimit:4;stroke-dasharray:none;stroke-dashoffset:0;stroke-opacity:1"
       id="path4452"
       d="m 18.891822,971.88068 c 0.176985,-0.0873 0.334388,-0.26223 0.511759,-0.3439 0.223236,-0.10262 0.307019,-0.0397 0.502727,-0.25544 0.05854,-0.0397 0.113777,-0.0873 0.175629,-0.11411 0.04169,-0.0206 0.08891,0 0.131034,-0.023 0.404786,-0.16554 -0.211927,0.0282 0.227248,-0.19067 0.01372,0 0.0084,0.0436 -0.0013,0.0576 -0.01755,0.0257 -0.04685,0.0321 -0.07029,0.0475 0.123445,-0.31081 -0.0054,0.0873 0.127284,-0.24746 0.01618,-0.041 2.6e-5,-0.10133 0.02299,-0.13489 0.0127,-0.0193 0.03778,0.018 0.05666,0.018 0.207331,-0.21938 -0.09063,-0.0898 0.07308,-0.0705 0.07748,-0.31326 0.748353,-0.023 0.670865,0.28966 l 0,0 c 0.0017,0.11151 0.01,0.52356 -0.141858,0.37302 -0.01556,0.0423 -0.02386,0.0898 -0.04671,0.12564 -0.011,0.0154 -0.0339,0.0154 -0.04799,0.023 -0.06558,0.0589 -0.09056,0.23094 -0.145633,0.30877 -0.08719,0.0859 -0.212601,0.24466 -0.33736,0.25709 -0.07764,0 -0.126183,-0.0217 -0.206694,0.0308 -0.04382,0.027 -0.07452,0.0833 -0.111771,0.12433 -0.699078,0.30159 0.202515,-0.13168 -0.385569,0.28455 -0.05478,0.0397 -0.122725,0.0307 -0.181751,0.0552 -0.164376,0.0705 -0.332936,0.17143 -0.468791,0.31351 -0.247361,0.16503 -0.600862,-0.75935 -0.353499,-0.92464 z"
       inkscape:connector-curvature="0" />
    <path
       style="opacity:1;fill:#000000;fill-opacity:1;stroke:#000000;stroke-width:0;stroke-miterlimit:4;stroke-dasharray:none;stroke-dashoffset:0;stroke-opacity:1"
       id="path4454"
       d="m 23.86958,968.94787 c 0.0114,0.11412 0.003,0.23556 0.03441,0.34301 0.04556,0.15644 0.142653,0.27941 0.192081,0.43341 0.05501,0.17158 0.06659,0.36315 0.118887,0.53625 0.05423,0.1795 0.137773,0.34095 0.199355,0.51624 0.205797,0.58573 0.172504,0.53457 0.301895,1.17289 0.06151,0.18824 0.122226,0.37698 0.18453,0.56484 0.05915,0.17849 0.128189,0.35147 0.179878,0.53381 0.23519,0.82962 0.02502,0.21848 0.193099,0.95785 0.03905,0.17195 0.149069,0.48097 0.207546,0.65202 0.09686,0.30019 -0.0059,-0.0809 0.01321,0.23236 0.003,0.0487 0.08841,0.1513 0.08214,0.10262 -0.0086,-0.0667 -0.121912,-0.12564 -0.0048,-0.0525 0.01998,0.068 0.106575,0.16285 0.05997,0.2008 -0.04606,0.0359 -0.122477,-0.21939 -0.07343,-0.19016 0.192099,0.11412 0.09935,0.24518 0.106843,0.4184 0.001,0.023 0.01408,-0.0386 0.02119,-0.0603 0.07355,0.3271 -0.626843,0.60188 -0.700393,0.27465 l 0,0 c -0.02371,-0.0462 -0.0301,-0.12565 -0.07114,-0.13488 -0.0978,-0.0217 0.203429,0.40749 0.125962,0.26657 -0.260861,-0.47507 -0.137624,-0.20337 -0.09697,-0.10637 0.0084,-0.018 -0.248424,-0.67831 -0.229636,-0.71704 -0.07454,-0.47943 0.0088,0 -0.118205,-0.55894 -0.06895,-0.3071 -0.104433,-0.62689 -0.182785,-0.93002 -0.04298,-0.16606 -0.322382,-0.98903 -0.371298,-1.13468 -0.161996,-0.5492 -0.35449,-1.08941 -0.504182,-1.64426 -0.044,-0.16297 -0.06218,-0.33787 -0.111668,-0.49815 -0.08241,-0.26697 -0.230836,-0.49329 -0.292527,-0.77424 -0.107304,-0.34377 0.628822,-0.74473 0.736128,-0.40096 z"
       inkscape:connector-curvature="0" />
    <path
       style="opacity:1;fill:#000000;fill-opacity:1;stroke:#000000;stroke-width:0;stroke-miterlimit:4;stroke-dasharray:none;stroke-dashoffset:0;stroke-opacity:1"
       id="path4456"
       d="m 23.295008,968.54051 c 0.259037,-0.38725 0.0025,-0.068 0.362733,-0.32711 0.07357,-0.0525 0.131473,-0.13925 0.205441,-0.19131 0.26598,-0.18696 0.579129,-0.26531 0.868075,-0.36302 0.114433,-0.0576 0.335675,-0.17733 0.462256,-0.20157 0.06942,-0.0153 0.14066,0 0.210418,5.2e-4 0.06707,0 0.131448,-0.041 0.198196,-0.0552 0.08198,-0.0153 0.165342,-0.0153 0.247369,-0.0307 0.03788,-0.0243 0.07192,-0.0667 0.113646,-0.0718 0.06095,-0.0154 0.254844,0.091 0.315633,0.13771 0.06847,-0.073 0.08469,-0.0307 0.140593,0.0166 0.05073,0.0359 0.103725,0.0667 0.157901,0.0923 0.04657,0.0217 0.09561,0.0333 0.1434,0.05 0.103083,0.0525 0.117471,0.21798 0.171165,0.32569 0.06008,0.12054 0.04377,-0.0269 0.09519,0.1785 0.0149,0.0589 0.0155,0.12433 0.02325,0.18644 0.03551,0.0975 0.149957,0.42058 0.154045,0.52112 0.0028,0.068 -0.03591,0.13022 -0.03988,0.19721 -0.02908,0.49917 0.08271,-0.0859 -0.0289,0.40531 -0.02314,0.37712 0.02389,0.85657 -0.03957,1.2206 -0.01861,0.1077 -0.05474,0.20657 -0.0821,0.30992 -0.09733,0.60254 0.04238,-0.1767 -0.113763,0.43046 -0.052,0.20247 -0.0059,0.24427 -0.103758,0.40865 -0.126433,0.21248 -0.108497,0.0153 -0.100822,0.24133 0.200802,-0.0756 -0.140256,0.18427 -0.105601,0.13784 0.01671,-0.023 0.07282,-0.0756 0.06155,-0.0475 -0.03908,0.0948 -0.09183,0.18244 -0.148592,0.26158 -0.02074,0.0282 -0.130534,0.0846 -0.15877,0.10262 -0.173422,0.24416 -0.392355,0.2898 -0.63549,0.27197 -0.06708,0 -0.134321,-0.0372 -0.200759,-0.0244 -0.07398,0.018 -0.139311,0.0718 -0.208966,0.10901 -0.244421,0.0372 -0.215273,0.0552 -0.462416,-10e-4 -0.07895,-0.0193 -0.154086,-0.068 -0.234177,-0.0745 -0.07416,0 -0.146589,0.0346 -0.220752,0.0398 -0.129159,0 -0.258561,-0.0166 -0.387841,-0.0166 -0.153361,0.0898 -0.280747,-0.0487 -0.427613,-0.0539 -0.268814,-0.0346 -0.196905,-1.03837 0.07193,-1.00491 l 0,0 c 0.213368,0.0705 -0.171522,-0.0386 0.161788,-0.0346 0.08575,0 0.151076,0.14361 0.247833,0.0923 0.414996,0.13773 -0.06279,0.0154 0.36962,0 0.06909,0 0.135622,0.0462 0.204744,0.045 0.07318,0 0.141885,-0.0552 0.215064,-0.0589 0.135372,0 0.26499,0.10508 0.40403,0.0552 0.520916,-0.23709 -0.160076,0.0257 0.351499,-0.0257 0.05427,0 0.09581,-0.0744 0.149148,-0.0873 0.01791,0 0.129997,0.0552 0.156951,0.0153 0.02421,0 0.06431,0.023 0.07264,0 0.01,-0.0359 -0.02023,-0.12303 -0.04286,-0.10123 -0.04206,0.045 -0.103147,0.22863 -0.05335,0.20158 0.05246,-0.027 0.03094,-0.14798 0.06507,-0.20773 0.01602,-0.0269 0.05702,-0.0166 0.07463,-0.0372 0.01403,-0.0217 0.0042,-0.0565 0.0063,-0.0833 0.05282,-0.18297 0.121677,-0.16271 0.169577,-0.31121 0.0134,-0.041 -0.0041,-0.091 0.0043,-0.13489 0.02181,-0.11411 0.113959,-0.19631 0.09072,-0.33287 0.05556,-0.16863 0.0793,-0.20594 0.08462,-0.4152 0.0024,-0.091 -0.01945,-0.17888 -0.01925,-0.26875 4.45e-4,-0.22121 0.05581,-0.44354 0.0028,-0.6641 0.03508,-0.15798 0.05455,-0.26351 0.04466,-0.42391 -0.0017,-0.0269 0.0106,-0.0603 3.65e-4,-0.0859 -0.08327,-0.20748 -0.06271,0.0448 -0.067,-0.15785 -0.0017,-0.0539 -0.0069,-0.21786 -0.0309,-0.25761 -0.162158,-0.26941 -0.06243,0.0372 -0.04679,0.0153 0.0131,-0.0243 -0.02045,-0.0539 -0.03071,-0.0782 0.08433,0.0705 0.05534,0.0603 0.16949,0.0859 0.0193,0 -0.03719,-0.0154 -0.05655,-0.0206 -0.05592,-0.0154 -0.08121,0.0461 -0.136412,-0.0257 -0.02836,-0.0166 -0.06127,0.0154 -0.08943,0 -0.01167,0 -0.006,-0.0333 -0.01475,-0.0436 -0.05396,-0.0705 -0.110226,0.0153 -0.165877,0.0333 -0.02488,7.8e-4 -0.04992,0 -0.07464,0 -0.04122,0 -0.08059,-0.041 -0.121663,-0.0346 -0.05061,0 -0.09098,0.0653 -0.140528,0.0796 -0.217369,0.0718 -0.436302,-0.0552 -0.629679,0.1613 -0.08469,0.0153 -0.173434,0 -0.254115,0.0436 -0.08067,0.0372 -0.144748,0.12054 -0.219763,0.17401 -0.196602,0.14207 -0.436777,0.18208 -0.575183,0.43623 -0.18983,0.27081 -0.769276,-0.43868 -0.579448,-0.70935 z"
       inkscape:connector-curvature="0" />
    <path
       inkscape:connector-curvature="0"
       d="m 28.295672,966.02112 c 0.06018,0.15437 -0.07628,0.28375 -0.0628,0.42789 0.0127,0.13629 0.07598,0.25863 0.09089,0.39441 0.01569,0.14362 -0.02119,0.29211 -6.4e-5,0.43418 0.02416,0.16272 0.09487,0.30621 0.133627,0.4638 0.04146,0.16836 0.07116,0.34133 0.106725,0.51201 0.136741,0.38044 0.165127,0.80654 0.274802,1.19802 0.05567,0.19861 0.157188,0.37288 0.203542,0.57561 0.042,0.18387 0.01761,0.3866 0.05857,0.57073 0.27144,1.22072 0.110488,-0.2244 0.205443,0.86245 0.162649,0.2957 0.119581,0.13631 0.145034,0.47137 0.07124,0.32941 -0.633942,0.59562 -0.705173,0.2662 l 0,0 c -0.09894,-0.26646 -0.06306,-0.11033 -0.07439,-0.47995 -0.110436,-0.33789 -0.154279,-0.44867 -0.239206,-0.81374 -0.04375,-0.18786 -0.07353,-0.38108 -0.117393,-0.56893 -0.140804,-0.60356 -0.303034,-1.19958 -0.450881,-1.7998 -0.02979,-0.199 -0.0596,-0.39762 -0.08939,-0.59625 -0.04592,-0.16951 -0.107475,-0.333 -0.137752,-0.50867 -0.02648,-0.15273 -0.0059,-0.31659 -0.03124,-0.47047 -0.06474,-0.39198 -0.249487,-0.58766 -0.04335,-1.00926 0.01884,-0.3425 0.751869,-0.27197 0.733028,0.0705 z"
       id="path4458"
       style="opacity:1;fill:#000000;fill-opacity:1;stroke:#000000;stroke-width:0;stroke-miterlimit:4;stroke-dasharray:none;stroke-dashoffset:0;stroke-opacity:1" />
    <path
       inkscape:connector-curvature="0"
       d="m 27.659884,965.16609 c 0.07484,0 0.151195,0.045 0.224484,0.023 0.07831,-0.023 0.136621,-0.11281 0.211933,-0.1513 0.110646,-0.0526 0.228517,-0.0756 0.342111,-0.11674 0.121101,-0.045 0.237941,-0.1115 0.361908,-0.13785 1.545591,-0.33389 -0.723969,0.30544 0.774339,-0.13631 0.450968,-0.0745 0.908709,-0.14964 1.364384,-0.14798 0.315456,10e-4 0.100298,0.0539 0.365722,-0.0397 0.07375,-0.023 0.13611,0.0769 0.207126,0.0692 0.02959,0 0.04969,-0.0475 0.07874,-0.0565 0.07339,-0.0206 0.0677,0.0809 0.139701,0.0565 0.07425,0.0667 0.269347,0.21825 0.330753,0.3402 0.05446,0.109 0.08289,0.33966 0.119267,0.46725 0.0013,0 0.08788,0.36583 0.08582,0.39149 -0.03839,0.47545 -0.09865,-0.14645 -0.09832,0.33518 6e-5,0.0576 0.02252,0.11149 0.0338,0.16772 -0.0019,0.082 -0.0036,0.16271 -0.0059,0.24504 -0.03341,0.0859 -0.06684,0.17028 -0.100266,0.25529 -0.02543,0.11031 -0.03682,0.22747 -0.07627,0.32993 -0.03894,0.10263 -0.102997,0.18169 -0.155289,0.27184 -0.148209,0.25492 -0.287766,0.48598 -0.463563,0.70781 -0.02569,0.26774 -0.231716,0.33532 -0.329155,0.53125 -0.02267,0.045 -0.0095,0.11922 -0.03987,0.15451 -0.441759,0.54009 -0.04027,-0.11412 -0.204065,0.16105 -0.01218,0.0372 -0.01321,0.0859 -0.03655,0.11149 -0.04391,0.0487 -0.104047,0.0667 -0.154374,0.10262 -0.181867,0.13348 -0.352475,0.24503 -0.554541,0.31223 -0.03412,0.0153 -0.06824,0.0309 -0.102344,0.045 -0.05916,0.041 -0.114549,0.0935 -0.177496,0.12184 -0.24981,0.11543 0.07395,-0.14465 -0.219249,0.0552 -0.01687,0.0166 -0.02389,0.0398 -0.03582,0.0576 -0.04269,0.023 -0.08539,0.0461 -0.128057,0.068 -0.0035,0 -0.0071,0 -0.01061,0 -0.0099,0.0307 -0.0077,0.0744 -0.02933,0.0873 -0.02148,0.018 -0.04862,-0.0359 -0.07001,-0.0217 -0.03654,0.0243 -0.04687,0.0923 -0.08048,0.12315 -0.116226,0.1077 -0.08962,0.041 -0.07617,-0.0166 -0.01114,-0.30569 -0.0492,-0.6119 -0.03412,-0.91747 0.0018,-0.0359 0.0497,0.041 0.07742,0.041 0.04274,0 0.0797,-0.0487 0.122449,-0.0512 0.05652,4e-4 0.109126,0.0423 0.165468,0.0487 0.06667,0 0.133784,-0.0166 0.200694,0 0.07835,0 0.156351,0.0154 0.234529,0.0217 0.08367,0.0154 0.16712,0.0307 0.251058,0.0397 0.251476,0.0321 0.32319,0.0154 0.581352,0.0692 0.200507,0.041 0.394517,0.13155 0.595754,0.16683 0.08682,0.0166 0.175022,0 0.262491,0.0166 0.178641,0.0589 0.305327,0.0911 0.471104,0.18183 0.06354,0.0346 0.120314,0.091 0.18544,0.12054 0.376476,0.17092 -0.02654,-0.0667 0.295441,0.0552 0.05073,0.0193 0.09595,0.0576 0.143916,0.0873 0.01863,0.0693 0.258881,0.22515 0.259481,0.22734 0.0105,0.0346 -0.0036,0.0731 -0.0058,0.11031 0.187085,0.25658 -0.362121,0.95579 -0.549207,0.69923 l 0,0 c 0.01258,-0.16119 -0.003,-0.11281 -0.08417,-0.10901 -0.02167,-0.1077 0.0041,-0.0462 -0.126799,-0.0859 -0.531881,-0.15939 0.262388,0.0756 -0.299239,-0.12316 -0.385467,-0.13643 -0.05276,0.0475 -0.4132,-0.1817 -0.09491,-0.0153 -0.189928,-0.023 -0.284847,-0.0359 -0.08474,-0.041 -0.164594,-0.11032 -0.254242,-0.12185 -0.09737,-0.0153 -0.195175,0.064 -0.292102,0.0423 -0.09441,-0.018 -0.168021,-0.13477 -0.262689,-0.15118 -0.173804,-0.0308 -0.348893,0.16477 -0.525462,0.0257 -0.07827,0 -0.156972,0.023 -0.234759,0.0166 -0.327239,-0.0513 -0.06439,-0.11281 -0.365487,-0.0821 -0.0801,0 -0.212362,0.12315 -0.24023,0.023 -0.08927,-0.31852 -0.115715,-0.66228 -0.173588,-0.9935 0.02168,0 0.04912,0.0243 0.06509,0 0.01218,-0.0153 -0.01438,-0.0397 -0.02155,-0.0589 -0.0071,0 -0.02818,0.0193 -0.02128,0.0154 0.09473,-0.0693 0.08649,-0.20157 0.227118,-0.21466 0.185278,0.0154 -0.07581,0.0154 0.218251,-0.13925 0.03552,-0.018 0.07719,0.0206 0.114537,0 0.166041,-0.0475 0.252674,-0.2226 0.425726,-0.2385 0.148344,0.0603 0.09502,0.0859 0.212205,-0.12827 0.0043,0 -0.006,-0.027 0.0013,-0.0307 0.2869,-0.045 0.02661,0.0807 0.231088,-0.17953 0.04222,-0.0307 0.08305,-0.0641 0.126656,-0.0885 0.01205,0 0.02964,0 0.03905,-0.018 0.03172,-0.041 0.05021,-0.0975 0.07819,-0.14363 0.0933,-0.15284 0.230438,-0.22849 0.332216,-0.37172 0.06243,-0.18259 0.198076,-0.56984 0.291905,-0.71615 0.04029,-0.0616 0.1075,-0.0898 0.145269,-0.15464 0.0061,-0.0153 0.08872,-0.33158 0.09409,-0.35211 0.03644,-0.13797 0.06072,-0.28529 0.05403,-0.43378 -0.0016,-0.0346 -0.02376,-0.068 -0.01893,-0.10263 0.0037,-0.0257 0.04109,-0.0346 0.04186,-0.0603 5.88e-4,-0.0217 -0.02736,0.0217 -0.04104,0.0321 0.09424,-0.0975 0.01466,0.0166 -0.04559,-0.15605 -0.01284,-0.0359 0.0087,-0.0795 0.0076,-0.12055 -2.56e-4,0 -0.01478,-0.027 -0.01167,-0.0206 0.01007,0.023 0.01505,0.0552 0.03244,0.0693 0.0424,0.0346 0.09301,0.0487 0.139524,0.0744 -0.08611,0.0462 -0.20953,-0.0487 -0.295534,-0.0769 -0.103051,0.0153 -0.205251,0.0372 -0.308535,0.0372 -0.07715,7.7e-4 -0.153469,-0.0257 -0.230523,-0.0243 -0.342906,0 -0.675112,0.17118 -1.021301,0.10263 -0.232616,0.0795 -0.525214,0.19042 -0.765644,0.23812 -0.112454,0.023 -0.227467,0.0166 -0.339833,0.0397 -0.253649,0.0525 -0.470764,0.19067 -0.709939,0.29967 -0.266696,0.11149 -0.506608,-0.88476 -0.239911,-0.99683 z"
       id="path4460"
       style="opacity:1;fill:#000000;fill-opacity:1;stroke:#000000;stroke-width:0;stroke-miterlimit:4;stroke-dasharray:none;stroke-dashoffset:0;stroke-opacity:1" />
    <path
       style="opacity:1;fill:#000000;fill-opacity:1;stroke:#000000;stroke-width:0;stroke-miterlimit:4;stroke-dasharray:none;stroke-dashoffset:0;stroke-opacity:1"
       id="path4462"
       d="m 33.474977,962.91136 c 0.245403,0.77679 0.545442,1.52 0.868839,2.24537 0.215371,0.50842 0.470141,0.99837 0.650646,1.53232 0.04559,0.13476 0.05943,0.28721 0.11227,0.41737 0.04157,0.10262 0.113371,0.17811 0.166854,0.27031 0.04424,0.0756 0.08416,0.15783 0.126223,0.23516 0.0021,0.0756 -0.02091,0.16272 0.0065,0.22979 0.0135,0.0333 0.05965,-0.0217 0.08519,0 0.01531,0.0153 0.0041,0.0448 0.01007,0.0667 0.03171,0.1115 0.0773,0.18812 0.127429,0.2907 0.07463,0.33236 -0.637084,0.61138 -0.711714,0.27876 l 0,0 c 0.01592,0.0243 0.0396,0.0423 0.04779,0.0718 0.003,0.018 -0.01774,0.0307 -0.02283,0.0193 -0.01942,-0.0372 -0.01498,-0.091 -0.03372,-0.13024 -0.05842,-0.11673 -0.154943,-0.20118 -0.197477,-0.33646 -0.06619,-0.18658 -0.116293,-0.38327 -0.189661,-0.5651 -0.05166,-0.12827 -0.122489,-0.2412 -0.175472,-0.36826 -0.06525,-0.15631 -0.109256,-0.32788 -0.178687,-0.48124 -0.07777,-0.17157 -0.174344,-0.32723 -0.261515,-0.49098 -0.07968,-0.18169 -0.159359,-0.36339 -0.239038,-0.54522 -0.04347,-0.0975 -0.389172,-0.85976 -0.436036,-0.99426 -0.05754,-0.1649 -0.08923,-0.34378 -0.141648,-0.51188 -0.09018,-0.28916 -0.199519,-0.58242 -0.338043,-0.83682 -0.105526,-0.33813 0.618391,-0.73255 0.723919,-0.39441 z"
       inkscape:connector-curvature="0" />
    <path
       style="opacity:1;fill:#000000;fill-opacity:1;stroke:#000000;stroke-width:0;stroke-miterlimit:4;stroke-dasharray:none;stroke-dashoffset:0;stroke-opacity:1"
       id="path4464"
       d="m 36.61453,967.37019 c -0.22676,-0.2271 -0.208697,-0.67216 -0.322496,-0.97478 -0.204754,-0.35455 -0.11966,-0.16439 -0.255702,-0.57062 -0.09087,-0.1513 -0.07312,-0.36545 -0.143293,-0.52764 -0.02873,-0.0667 -0.08142,-0.11033 -0.115531,-0.17119 -0.106104,-0.19247 -0.118651,-0.29812 -0.14736,-0.52059 -0.06244,-0.13619 -0.04052,-0.27544 -0.192773,-0.31622 0.05496,-0.21311 -0.110868,-0.14067 -0.117236,-0.14977 -0.02426,-0.0307 -0.08739,-0.20964 -0.106489,-0.26208 -0.0025,0.0193 -0.01453,0.041 -0.0072,0.0589 0.0045,0.0153 0.02859,0 0.02357,-0.0206 -0.02241,-0.0449 -0.06705,-0.068 -0.08888,-0.1128 -0.0052,-0.0153 0.03026,-0.0153 0.0242,-0.023 -0.01087,-0.018 -0.136592,-0.13349 -0.159328,-0.15311 -0.09257,-0.2008 -0.0145,-0.12434 -0.0573,-0.30121 -0.0168,-0.0693 -0.08872,-0.0898 -0.115664,-0.20939 -0.0021,-0.17029 0.01504,0.0321 -0.105321,-0.17914 -0.02306,-0.041 0.230515,0 0.01018,-0.12696 -0.108745,-0.068 0.02742,0.32776 -0.07484,-0.0487 0.01385,0.0333 -0.01684,-0.19246 -0.04997,-0.15604 -0.0022,0 0.0245,0.27709 -0.05867,0.018 -0.0105,-0.0333 0.02742,-0.10263 5.55e-4,-0.1077 -0.02719,0 -0.01797,0.0693 -0.02695,0.10262 0.112663,-0.4511 -0.05416,-0.16119 -0.0903,-0.29467 -0.01284,-0.0475 -0.0081,-0.10769 -0.03333,-0.14361 -0.01192,-0.018 -0.02316,0.0359 -0.03473,0.0552 -0.01192,-0.0474 -0.02388,-0.0949 -0.03581,-0.14361 -0.146492,-0.32236 0.543798,-0.86976 0.690288,-0.54727 l 0,0 c -0.0142,0 -0.02849,0.0154 -0.0427,0.0154 0.07959,0.0705 0.107265,0.0667 0.109964,0.22605 2.65e-4,0.0153 -0.03262,-0.0257 -0.03312,-0.0166 -0.0017,0.0589 0.110279,0.17631 0.10288,0.11542 -0.0059,-0.0448 -0.05085,-0.0641 -0.07627,-0.0975 0.0307,0.041 0.05398,0.0923 0.09209,0.12185 0.01605,0.0166 0.0436,-0.0372 0.05332,-0.0154 0.0097,0.0206 -0.03962,0.0333 -0.03483,0.0564 0.02924,0.14068 0.112519,0.13158 0.107025,0.25453 0.01597,0 0.03682,-0.018 0.04791,0 0.02994,0.041 0.03962,0.10263 0.06403,0.14965 0.02328,0.0462 0.160534,-0.082 0.08439,0.12055 0.0034,0.0154 -0.01399,0 -0.02097,0 0.0031,0.0475 0.0063,0.0936 0.0094,0.14207 0.07447,0.0846 0.08623,0.17797 0.144584,0.2789 0.0095,0.018 0.03195,0.0153 0.03887,0.0359 0.01668,0.0448 0.0208,0.0949 0.02831,0.14464 0.0012,0 -0.0061,-0.0166 -0.0092,-0.0217 0.04916,0.0782 -0.103426,-0.0154 0.05343,0.14962 0.01401,0.0154 -0.02251,-0.0718 -0.0047,-0.0705 0.0697,0 0.08164,0.19825 0.148184,0.19593 -0.107435,0.0309 -0.05505,-0.018 0.01425,0.05 0.05462,0.0539 0.06308,0.18156 0.139683,0.20233 0.01153,0.0576 0.01271,0.12185 0.03459,0.17414 0.01245,0.0307 0.0428,0.0372 0.06301,0.0589 0.109231,0.11412 0.159111,0.22234 0.21045,0.39122 0.01,0.0333 0.0205,0.0667 0.03074,0.0975 -0.116122,0.19311 0.04216,0.22247 0.0976,0.3612 0.02518,0.0616 0.02445,0.13913 0.04533,0.20517 0.220842,0.69434 -0.01403,-0.21567 0.166926,0.52791 0.182911,0.26851 0.19369,0.23056 0.284043,0.57793 0.02822,0.10901 0.02754,0.229 0.06257,0.33401 0.03238,0.0975 0.101466,0.16709 0.136397,0.26262 0.283634,0.77538 -0.172309,-0.19991 0.165192,0.48752 0.08129,0.33775 -0.641661,0.64164 -0.722955,0.30377 z"
       inkscape:connector-curvature="0" />
    <path
       style="opacity:1;fill:#000000;fill-opacity:1;stroke:#000000;stroke-width:0;stroke-miterlimit:4;stroke-dasharray:none;stroke-dashoffset:0;stroke-opacity:1"
       id="path4468"
       d="m 34.505035,961.16492 c 0.175025,-0.0206 0.347625,0.045 0.519511,0.0565 0.06974,0 0.139278,-0.0154 0.209096,-0.018 0.17895,0 0.21251,0 0.389577,0.0257 0.0754,0.0487 0.144546,0.12185 0.226219,0.14952 0.06982,0.023 0.145913,-0.0217 0.216164,-4e-4 0.07252,0.0217 0.133926,0.0859 0.201563,0.12564 0.187135,0.11281 0.339326,0.2357 0.505941,0.39623 0.08099,0.0898 0.191912,0.0833 0.280787,0.14644 0.04119,0.0269 0.07181,0.0782 0.111916,0.11032 0.0278,0.0217 0.06308,0.0243 0.09004,0.0475 0.12925,0.11281 -0.0037,0.0603 0.0934,0.0923 0.04658,0.0859 0.134315,0.068 0.192193,0.12302 0.0082,0 -0.0092,0.0359 5.47e-4,0.0398 0.01396,0 0.02432,-0.0333 0.0381,-0.0257 0.01,0 0.0099,0.0372 -4.21e-4,0.041 -0.01192,0 -0.01743,-0.023 -0.02614,-0.0346 0.04465,0.0282 0.08932,0.0552 0.133974,0.0859 0.0029,0.027 -0.0072,0.0653 0.0087,0.0833 0.02583,0.0321 0.07109,0.0153 0.09853,0.0423 0.03939,0.0386 0.0094,0.13155 0.09114,0.11281 0.02238,0.0269 0.04163,0.0603 0.06712,0.0833 0.05478,0.0474 0.125201,0.0564 0.18299,0.0987 0.09484,0.0693 0.177957,0.13349 0.261704,0.22452 0.07596,-0.0321 0.13218,0.13632 0.192118,0.14798 0.02401,0 0.04723,-0.0206 0.07157,-0.0206 0.0058,3.9e-4 -0.0049,0.0206 3.68e-4,0.023 0.03388,0.0193 0.071,0.023 0.106522,0.0346 0.0034,0.0923 0.09089,0.0475 0.116658,0.0962 0.02453,0.0448 0.02003,0.12695 0.05873,0.1513 0.26416,0.16593 -0.03167,-0.24441 0.133193,0 0.04547,0.11281 -0.0093,0.0154 0.08022,0.0705 0.03594,0.023 0.06063,0.0988 0.09986,0.0873 0.01559,0 -0.0507,-0.21875 -0.02506,-0.0859 0.05204,0.16887 0.179266,-0.0153 0.246578,0.0487 0.01879,0.018 -0.02096,0.0693 -0.006,0.0923 0.01127,0.018 0.03138,-0.0321 0.04839,-0.0257 0.05286,0.018 0.111051,0.0321 0.150031,0.0809 0.0146,0.018 -0.03324,0.0321 -0.04986,0.0462 -0.01817,-0.0166 -0.07588,-0.0512 -0.05432,-0.0474 0.15154,0.023 0.09007,0.0513 0.187312,0.13784 0.01956,0.0153 0.05055,0.0153 0.06537,0.0359 0.03946,0.0653 0.06583,0.1435 0.09009,0.21888 0.01826,0.0577 -0.04797,-0.10637 -0.07195,-0.16118 0.06885,0.068 0.218374,0.65216 0.139287,0.19517 -0.0131,-0.0756 -0.06317,0 -0.03895,-0.0552 -0.186883,0.26273 -0.329975,0.59561 -0.560648,0.78821 -0.05794,0.0475 -0.0582,-0.16453 -0.09269,-0.24248 -0.02148,-0.0487 -0.05657,-0.0873 -0.0747,-0.13784 -0.02512,-0.0705 -0.02826,-0.15286 -0.0534,-0.22364 -0.05779,-0.16272 -0.133794,-0.23003 -0.232818,-0.35301 -0.0099,-0.0999 -0.0033,-0.20374 -0.02948,-0.29736 -0.0052,-0.018 -0.222413,-0.43712 -0.234583,-0.46725 -0.03979,-0.0999 -0.05916,-0.21055 -0.101754,-0.30735 -0.03645,-0.0821 -0.227802,-0.36878 -0.272928,-0.4379 -0.160245,-0.57587 0.01503,0 -0.192679,-0.52907 -0.03108,-0.0782 -0.04187,-0.17143 -0.07974,-0.24478 -0.03394,-0.0666 -0.09632,-0.0999 -0.131273,-0.16439 -0.03128,-0.0576 -0.04215,-0.13168 -0.06324,-0.19657 -0.03476,-0.0576 -0.06949,-0.11412 -0.104261,-0.1731 -0.0573,-0.15131 -0.132995,-0.30236 -0.211157,-0.43712 -0.0073,-0.0154 -0.02302,-0.0154 -0.03089,-0.0243 -0.04469,-0.068 -0.04485,-0.0923 -0.06443,-0.17425 -0.08718,-0.0705 -0.06903,-0.23531 -0.122856,-0.32558 -0.02051,-0.0346 0.03264,0.12303 -1.19e-4,0.13156 -0.02606,0 -0.09856,-0.19002 -0.109414,-0.21683 -0.0549,-0.0859 -0.06453,-0.0629 -0.03544,-0.1899 0.0034,-0.0153 0.03138,-0.023 0.02315,-0.0346 -0.05072,-0.068 -0.03281,0.10637 -0.0683,0 -0.0099,-0.018 -0.02309,-0.018 -0.0296,-0.0321 -0.02166,-0.0474 -0.03046,-0.10508 -0.0535,-0.15129 -0.01739,-0.0359 -0.07851,-0.13023 -0.06619,-0.0911 0.01573,0.0487 0.09849,0.17041 0.07695,0.12564 -0.166171,-0.35109 -0.08087,-0.091 -0.142315,-0.29248 -0.01791,-0.0153 -0.03582,-0.0307 -0.05374,-0.045 -0.113306,-0.34839 0.632744,-0.77168 0.746045,-0.42329 l 0,0 c -0.02014,0.0217 -0.04026,0.045 -0.06038,0.0667 0.03414,0 0.09307,0.023 0.102504,-0.0217 0.0087,-0.041 -0.104818,-0.0949 -0.08477,-0.0629 0.147368,0.24607 0.265343,0.2076 0.139451,0.22183 -0.0201,0 -0.05621,-0.018 -0.06011,0 -0.004,0.0257 0.03503,0.0307 0.05254,0.0423 0.09789,0.11674 0.111969,0.25542 0.196078,0.39046 -0.07883,0.12053 0.01219,0.0474 0.14965,0.24054 0.14418,0.20208 -0.24269,-0.27555 -0.06805,0.0206 0.01517,0.0243 0.04236,0.0333 0.06351,0.0487 0.03648,0.0525 0.09118,0.0859 0.116935,0.14796 0.02819,0.0693 0.033,0.14965 0.05789,0.22094 0.003,0 0.01633,0 0.02124,0 0.07411,0.10262 0.09524,0.18247 0.145328,0.3107 0.10018,0.22991 0.03751,0.11411 0.196886,0.33736 0.03675,0.0718 0.05002,0.16131 0.08382,0.23618 0.03613,0.0782 0.08763,0.14618 0.125005,0.22416 0.07906,0.16656 0.131407,0.35326 0.218532,0.51366 0.271371,0.33712 0.09079,0.0475 0.240765,0.51278 0.115008,0.35724 0.331482,0.65088 0.399857,1.03594 0.03825,0.068 0.08422,0.12696 0.114773,0.20171 0.10109,0.24401 -0.0087,0.32108 0.233129,0.42969 0.02643,0.0153 -0.04753,-0.0398 -0.07131,-0.0576 -0.1615,0.27272 -0.323,0.54508 -0.484501,0.81782 -0.02167,-0.0321 -0.03499,-0.0718 -0.05842,-0.10123 -0.02159,-0.0257 -0.0596,-0.0321 -0.07279,-0.068 -0.02596,-0.0692 -0.07887,-0.27787 -0.03747,-0.22427 0.169768,0.21977 0.06302,0.44225 0.131448,0.28312 -0.04814,-0.0616 -0.08688,-0.14053 -0.144386,-0.18734 -0.03571,-0.0307 0.05431,0.0859 0.07615,0.1317 0.0037,0 -0.0087,0.0257 -0.0014,0.0307 0.01627,0 0.31258,-0.068 -0.04322,-0.0616 -0.03518,0 -0.09718,0.0359 -0.105536,-0.018 -0.0081,-0.0423 0.07417,-0.0154 0.0949,-0.0475 0.01219,-0.0217 -0.04177,7.7e-4 -0.05938,-0.0166 -0.02219,-0.0153 -0.03,-0.0756 -0.05473,-0.0693 -0.03236,0 -0.03957,0.23222 0.06682,0.0962 -0.205063,-0.0565 -0.308006,-0.13349 -0.464549,-0.22196 -0.153658,-0.0705 0.0041,0.0206 -0.13727,-0.12435 -0.0057,0 -0.01423,0 -0.02086,0 -0.0572,-0.0257 -0.102065,-0.10262 -0.165092,-0.10262 0.0269,-0.0782 0.0087,-6.4e-4 -0.08052,-0.0243 -0.02961,0 -0.235727,-0.30441 -0.307278,-0.24583 -0.15014,-0.018 -0.207988,-0.17374 -0.335258,-0.25464 -0.04715,-0.0307 -0.104808,-0.0307 -0.148024,-0.0693 -0.02315,-0.0217 -0.02542,-0.0666 -0.03811,-0.0988 -0.04193,-0.018 -0.0916,0 -0.125844,-0.0321 -0.02195,-0.0217 0.0046,-0.0795 -0.01402,-0.10769 -0.01653,-0.023 -0.04795,-0.0153 -0.07188,-0.0153 0.0075,0 0.02676,0.0359 0.02248,0.0243 -0.0094,-0.0257 -0.039,-0.0975 -0.03855,-0.0693 5.42e-4,0.0359 0.02595,0.0641 0.03894,0.0936 -0.03431,-0.023 -0.07176,-0.0386 -0.102911,-0.0693 -0.06824,-0.0667 -0.09016,-0.23285 -0.194713,-0.22401 -0.354435,-0.37545 0.14422,0.12696 -0.187726,-0.13348 -0.144294,-0.1128 -0.02384,-0.10123 -0.169167,-0.16298 -0.0417,-0.0166 -0.09145,0 -0.128765,-0.0359 -0.04506,-0.0359 -0.07065,-0.10391 -0.105964,-0.15632 -0.312738,-0.27158 0.110816,0.0769 -0.288397,-0.17592 -0.04803,-0.0321 -0.08357,-0.091 -0.132421,-0.11923 -0.05074,-0.0307 -0.109073,-0.027 -0.161548,-0.0514 -0.36165,-0.15938 0.04072,-0.0321 -0.267755,-0.12184 -0.06401,-0.018 -0.127258,-0.0359 -0.191956,-0.0398 -0.339145,-0.0154 -0.05651,0.0705 -0.405134,0 -0.06844,-0.0154 -0.133048,-0.0552 -0.202003,-0.064 -0.332186,-0.0359 -0.03947,0.10637 -0.313774,-0.0603 -0.2465,-0.023 -0.195809,-0.94503 0.05069,-0.9213 z"
       inkscape:connector-curvature="0" />
    <path
       style="opacity:1;fill:#000000;fill-opacity:1;stroke:#000000;stroke-width:0;stroke-miterlimit:4;stroke-dasharray:none;stroke-dashoffset:0;stroke-opacity:1"
       id="path4470"
       d="m 40.478207,956.12458 c 0.06385,0.21093 0.145716,0.49533 0.222069,0.67448 0.05866,0.13772 0.129997,0.24632 0.191035,0.37904 0.07436,0.16117 0.141347,0.33877 0.214862,0.50226 0.07248,0.16117 0.154664,0.30119 0.222999,0.47084 0.07126,0.17708 0.129669,0.37751 0.194504,0.56624 0.223388,0.3638 0.436351,0.76142 0.636428,1.18662 0.04994,0.1077 0.0919,0.23068 0.144879,0.32915 0.242874,0.37738 0.134339,0.18363 0.329459,0.57087 0.07982,0.27159 0.212894,0.38187 0.315494,0.59652 0.02103,0.0448 0.03259,0.109 0.05592,0.14617 0.02248,0.0359 0.05167,0.0448 0.07752,0.0692 0.02947,0.0525 0.05893,0.10508 0.08839,0.15797 -0.0078,0 -0.01575,0 -0.02361,0.0166 0.15427,0.29941 -0.228866,1.26366 -0.383136,0.96425 l 0,0 c -0.02794,-0.0474 -0.0559,-0.0935 -0.08384,-0.14194 0.03185,-0.12054 -0.08888,-0.17862 -0.11138,-0.2117 -0.183774,-0.26813 0.01746,-0.0539 -0.174488,-0.47355 -0.03688,-0.0795 -0.08921,-0.11922 -0.133815,-0.17695 -0.314054,-0.79346 0.116122,0.2289 -0.304528,-0.53418 -0.06302,-0.11412 -0.104122,-0.27915 -0.164511,-0.4002 -0.06545,-0.13155 -0.144559,-0.22581 -0.21143,-0.3534 -0.07261,-0.13785 -0.137496,-0.29632 -0.206241,-0.4443 -0.08389,-0.15618 -0.167761,-0.31222 -0.25164,-0.46842 -0.07704,-0.1463 -0.159199,-0.28093 -0.231154,-0.43968 -0.428179,-0.94452 0.0045,-0.0999 -0.385965,-1.0698 -0.06209,-0.15464 -0.142206,-0.26901 -0.207135,-0.41776 -0.306466,-0.70115 2.21e-4,-0.17106 -0.340681,-0.70256 -0.126341,-0.40621 0.393592,-1.19595 0.519938,-0.78987 z"
       inkscape:connector-curvature="0" />
    <path
       style="opacity:1;fill:#000000;fill-opacity:1;stroke:#000000;stroke-width:0;stroke-miterlimit:4;stroke-dasharray:none;stroke-dashoffset:0;stroke-opacity:1"
       id="path4472"
       d="m 37.899459,958.68193 c 0.02584,-0.0589 0.04156,-0.12826 0.07749,-0.17849 0.05385,-0.0744 0.124495,-0.12434 0.186624,-0.18708 0.07417,-0.0744 0.147839,-0.14964 0.222248,-0.22427 0.286919,-0.28581 0.557702,-0.4997 0.865717,-0.74333 0.159803,-0.23376 0.410456,-0.28697 0.591628,-0.47521 0.09415,-0.0988 0.1502,-0.24927 0.24384,-0.34801 0.08969,-0.0962 0.204143,-0.14208 0.299655,-0.22516 0.159792,-0.14067 0.301593,-0.31377 0.454194,-0.4679 0.268781,-0.30749 0.06496,-0.0809 0.306961,-0.33211 0.0423,-0.0436 0.07841,-0.0999 0.125608,-0.13348 0.03882,-0.0269 0.09212,-0.0154 0.127533,-0.0487 0.01992,-0.0206 0.01167,-0.0653 0.01872,-0.0948 0.0061,-0.0257 0.01368,-0.0552 0.02049,-0.0809 0.07868,-0.0745 0.170273,-0.26761 0.286478,-0.20132 0.01945,0.0154 -0.04544,0 -0.06156,0.0217 0.159278,0.12316 0.07754,-0.13023 0.13432,-0.15298 0.01681,0 0.05925,0.0154 0.04668,0.0321 -0.04081,0.0539 -0.10123,0.068 -0.151836,0.10262 0.111013,-0.21542 0.576856,0.19529 0.465836,0.41084 l 0,0 c -0.157487,0.21631 -0.186678,0.21837 -0.08684,0.12892 -0.01905,0.0321 -0.03159,0.0705 -0.05716,0.0923 -0.03036,0.0243 -0.06784,0.0333 -0.103286,0.041 -0.0046,5.2e-4 -0.01007,-0.018 -0.0059,-0.018 0.01896,-0.0166 0.07514,-0.027 0.0603,-0.0166 -0.01594,0.0206 -0.04283,0.0166 -0.06424,0.0166 -0.01411,0.023 -0.02824,0.0475 -0.04233,0.0705 -0.09578,0.10262 -0.04299,0.0372 -0.149794,0.204 -0.06583,0.0718 -0.167518,0.0705 -0.226528,0.15798 -0.378525,0.42367 0.189754,-0.0576 -0.320647,0.34096 -0.07731,0.0782 -0.156622,0.15271 -0.231941,0.23414 -0.07886,0.0859 -0.149107,0.18387 -0.230339,0.26506 -0.08744,0.0872 -0.184481,0.15796 -0.274599,0.24028 -0.100855,0.0923 -0.195151,0.19734 -0.298207,0.28582 -0.09948,0.0859 -0.209542,0.1481 -0.308558,0.23452 -0.0996,0.0873 -0.190796,0.18901 -0.286197,0.28351 -0.340867,0.2934 -0.701135,0.56677 -0.998981,0.93669 -0.04841,0.0603 -0.08295,0.13773 -0.13222,0.19659 -0.03333,0.0397 -0.07564,0.0641 -0.113449,0.0975 -0.127678,0.18041 -0.517439,-0.29224 -0.389753,-0.47251 z"
       inkscape:connector-curvature="0" />
    <path
       inkscape:connector-curvature="0"
       d="m 37.100901,985.43245 c 0.119312,-0.10123 0.238623,-0.20246 0.357936,-0.30377 0.161166,-0.15772 0.314354,-0.32436 0.483497,-0.47325 0.237712,-0.20924 0.502362,-0.38598 0.735856,-0.60003 0.291317,-0.26708 0.55516,-0.56367 0.836467,-0.84164 1.007445,-0.99549 1.088926,-1.056 2.167856,-2.06214 1.49458,-1.31283 2.913941,-2.70527 4.493959,-3.91584 0.612903,-0.46962 1.270501,-0.8773 1.87978,-1.35173 6.710727,-5.22575 -3.030867,2.07706 3.764946,-2.97653 0.566828,-0.44894 1.109361,-0.93142 1.700482,-1.34675 0.538546,-0.37833 1.13764,-0.66103 1.682456,-1.02997 0.481687,-0.32625 0.925435,-0.70695 1.393423,-1.05316 0.405456,-0.29991 0.821643,-0.58474 1.226749,-0.88511 3.77712,-2.80113 -1.407333,0.98823 1.883254,-1.41019 0.640008,-0.46236 1.283738,-0.9128 1.886485,-1.42463 0.139386,-0.11835 0.260124,-0.26203 0.41417,-0.35987 0.928234,-0.58939 0.01579,0.22361 0.710151,-0.44421 0.195053,-0.14888 0.430115,-0.21934 0.644004,-0.33099 0.11762,-0.0615 0.198952,-0.11906 0.322774,-0.16277 0.153371,-0.0576 0.08652,-0.045 0.196146,-0.0576 0.33429,-0.0773 0.549205,0.88353 0.214916,0.9607 l 0,0 c -0.03958,0.0229 -0.02234,0.0253 -0.04897,-0.0189 -0.147715,0.16546 -0.266141,0.0387 -0.412234,0.14305 -0.05666,0.0402 -0.08101,0.11937 -0.140279,0.15583 -0.0825,0.0505 -0.181802,0.0655 -0.272703,0.098 -0.07598,0.0946 -0.135396,0.20593 -0.227941,0.28381 -0.0788,0.0663 -0.835674,0.48863 -0.876433,0.51459 -0.655354,0.41762 -1.258929,0.91722 -1.883586,1.37839 -0.315224,0.17745 -0.645619,0.32965 -0.945672,0.53242 -0.354652,0.2397 -0.668236,0.53732 -1.012995,0.79145 -0.407282,0.3003 -0.834432,0.57203 -1.24239,0.8713 -0.469768,0.34472 -0.910509,0.73015 -1.390272,1.06027 -0.537317,0.36981 -1.121794,0.66553 -1.657756,1.03731 -0.592127,0.41075 -1.148746,0.87193 -1.723118,1.30793 -0.646288,0.4592 -1.303043,0.90357 -1.938862,1.37769 -0.642117,0.47869 -1.262428,0.98697 -1.893962,1.48002 -0.602647,0.47048 -1.218662,0.92384 -1.80858,1.41066 -1.518453,1.25326 -2.946137,2.6225 -4.377854,3.97486 -0.71495,0.69377 -1.445216,1.37137 -2.149557,2.07619 -0.279968,0.28017 -0.532118,0.58883 -0.819835,0.8608 -0.22668,0.21422 -0.49435,0.38062 -0.720657,0.59531 -1.803517,1.71072 0.324354,-0.15441 -0.734192,0.76313 -0.217424,0.25776 -0.934884,-0.36713 -0.717461,-0.62482 z"
       id="path4474"
       style="opacity:1;fill:#000000;fill-opacity:1;stroke:#000000;stroke-width:0;stroke-miterlimit:4;stroke-dasharray:none;stroke-dashoffset:0;stroke-opacity:1" />
    <path
       style="opacity:1;fill:#000000;fill-opacity:1;stroke:#000000;stroke-width:0;stroke-miterlimit:4;stroke-dasharray:none;stroke-dashoffset:0;stroke-opacity:1"
       id="path4476"
       d="m 36.848363,1001.0898 c 0.119312,-0.1012 0.238623,-0.2024 0.357936,-0.3038 0.161166,-0.1577 0.314354,-0.3243 0.483497,-0.4732 0.237712,-0.2092 0.502362,-0.38599 0.735856,-0.60004 0.291317,-0.26708 0.55516,-0.56367 0.836467,-0.84164 1.007445,-0.99549 1.088926,-1.056 2.167856,-2.06214 1.49458,-1.31283 2.913941,-2.70527 4.493959,-3.91584 0.612903,-0.46962 1.270501,-0.8773 1.87978,-1.35173 6.710727,-5.22575 -3.030867,2.07706 3.764946,-2.97653 0.566828,-0.44894 1.109361,-0.93142 1.700482,-1.34675 0.538546,-0.37833 1.13764,-0.66103 1.682456,-1.02997 0.481687,-0.32625 0.925435,-0.70695 1.393423,-1.05316 0.405456,-0.29991 0.821643,-0.58474 1.226749,-0.88511 3.77712,-2.80113 -1.407333,0.98823 1.883254,-1.41019 0.640008,-0.46236 1.283738,-0.9128 1.886485,-1.42463 0.139386,-0.11835 0.260124,-0.26203 0.41417,-0.35987 0.928234,-0.58939 0.01579,0.22361 0.710151,-0.44421 0.195053,-0.14888 0.430115,-0.21934 0.644004,-0.33099 0.11762,-0.0615 0.198952,-0.11906 0.322774,-0.16277 0.153371,-0.0576 0.08652,-0.045 0.196146,-0.0576 0.33429,-0.0773 0.549205,0.88353 0.214916,0.9607 l 0,0 c -0.03958,0.0229 -0.02234,0.0253 -0.04897,-0.0189 -0.147715,0.16546 -0.266141,0.0387 -0.412234,0.14305 -0.05666,0.0402 -0.08101,0.11937 -0.140279,0.15583 -0.0825,0.0505 -0.181802,0.0655 -0.272703,0.098 -0.07598,0.0946 -0.135396,0.20593 -0.227941,0.28381 -0.0788,0.0663 -0.835674,0.48863 -0.876433,0.51459 -0.655354,0.41762 -1.258929,0.91722 -1.883586,1.37839 -0.315224,0.17745 -0.645619,0.32965 -0.945672,0.53242 -0.354652,0.2397 -0.668236,0.53732 -1.012995,0.79145 -0.407282,0.3003 -0.834432,0.57203 -1.24239,0.8713 -0.469768,0.34472 -0.910509,0.73015 -1.390272,1.06027 -0.537317,0.36981 -1.121794,0.66553 -1.657756,1.03731 -0.592127,0.41075 -1.148746,0.87193 -1.723118,1.30793 -0.646288,0.4592 -1.303043,0.90357 -1.938862,1.37769 -0.642117,0.47869 -1.262428,0.98697 -1.893962,1.48002 -0.602647,0.47048 -1.218662,0.92384 -1.80858,1.41066 -1.518453,1.25326 -2.946137,2.6225 -4.377854,3.97486 -0.71495,0.69377 -1.445216,1.37137 -2.149557,2.07619 -0.279968,0.28017 -0.532118,0.5888 -0.819835,0.8608 -0.22668,0.2142 -0.49435,0.3806 -0.720657,0.5953 -1.803517,1.7107 0.324354,-0.1544 -0.734192,0.7631 -0.217424,0.2578 -0.934884,-0.3671 -0.717461,-0.6248 z"
       inkscape:connector-curvature="0" />
    <path
       inkscape:connector-curvature="0"
       d="m 31.292524,1020.2827 c 0.119312,-0.1012 0.238623,-0.2024 0.357936,-0.3038 0.161166,-0.1577 0.314354,-0.3243 0.483497,-0.4732 0.237712,-0.2092 0.502362,-0.386 0.735856,-0.6 0.291317,-0.2671 0.55516,-0.5637 0.836467,-0.8417 1.007445,-0.9955 1.088926,-1.056 2.167856,-2.0621 1.49458,-1.3129 2.913941,-2.7053 4.493959,-3.9159 0.612903,-0.4696 1.270501,-0.8773 1.87978,-1.3517 6.710727,-5.2257 -3.030867,2.0771 3.764946,-2.9765 0.566828,-0.449 1.109361,-0.9314 1.700482,-1.3468 0.538546,-0.3783 1.13764,-0.661 1.682456,-1.0299 0.481687,-0.3263 0.925435,-0.707 1.393423,-1.0532 0.405456,-0.2999 0.821643,-0.5847 1.226749,-0.8851 3.77712,-2.8011 -1.407333,0.9882 1.883254,-1.4102 0.640008,-0.4624 1.283738,-0.9128 1.886485,-1.4246 0.139386,-0.1184 0.260124,-0.2621 0.41417,-0.3599 0.928234,-0.58939 0.01579,0.2236 0.710151,-0.44421 0.195053,-0.14888 0.430115,-0.21934 0.644004,-0.33099 0.11762,-0.0615 0.198952,-0.11906 0.322774,-0.16277 0.153371,-0.0576 0.08652,-0.045 0.196146,-0.0576 0.33429,-0.0773 0.549205,0.88357 0.214916,0.96067 l 0,0 c -0.03958,0.023 -0.02234,0.025 -0.04897,-0.019 -0.147715,0.1655 -0.266141,0.039 -0.412234,0.1431 -0.05666,0.04 -0.08101,0.1193 -0.140279,0.1558 -0.0825,0.05 -0.181802,0.066 -0.272703,0.098 -0.07598,0.095 -0.135396,0.2059 -0.227941,0.2838 -0.0788,0.066 -0.835674,0.4886 -0.876433,0.5146 -0.655354,0.4176 -1.258929,0.9172 -1.883586,1.3784 -0.315224,0.1774 -0.645619,0.3296 -0.945672,0.5324 -0.354652,0.2397 -0.668236,0.5373 -1.012995,0.7915 -0.407282,0.3003 -0.834432,0.572 -1.24239,0.8713 -0.469768,0.3447 -0.910509,0.7301 -1.390272,1.0602 -0.537317,0.3698 -1.121794,0.6656 -1.657756,1.0373 -0.592127,0.4108 -1.148746,0.872 -1.723118,1.308 -0.646288,0.4592 -1.303043,0.9035 -1.938862,1.3777 -0.642117,0.4787 -1.262428,0.9869 -1.893962,1.48 -0.602647,0.4705 -1.218662,0.9238 -1.80858,1.4106 -1.518453,1.2533 -2.946137,2.6225 -4.377854,3.9749 -0.71495,0.6938 -1.445216,1.3714 -2.149557,2.0762 -0.279968,0.2802 -0.532118,0.5888 -0.819835,0.8608 -0.22668,0.2142 -0.49435,0.3806 -0.720657,0.5953 -1.803517,1.7107 0.324354,-0.1544 -0.734192,0.7631 -0.217424,0.2578 -0.934884,-0.3671 -0.717461,-0.6248 z"
       id="path4478"
       style="opacity:1;fill:#000000;fill-opacity:1;stroke:#000000;stroke-width:0;stroke-miterlimit:4;stroke-dasharray:none;stroke-dashoffset:0;stroke-opacity:1" />
    <path
       style="opacity:1;fill:#000000;fill-opacity:1;stroke:#000000;stroke-width:0;stroke-miterlimit:4;stroke-dasharray:none;stroke-dashoffset:0;stroke-opacity:1"
       id="path4480"
       d="m 29.777295,1036.1926 c 0.119312,-0.1012 0.238623,-0.2024 0.357936,-0.3038 0.161166,-0.1577 0.314354,-0.3243 0.483497,-0.4732 0.237712,-0.2092 0.502362,-0.386 0.735856,-0.6 0.291317,-0.2671 0.55516,-0.5637 0.836467,-0.8417 1.007445,-0.9955 1.088926,-1.056 2.167856,-2.0621 1.49458,-1.3129 2.913941,-2.7053 4.493959,-3.9159 0.612903,-0.4696 1.270501,-0.8773 1.87978,-1.3517 6.710727,-5.2257 -3.030867,2.0771 3.764946,-2.9765 0.566828,-0.449 1.109361,-0.9314 1.700482,-1.3468 0.538546,-0.3783 1.13764,-0.661 1.682456,-1.0299 0.481687,-0.3263 0.925435,-0.707 1.393423,-1.0532 0.405456,-0.2999 0.821643,-0.5847 1.226749,-0.8851 3.77712,-2.8011 -1.407333,0.9882 1.883254,-1.4102 0.640008,-0.4624 1.283738,-0.9128 1.886485,-1.4246 0.139386,-0.1184 0.260124,-0.2621 0.41417,-0.3599 0.928234,-0.5894 0.01579,0.2236 0.710151,-0.4442 0.195053,-0.1489 0.430115,-0.2193 0.644004,-0.331 0.11762,-0.062 0.198952,-0.1191 0.322774,-0.1628 0.153371,-0.058 0.08652,-0.045 0.196146,-0.058 0.33429,-0.077 0.549205,0.8836 0.214916,0.9607 l 0,0 c -0.03958,0.023 -0.02234,0.025 -0.04897,-0.019 -0.147715,0.1655 -0.266141,0.039 -0.412234,0.1431 -0.05666,0.04 -0.08101,0.1193 -0.140279,0.1558 -0.0825,0.05 -0.181802,0.066 -0.272703,0.098 -0.07598,0.095 -0.135396,0.2059 -0.227941,0.2838 -0.0788,0.066 -0.835674,0.4886 -0.876433,0.5146 -0.655354,0.4176 -1.258929,0.9172 -1.883586,1.3784 -0.315224,0.1774 -0.645619,0.3296 -0.945672,0.5324 -0.354652,0.2397 -0.668236,0.5373 -1.012995,0.7915 -0.407282,0.3003 -0.834432,0.572 -1.24239,0.8713 -0.469768,0.3447 -0.910509,0.7301 -1.390272,1.0602 -0.537317,0.3698 -1.121794,0.6656 -1.657756,1.0373 -0.592127,0.4108 -1.148746,0.872 -1.723118,1.308 -0.646288,0.4592 -1.303043,0.9035 -1.938862,1.3777 -0.642117,0.4787 -1.262428,0.9869 -1.893962,1.48 -0.602647,0.4705 -1.218662,0.9238 -1.80858,1.4106 -1.518453,1.2533 -2.946137,2.6225 -4.377854,3.9749 -0.71495,0.6938 -1.445216,1.3714 -2.149557,2.0762 -0.279968,0.2802 -0.532118,0.5888 -0.819835,0.8608 -0.22668,0.2142 -0.49435,0.3806 -0.720657,0.5953 -1.803517,1.7107 0.324354,-0.1544 -0.734192,0.7631 -0.217424,0.2578 -0.934884,-0.3671 -0.717461,-0.6248 z"
       inkscape:connector-curvature="0" />
    <path
       style="opacity:1;fill:#cee4e4;fill-opacity:1;stroke:#000000;stroke-width:0;stroke-miterlimit:4;stroke-dasharray:none;stroke-dashoffset:0;stroke-opacity:1"
       d="m 29.779879,94.208733 c -2.121014,-1.536454 -2.54645,-2.394779 -2.995757,-6.043986 -0.741589,-6.023075 0.369884,-12.299664 4.180199,-23.605961 3.826292,-11.353703 5.084093,-17.816028 4.727435,-24.288595 -0.224494,-4.074076 -0.804019,-5.557975 -2.85687,-7.315139 -2.107645,-1.804065 -4.14035,-2.13907 -9.014327,-1.485627 -2.160715,0.289682 -3.961363,0.494611 -4.001442,0.455396 -0.198605,-0.194322 6.616713,-6.018566 10.07287,-8.608086 5.841474,-4.376717 17.922695,-12.778587 21.17805,-14.7282485 1.518637,-0.9095261 3.647179,-1.4276084 7.865725,-1.9145009 3.72415,-0.429831 5.193915,-0.064548 6.941558,1.7251997 1.612146,1.6509887 2.050382,3.5465497 2.050382,8.8687887 0,5.072337 -1.012757,9.945012 -3.927825,18.897955 -4.319547,13.266461 -4.966133,16.2499 -5.036236,23.237922 -0.04002,3.989596 0.304671,6.428035 1.078628,7.630393 0.246768,0.383357 -0.06811,0.793532 -1.259303,1.640439 -0.873586,0.6211 -3.914472,3.250853 -6.757518,5.843896 l -5.169175,4.714625 0,5.288547 c 0,4.910564 -0.05815,5.375282 -0.813624,6.502078 -1.209487,1.803961 -3.859538,3.063929 -7.782336,3.700111 -5.19289,0.842161 -6.736064,0.748407 -8.480434,-0.515207 z m 4.880365,-13.505204 c 2.288173,-2.120389 4.963886,-4.509975 5.946029,-5.310182 2.11842,-1.726003 15.764236,-11.44645 16.336707,-11.637271 0.51875,-0.172918 0.01371,-0.983004 -0.612843,-0.983004 -0.517485,0 -5.895804,3.862907 -16.065004,11.538482 -3.003664,2.267129 -10.551717,9.253572 -10.551717,9.766625 0,0.99029 0.896397,0.378779 4.946828,-3.37465 z m 1.307318,-15.730675 c 4.109805,-3.950932 9.213107,-7.94961 17.837743,-13.976721 4.465157,-3.120361 5.22405,-3.867747 4.255211,-4.190693 -0.402593,-0.1342 -7.855806,5.180064 -15.132814,10.789939 -5.969021,4.601547 -12.021646,10.2213 -11.652284,10.81894 0.146227,0.2366 0.35563,0.430182 0.46534,0.430182 0.10971,0 2.011772,-1.74224 4.226804,-3.871647 z M 41.83646,45.529201 c 4.678982,-4.511096 9.626894,-8.335035 19.387185,-14.983167 1.654725,-1.127098 2.763285,-2.130425 2.767857,-2.505105 0.0042,-0.34375 -0.12829,-0.625 -0.294415,-0.625 -0.395335,0 -8.937203,6.163136 -15.091021,10.888487 -5.338028,4.098928 -11.749793,9.967078 -11.749793,10.753595 0,1.038147 0.917779,0.387836 4.980187,-3.52881 z m 0.382914,-15.797476 c 4.634107,-4.381157 10.128127,-8.624886 18.823353,-14.539668 3.14906,-2.142095 4.008771,-3.133271 2.717689,-3.133271 -0.327721,0 -1.733971,0.834165 -3.125,1.8537 -1.391029,1.019535 -3.975572,2.895454 -5.743429,4.16871 -11.032936,7.946205 -19.626785,15.763305 -17.32963,15.763305 0.168732,0 2.26439,-1.85075 4.657017,-4.112776 z"
       id="path4482"
       inkscape:connector-curvature="0"
       transform="translate(0,952.36216)" />
    <path
       style="opacity:1;fill:#f0fafa;fill-opacity:1;stroke:#000000;stroke-width:0;stroke-miterlimit:4;stroke-dasharray:none;stroke-dashoffset:0;stroke-opacity:1"
       d="m 13.99913,42.573559 c 0,-5.32858 0.838471,-6.905365 4.481394,-8.427476 2.558862,-1.069161 11.251319,-2.118763 11.222935,-1.355154 -0.0055,0.147322 -1.324945,1.232143 -2.932154,2.410715 -3.339443,2.448824 -6.86938,5.414965 -10.3584,8.703974 l -2.413775,2.275403 0,-3.607462 z"
       id="path4484"
       inkscape:connector-curvature="0"
       transform="translate(0,952.36216)" />
    <path
       style="opacity:1;fill:#f0fafa;fill-opacity:1;stroke:#000000;stroke-width:0;stroke-miterlimit:4;stroke-dasharray:none;stroke-dashoffset:0;stroke-opacity:1"
       d="m 48.351346,84.765436 0.02464,-4.920935 4.866438,-4.551814 c 4.776536,-4.467725 10.428234,-8.978956 16.225665,-12.951457 1.608143,-1.101928 4.691754,-3.213043 6.852468,-4.691368 l 3.928571,-2.687864 0.101275,4.213342 c 0.06143,2.555818 -0.05744,4.596514 -0.302173,5.187348 -0.349061,0.842709 -7.383689,6.274335 -12.899785,9.960273 -3.433265,2.294159 -12.599924,9.546846 -15.539101,12.294581 l -3.282642,3.068829 0.02464,-4.920935 z"
       id="path4486"
       inkscape:connector-curvature="0"
       transform="translate(0,952.36216)" />
    <path
       style="opacity:0.184;fill:#000000;fill-opacity:1;stroke:#000000;stroke-width:1;stroke-miterlimit:4;stroke-dasharray:none;stroke-dashoffset:0;stroke-opacity:1"
       d="m 48.284844,84.861495 0,-4.855832 3.482143,-3.332845 c 6.29342,-6.023589 11.173454,-9.945814 19.017858,-15.285207 1.866071,-1.270165 4.706871,-3.221799 6.312888,-4.336965 1.606018,-1.115166 3.012268,-2.027574 3.125,-2.027574 0.394095,0 0.207188,8.532948 -0.206809,9.441573 -0.418184,0.917815 -3.473171,3.298394 -11.195365,8.723918 -3.95846,2.781168 -6.296054,4.537345 -12.096411,9.087737 -1.204117,0.944633 -3.595554,3.005305 -5.314304,4.57927 l -3.125,2.861756 0,-4.855831 z"
       id="path4488"
       inkscape:connector-curvature="0"
       transform="translate(0,952.36216)" />
    <path
       style="opacity:0.133;fill:#000000;fill-opacity:1;stroke:#000000;stroke-width:0.35714287;stroke-miterlimit:4;stroke-dasharray:none;stroke-dashoffset:0;stroke-opacity:1"
       d="m 13.99913,42.543885 c 0,-4.544344 0.54498,-6.033368 2.740443,-7.487582 0.880074,-0.582937 2.711704,-1.312706 4.070289,-1.62171 3.004103,-0.683269 8.906811,-1.145874 8.895339,-0.697143 -0.0045,0.176735 -1.732197,1.628275 -3.839285,3.225644 -2.10709,1.597369 -5.639107,4.536518 -7.848929,6.531442 l -4.017857,3.627135 0,-3.577786 z"
       id="path4490"
       inkscape:connector-curvature="0"
       transform="translate(0,952.36216)" />
    <path
       style="opacity:0.075;fill:#000000;fill-opacity:1;stroke:#000000;stroke-width:0.17857143;stroke-miterlimit:4;stroke-dasharray:none;stroke-dashoffset:0;stroke-opacity:1"
       d="m 31.126875,95.133945 c -0.851483,-0.275402 -3.057805,-1.972171 -3.402908,-2.617003 -0.293661,-0.548711 1.73996,-8.696709 2.060993,-8.25767 0.134881,0.184459 0.339168,0.245262 0.573819,0.170787 0.200404,-0.06361 1.881781,-1.571248 3.736393,-3.350314 1.854612,-1.779068 4.077692,-3.825739 4.940177,-4.548159 1.677944,-1.405452 7.191922,-5.539914 8.521131,-6.389271 0.441964,-0.282413 1.526785,-1.049963 2.410714,-1.705668 0.883928,-0.655704 2.089286,-1.516297 2.678571,-1.912427 0.589286,-0.396132 1.745006,-1.173912 2.568265,-1.728404 0.82326,-0.554491 1.566564,-1.008164 1.651785,-1.008164 0.251104,0 0.177122,-0.652155 -0.10008,-0.882211 -0.329827,-0.273732 -1.002786,0.05693 -2.691398,1.322449 -4.044427,3.031059 -5.75155,4.27458 -7.081116,5.158105 -0.819672,0.544688 -2.253706,1.606916 -3.186741,2.360509 -0.933036,0.753591 -2.612179,2.053364 -3.73143,2.888384 -2.260652,1.686566 -4.077879,3.272432 -7.773963,6.784223 -1.368202,1.299982 -2.518866,2.332379 -2.55703,2.294214 -0.03816,-0.03816 0.616578,-2.752055 1.454983,-6.030869 1.204258,-4.709581 1.782304,-6.613448 2.75263,-9.066132 l 1.228256,-3.104656 2.304348,-2.139135 c 3.157287,-2.93092 8.669427,-7.277849 11.631147,-9.172438 0.526709,-0.336932 1.737403,-1.197011 2.690428,-1.911286 0.953025,-0.714275 1.909195,-1.392934 2.12482,-1.508132 0.624443,-0.333611 4.082468,-2.843316 4.332044,-3.144037 0.269436,-0.324652 0.125699,-0.813274 -0.239241,-0.813274 -0.326685,0 -2.179171,1.267611 -5.377707,3.679833 -1.375,1.036976 -3.142857,2.312496 -3.928571,2.834489 -0.785714,0.521993 -2.151786,1.518811 -3.035714,2.215153 -0.883929,0.696342 -2.571429,2.004354 -3.75,2.906693 -1.178572,0.90234 -2.966518,2.355627 -3.973215,3.229531 -1.006696,0.873901 -1.830357,1.54655 -1.830357,1.494773 0,-0.05178 1.391422,-3.620241 3.092049,-7.929916 l 3.092048,-7.835773 1.997983,-3.109891 c 1.944322,-3.026368 2.044431,-3.145861 3.727411,-4.449177 2.350025,-1.819881 4.4884,-3.384838 6.304795,-4.614123 0.834821,-0.564984 2.3391,-1.62624 3.342841,-2.358347 1.003741,-0.732105 2.356771,-1.692709 3.006736,-2.134673 2.671185,-1.816363 3.29328,-2.32227 3.29328,-2.678202 0,-0.483632 -0.621236,-0.461955 -1.428571,0.04985 -0.34375,0.217917 -2.191965,1.565961 -4.107143,2.995654 -1.915179,1.429695 -4.044643,2.972182 -4.732143,3.427754 -1.319334,0.874255 -2.424807,1.713943 -4.646529,3.529376 -0.74566,0.609302 -1.385171,1.078395 -1.421137,1.042431 -0.03596,-0.03597 0.726291,-2.991422 1.693902,-6.567681 1.142648,-4.223185 1.867357,-7.275426 2.067598,-8.708052 l 0.308303,-2.205762 1.177504,-0.862928 c 0.647625,-0.47461 1.78018,-1.273506 2.516787,-1.775323 0.736608,-0.501818 2.041309,-1.417619 2.899338,-2.035112 0.858028,-0.617493 2.090525,-1.484323 2.738878,-1.926287 3.256349,-2.219758 3.743224,-2.69457 3.039811,-2.964495 -0.434269,-0.166645 -1.677818,0.607603 -5.18473,3.228079 -1.872206,1.398971 -3.966511,2.912551 -4.654011,3.36351 -0.6875,0.450959 -1.470982,0.991228 -1.741071,1.200596 -0.603924,0.468151 -0.598997,0.568889 -0.12867,-2.630395 0.29937,-2.036398 1.244741,-9.4414467 1.244741,-9.7500059 0,-0.2876875 5.403868,-1.0162847 7.72365,-1.0413704 1.536997,-0.016621 1.85338,0.035903 2.694184,0.4472698 1.284238,0.6283186 3.074936,2.3910521 3.322757,3.2708655 0.731763,2.597902 0.890263,9.29799 0.303331,12.822375 -0.565713,3.396968 -1.686808,7.48405 -3.698177,13.482143 -1.733559,5.169639 -2.387704,7.363907 -3.832906,12.857142 -0.696426,2.647131 -1.024637,5.417359 -1.111769,9.38375 -0.104315,4.748518 0.174446,6.799931 1.111702,8.181052 l 0.436239,0.642836 -0.840577,0.571632 c -1.747905,1.188656 -5.163979,4.138745 -10.548807,9.109848 l -2.208229,2.03857 0.02962,5.080798 0.02962,5.0808 -0.58925,1.160715 c -0.659941,1.299962 -1.640531,2.158175 -3.446393,3.016283 -2.511345,1.193343 -9.964607,2.162524 -11.876033,1.544295 z"
       id="path4494"
       inkscape:connector-curvature="0"
       transform="translate(0,952.36216)" />
    <path
       style="opacity:0.075;fill:#000000;fill-opacity:1;stroke:#000000;stroke-width:0.17857143;stroke-miterlimit:4;stroke-dasharray:none;stroke-dashoffset:0;stroke-opacity:1"
       d="M 31.221237,95.165367 30.510994,94.939193 31.267297,94.1187 c 0.415966,-0.451269 2.182004,-2.841567 3.924528,-5.311775 2.342173,-3.320267 4.169245,-6.208585 7.007512,-11.077785 l 3.839285,-6.586504 1.064702,-0.686421 c 0.585586,-0.377531 1.831122,-1.25394 2.767857,-1.947575 0.936736,-0.693636 2.185299,-1.585943 2.774584,-1.982907 0.589286,-0.396963 1.745006,-1.175425 2.568265,-1.729917 0.82326,-0.554491 1.566564,-1.008164 1.651785,-1.008164 0.251104,0 0.177122,-0.652155 -0.10008,-0.882211 -0.365582,-0.303407 -0.979463,0.05002 -4.030684,2.320609 -4.618704,3.437034 -5.260033,3.896808 -5.333335,3.823506 -0.0397,-0.0397 0.05196,-0.261652 0.203687,-0.493222 0.205954,-0.314325 0.424515,-2.182625 0.862366,-7.371643 0.322571,-3.822835 0.636968,-6.972626 0.698661,-6.999533 0.06169,-0.02691 1.074285,-0.758568 2.250208,-1.625909 1.175924,-0.867341 2.310852,-1.669468 2.522061,-1.782504 0.620004,-0.331816 4.076625,-2.84202 4.324014,-3.140105 0.269436,-0.324652 0.125699,-0.813274 -0.239241,-0.813274 -0.315726,0 -2.097751,1.211074 -5.268542,3.580527 -1.314959,0.982638 -2.424645,1.752802 -2.46597,1.711477 -0.04133,-0.04132 1.926962,-2.684221 4.373971,-5.873107 l 4.449107,-5.797972 1.665079,-5.431026 1.665079,-5.431026 0.771426,-0.581524 c 0.886833,-0.668518 1.042684,-1.284491 0.325,-1.284491 -0.245535,0 -0.446428,-0.05225 -0.446428,-0.116101 0,-0.06386 0.600444,-2.052694 1.334323,-4.419642 1.328366,-4.284329 3.468529,-9.983806 3.493497,-9.303543 0.0072,0.196428 0.04514,0.71875 0.08429,1.160714 0.38057,4.296014 -0.344617,9.557884 -2.165732,15.714286 -0.246946,0.834821 -1.207236,3.767857 -2.133975,6.517857 -0.926739,2.75 -2.015521,6.245536 -2.419518,7.767857 -0.403994,1.522322 -0.918287,3.450893 -1.142873,4.285714 -0.224587,0.834822 -0.585768,2.872872 -0.802625,4.529 -0.332605,2.540095 -0.381284,3.587649 -0.31117,6.696429 0.07062,3.131343 0.14065,3.862763 0.465874,4.866011 0.210514,0.649398 0.542685,1.384043 0.738155,1.632543 l 0.355402,0.451819 -1.472822,1.070075 c -1.745326,1.268065 -4.846475,3.959449 -9.068241,7.870025 l -3.067905,2.84177 0.03053,5.003964 c 0.03314,5.432559 0.01244,5.576507 -1.016208,7.065877 -0.763252,1.105107 -3.290555,2.641525 -4.759514,2.893443 -0.303711,0.05208 -0.833451,0.167189 -1.177201,0.255789 -2.409083,0.620931 -7.718937,1.020739 -8.835243,0.665256 z"
       id="path4498"
       inkscape:connector-curvature="0"
       transform="translate(0,952.36216)" />
    <path
       style="opacity:0.075;fill:#000000;fill-opacity:1;stroke:#000000;stroke-width:0.17857143;stroke-miterlimit:4;stroke-dasharray:none;stroke-dashoffset:0;stroke-opacity:1"
       d="m 51.78529,72.135867 c 0.833301,-2.185268 1.763011,-4.624739 2.066023,-5.421045 0.55065,-1.447092 0.551598,-1.448231 1.856369,-2.232143 1.304868,-0.78397 1.558433,-1.16196 1.058054,-1.577238 -0.199179,-0.165303 -0.378794,-0.147655 -0.820166,0.08059 -0.310825,0.160734 -0.594864,0.262516 -0.631198,0.226183 -0.03633,-0.03633 0.599231,-1.950741 1.412366,-4.254239 1.295662,-3.670432 2.31017,-5.892274 2.571243,-5.6312 0.04515,0.04515 -0.0165,0.914005 -0.136998,1.930785 -0.138141,1.16562 -0.187401,3.165514 -0.133321,5.412606 0.07326,3.044034 0.144045,3.746259 0.485239,4.813917 0.219707,0.6875 0.554274,1.417858 0.743482,1.623019 0.343964,0.372962 0.343773,0.373198 -1.24968,1.546261 -1.604442,1.181153 -6.725235,5.613586 -7.869182,6.81137 -0.338463,0.354393 -0.672072,0.64435 -0.741354,0.64435 -0.06928,0 0.555823,-1.787947 1.389123,-3.973214 z"
       id="path4502"
       inkscape:connector-curvature="0"
       transform="translate(0,952.36216)" />
    <path
       style="opacity:0.075;fill:#000000;fill-opacity:1;stroke:#000000;stroke-width:0.17857143;stroke-miterlimit:4;stroke-dasharray:none;stroke-dashoffset:0;stroke-opacity:1"
       d="m 41.937312,93.350152 c 0.05464,-0.368303 0.329293,-2.344872 0.610348,-4.392375 0.452683,-3.29783 0.560354,-3.776799 0.943346,-4.196428 0.356397,-0.39049 3.237081,-3.661527 3.480755,-3.952421 0.03956,-0.04723 0.04668,1.961702 0.01582,4.464286 -0.05342,4.332332 -0.07551,4.586483 -0.461519,5.309081 -0.222979,0.417411 -0.470561,0.758929 -0.550183,0.758929 -0.07962,0 -0.252281,0.200893 -0.383688,0.446428 -0.131407,0.245536 -0.309207,0.446429 -0.395112,0.446429 -0.0859,0 -0.368206,0.196593 -0.627338,0.436873 -0.259131,0.24028 -0.536874,0.396252 -0.617206,0.346604 -0.08033,-0.04965 -0.146058,-0.01506 -0.146058,0.07685 0,0.143876 -1.57552,0.925386 -1.865572,0.925386 -0.05661,0 -0.05823,-0.301339 -0.0036,-0.669643 z"
       id="path4504"
       inkscape:connector-curvature="0"
       transform="translate(0,952.36216)" />
    <path
       style="opacity:0.075;fill:#000000;fill-opacity:1;stroke:#000000;stroke-width:0.17857143;stroke-miterlimit:4;stroke-dasharray:none;stroke-dashoffset:0;stroke-opacity:1"
       d="m 48.270765,89.44084 c 0,-0.157284 0.574299,-1.533966 1.276221,-3.059291 l 1.27622,-2.773318 5.846897,-4.070598 5.846897,-4.070597 3.949178,-4.305273 c 3.767273,-4.106967 4.160937,-4.475563 8.546525,-8.002273 l 4.597348,-3.696999 0.479361,-1.89992 0.479362,-1.899919 0.01157,3.839286 0.01157,3.839286 -0.525352,1.110491 c -0.376714,0.796301 -0.732884,1.251008 -1.258868,1.607142 -0.403433,0.273159 -1.139044,0.806022 -1.634687,1.18414 -2.501589,1.908417 -8.396593,6.142693 -9.259388,6.650848 -0.540178,0.318147 -2.026785,1.389391 -3.303571,2.380545 -1.276786,0.991153 -3.848214,2.960555 -5.714286,4.376448 -1.866071,1.415893 -4.625105,3.68528 -6.131187,5.043084 -4.564467,4.115077 -4.493813,4.056166 -4.493813,3.746918 z"
       id="path4508"
       inkscape:connector-curvature="0"
       transform="translate(0,952.36216)" />
    <path
       style="opacity:0.075;fill:#000000;fill-opacity:1;stroke:#000000;stroke-width:0.17857143;stroke-miterlimit:4;stroke-dasharray:none;stroke-dashoffset:0;stroke-opacity:1"
       d="m 15.056479,36.238926 c 0,-0.190158 2.036837,-1.60982 2.736828,-1.907552 1.572042,-0.668646 1.390947,-0.613691 3.513172,-1.066106 2.388207,-0.509117 5.593131,-0.820252 7.723215,-0.749773 0.543209,0.01797 0.669643,0.08959 0.669643,0.3793 0,0.196429 -0.06429,0.357143 -0.142874,0.357143 -0.07858,0 -0.6592,0.41606 -1.290265,0.924578 -1.633417,1.316222 -2.879772,1.574246 -8.38829,1.736565 -2.308036,0.06801 -4.337054,0.188709 -4.508929,0.268218 -0.171875,0.07951 -0.3125,0.105442 -0.3125,0.05763 z"
       id="path4516"
       inkscape:connector-curvature="0"
       transform="translate(0,952.36216)" />
  </g>
</svg>
