<?xml version="1.0" encoding="UTF-8" standalone="no"?>
<!-- Created with Inkscape (http://www.inkscape.org/) -->

<svg
   xmlns:dc="http://purl.org/dc/elements/1.1/"
   xmlns:cc="http://creativecommons.org/ns#"
   xmlns:rdf="http://www.w3.org/1999/02/22-rdf-syntax-ns#"
   xmlns:svg="http://www.w3.org/2000/svg"
   xmlns="http://www.w3.org/2000/svg"
   xmlns:sodipodi="http://sodipodi.sourceforge.net/DTD/sodipodi-0.dtd"
   xmlns:inkscape="http://www.inkscape.org/namespaces/inkscape"
   width="100"
   height="100"
   viewBox="0 0 100 100"
   id="svg2"
   version="1.1"
   inkscape:version="0.91 r13725"
   sodipodi:docname="logo_cos.svg">
  <defs
     id="defs4" />
  <sodipodi:namedview
     id="base"
     pagecolor="#ffffff"
     bordercolor="#666666"
     borderopacity="1.0"
     inkscape:pageopacity="0.0"
     inkscape:pageshadow="2"
     inkscape:zoom="5.6"
     inkscape:cx="63.970569"
     inkscape:cy="54.924384"
     inkscape:document-units="px"
     inkscape:current-layer="layer1"
     showgrid="false"
     units="px"
     inkscape:window-width="1440"
     inkscape:window-height="851"
     inkscape:window-x="0"
     inkscape:window-y="1"
     inkscape:window-maximized="1" />
  <metadata
     id="metadata7">
    <rdf:RDF>
      <cc:Work
         rdf:about="">
        <dc:format>image/svg+xml</dc:format>
        <dc:type
           rdf:resource="http://purl.org/dc/dcmitype/StillImage" />
        <dc:title></dc:title>
      </cc:Work>
    </rdf:RDF>
  </metadata>
  <g
     inkscape:label="Layer 1"
     inkscape:groupmode="layer"
     id="layer1"
     transform="translate(0,-952.36216)">
    <path
       style="opacity:1;fill:#393536;fill-opacity:1;stroke:#000000;stroke-width:0;stroke-miterlimit:4;stroke-dasharray:none;stroke-opacity:1"
       d="m 42.696293,974.86801 c -2.758833,-1.42034 -3.53242,-2.42236 -3.773976,-6.19851 -0.324879,-5.07872 0.831275,-8.23857 5.969491,-11.96067 2.742461,-1.98662 4.961851,-1.9169 7.157296,-1.72094 1.990481,0.17765 3.961282,0.26544 6.284382,2.62182 1.614703,1.63785 3.130797,2.98932 3.929387,4.61666 2.150139,4.38143 0.714058,9.45513 -3.146778,12.33765 -3.374869,2.51971 -12.157938,2.49818 -16.419802,0.30399 z"
       id="path4241"
       inkscape:connector-curvature="0"
       sodipodi:nodetypes="ssssssss" />
    <path
       inkscape:connector-curvature="0"
       id="path4245"
       d="m 41.157939,1030.4911 c -2.758834,1.4203 -3.070913,1.9607 -3.312469,5.7369 -0.324879,5.0788 1.098504,10.675 7.046338,12.8839 5.228894,1.9416 8.248597,3.439 13.134007,-1.5163 5.962144,-6.0476 6.385089,-12.3859 1.09028,-16.339 -3.374869,-2.5198 -13.696293,-2.9597 -17.958156,-0.7655 z"
       style="opacity:1;fill:#393536;fill-opacity:1;stroke:#000000;stroke-width:0;stroke-miterlimit:4;stroke-dasharray:none;stroke-opacity:1"
       sodipodi:nodetypes="ssssss" />
    <path
       inkscape:connector-curvature="0"
       id="path4247"
       d="m 78.006554,993.70851 c 1.420356,-2.75887 1.960865,-3.07095 5.737016,-3.3125 3.19922,-0.20465 6.15712,0.29802 8.724768,2.21016 1.508448,1.12342 2.781466,2.93472 4.158913,4.83614 1.744353,2.40809 1.380779,4.34749 1.324707,6.21639 -0.06568,2.1895 -0.167588,4.282 -2.840931,6.9178 -6.047569,5.962 -12.385829,6.3849 -16.338973,1.0902 -2.519705,-3.3749 -2.959674,-13.69631 -0.7655,-17.95819 z"
       style="opacity:1;fill:#393536;fill-opacity:1;stroke:#000000;stroke-width:0;stroke-miterlimit:4;stroke-dasharray:none;stroke-opacity:1"
       sodipodi:nodetypes="ssssssss" />
    <path
       style="opacity:1;fill:#393536;fill-opacity:1;stroke:#000000;stroke-width:0;stroke-miterlimit:4;stroke-dasharray:none;stroke-opacity:1"
       d="m 22.845085,993.70851 c -1.420353,-2.75887 -1.960863,-3.07095 -5.737016,-3.3125 -5.078708,-0.32489 -9.1615715,-0.70708 -12.8836761,4.43118 -3.78779104,5.22891 -4.64753903,12.47251 0.9008764,16.67221 6.0475687,4.5776 13.0011757,5.462 16.9543197,0.1673 2.519706,-3.3749 2.959671,-13.69631 0.765496,-17.95819 z"
       id="path4249"
       inkscape:connector-curvature="0"
       sodipodi:nodetypes="ssssss" />
    <path
       inkscape:connector-curvature="0"
       id="path4259"
       d="m 46.553508,983.60375 c -1.931182,-0.99425 -4.149501,-3.21863 -4.318586,-5.86194 -0.227418,-3.55508 0.720339,-4.56707 4.317091,-7.17254 3.660225,-2.65145 5.774017,-2.40743 9.193804,1.06135 4.173501,4.23329 4.469561,8.67007 0.763195,11.43729 -2.362408,1.76379 -6.9722,2.07176 -9.955504,0.53584 z"
       style="opacity:1;fill:#2cb9f1;fill-opacity:1;stroke:#000000;stroke-width:0;stroke-miterlimit:4;stroke-dasharray:none;stroke-opacity:1"
       sodipodi:nodetypes="ssssss" />
    <path
       style="opacity:1;fill:#2cb9f1;fill-opacity:1;stroke:#000000;stroke-width:0;stroke-miterlimit:4;stroke-dasharray:none;stroke-opacity:1"
       d="m 43.938302,1022.2169 c -1.931181,0.9941 -1.226624,2.9109 -1.395711,5.5543 -0.227417,3.5551 0.41267,4.8747 4.009422,7.4801 3.660225,2.6515 5.62018,1.7922 9.039967,-1.6766 4.173502,-4.2334 4.315726,-7.4395 0.609363,-10.2067 -2.362408,-1.7638 -9.279736,-2.6871 -12.263041,-1.1511 z"
       id="path4261"
       inkscape:connector-curvature="0"
       sodipodi:nodetypes="ssssss" />
    <path
       style="opacity:1;fill:#2cb9f1;fill-opacity:1;stroke:#000000;stroke-width:0;stroke-miterlimit:4;stroke-dasharray:none;stroke-opacity:1"
       d="m 69.270827,998.62271 c 0.99425,-1.93123 1.834112,-4.30333 4.477419,-4.47241 3.555093,-0.22741 5.490088,1.33562 8.095563,4.93238 2.651453,3.66032 3.330442,5.77412 -0.138343,9.19392 -4.233299,4.1735 -9.285425,2.9312 -12.052625,-0.7752 -1.763795,-2.3624 -1.917936,-5.8953 -0.382014,-8.87869 z"
       id="path4263"
       inkscape:connector-curvature="0"
       sodipodi:nodetypes="ssssss" />
    <path
       inkscape:connector-curvature="0"
       id="path4265"
       d="m 31.119306,996.46895 c -0.994246,-1.93112 -1.372604,-2.14957 -4.015911,-2.31865 -3.555093,-0.22741 -6.413102,1.33562 -9.018573,4.93238 -2.651454,3.66032 -0.869077,5.62022 1.061354,9.19392 2.825362,5.2303 8.670081,4.4696 11.437284,0.7632 1.763792,-2.3624 2.071768,-9.58753 0.535846,-12.57085 z"
       style="opacity:1;fill:#2cb9f1;fill-opacity:1;stroke:#000000;stroke-width:0;stroke-miterlimit:4;stroke-dasharray:none;stroke-opacity:1"
       sodipodi:nodetypes="ssssss" />
    <path
       style="opacity:1;fill:#2cb9f1;fill-opacity:1;stroke:#000000;stroke-width:0;stroke-miterlimit:4;stroke-dasharray:none;stroke-opacity:1"
       d="m 59.490222,984.67113 c -0.662512,-2.0686 0.527399,-2.33678 2.276937,-4.32544 2.353024,-2.67463 4.40237,-3.74411 8.788006,-3.04317 4.463031,0.71332 5.785156,2.38055 5.75051,7.2515 -0.04228,5.9445 -4.508571,8.06045 -9.086076,7.39635 -2.917663,-0.42328 -6.705927,-4.08365 -7.729377,-7.27924 z"
       id="path4267"
       inkscape:connector-curvature="0"
       sodipodi:nodetypes="ssssss" />
    <path
       inkscape:connector-curvature="0"
       id="path4269"
       d="m 32.186688,1011.9746 c -2.068594,-0.6623 -2.490604,-0.5493 -4.479268,1.2002 -2.674636,2.353 -3.590277,5.4791 -2.889336,9.8648 0.713311,4.4631 2.380536,5.7852 7.251492,5.7506 5.944506,-0.042 9.291134,-2.9702 8.627043,-7.5478 -0.423284,-2.9176 -5.314358,-8.2443 -8.509931,-9.2678 z"
       style="opacity:1;fill:#2cb9f1;fill-opacity:1;stroke:#000000;stroke-width:0;stroke-miterlimit:4;stroke-dasharray:none;stroke-opacity:1" />
    <path
       inkscape:connector-curvature="0"
       id="path4271"
       d="m 68.63224,1012.0074 c 2.068593,-0.6624 2.490605,-0.5494 4.479265,1.2002 2.674637,2.3529 3.590275,5.4792 2.889339,9.8647 -0.71331,4.4631 -2.380538,5.7853 -7.251496,5.7505 -5.944501,-0.042 -8.368105,-2.9701 -7.70402,-7.5476 0.222597,-1.5345 -0.16522,-4.5041 1.632211,-6.3948 1.620459,-1.7045 4.439645,-2.3878 5.954701,-2.873 z"
       style="opacity:1;fill:#2cb9f1;fill-opacity:1;stroke:#000000;stroke-width:0;stroke-miterlimit:4;stroke-dasharray:none;stroke-opacity:1"
       sodipodi:nodetypes="sssssss" />
    <path
       style="opacity:1;fill:#2cb9f1;fill-opacity:1;stroke:#000000;stroke-width:0;stroke-miterlimit:4;stroke-dasharray:none;stroke-opacity:1"
       d="m 41.328707,984.70384 c 0.662511,-2.06859 0.549445,-2.49059 -1.20009,-4.47927 -2.35302,-2.67463 -5.47922,-3.59028 -9.864855,-2.88933 -4.463028,0.71331 -5.78516,2.38053 -5.75051,7.25149 0.04228,5.94451 2.970219,9.29109 7.547723,8.62704 1.509265,-0.21895 4.586137,-0.86423 6.455522,-2.6211 1.744454,-1.63946 2.318173,-4.34627 2.81221,-5.88883 z"
       id="path4273"
       inkscape:connector-curvature="0"
       sodipodi:nodetypes="sssssss" />
    <path
       inkscape:connector-curvature="0"
       id="path4251"
       d="m 63.374965,976.85436 c -0.946448,-2.95513 -0.784926,-3.55802 1.714412,-6.39895 3.361462,-3.82091 7.827457,-5.12898 14.09265,-4.12763 2.633615,0.42093 4.347799,2.1512 5.629866,3.26369 1.821704,1.58072 2.614198,3.0114 2.585146,7.0956 -0.0282,3.96295 -1.261784,6.34852 -2.905992,8.48994 -1.879137,2.44739 -5.694141,2.81747 -9.1818,2.31149 -2.655872,-0.3853 -5.403645,0.55401 -8.373308,-2.73624 -1.690889,-1.87343 -3.03052,-6.24165 -3.560974,-7.8979 z"
       style="opacity:1;fill:#393536;fill-opacity:1;stroke:#000000;stroke-width:0;stroke-miterlimit:4;stroke-dasharray:none;stroke-opacity:1"
       sodipodi:nodetypes="sssssssss" />
    <path
       style="opacity:1;fill:#393536;fill-opacity:1;stroke:#000000;stroke-width:0;stroke-miterlimit:4;stroke-dasharray:none;stroke-opacity:1"
       d="m 24.369914,1015.8593 c -2.95513,-0.9464 -4.173346,0.4459 -7.014295,2.9452 -3.82091,3.3614 -5.128965,7.8276 -4.127621,14.0927 1.019013,6.3758 4.016105,7.0338 10.974617,6.9843 8.49215,-0.06 12.811537,-3.0125 11.862839,-9.5517 -0.316954,-2.1848 -0.520203,-6.7409 -2.955637,-9.7575 -2.210956,-2.7385 -6.567625,-4.0171 -8.739903,-4.713 z"
       id="path4253"
       inkscape:connector-curvature="0"
       sodipodi:nodetypes="sssssss" />
    <path
       style="opacity:1;fill:#393536;fill-opacity:1;stroke:#000000;stroke-width:0;stroke-miterlimit:4;stroke-dasharray:none;stroke-opacity:1"
       d="m 76.434991,1015.9062 c 2.955133,-0.9464 3.865678,-0.016 6.706622,2.4836 3.820911,3.3615 6.354486,7.5069 3.819956,13.3234 -2.711204,6.2219 -2.891,6.8583 -9.849511,6.8087 -8.492151,-0.06 -12.477463,-3.707 -11.528772,-10.2464 0.340072,-2.344 0.08816,-5.7765 2.899479,-8.5919 2.187565,-2.1907 5.954487,-3.1376 7.952226,-3.7774 z"
       id="path4255"
       inkscape:connector-curvature="0"
       sodipodi:nodetypes="sssssss" />
    <path
       inkscape:connector-curvature="0"
       id="path4257"
       d="m 37.429943,978.8591 c 0.946444,-2.95514 0.78492,-5.51601 -1.714415,-8.35697 -1.700057,-1.93243 -3.682643,-2.60676 -6.037615,-3.28001 -2.301412,-0.65794 -4.18929,-1.03484 -7.285855,-0.53993 -6.375755,1.01901 -9.03369,3.09309 -8.984193,10.0516 0.03164,4.44875 1.194602,6.80213 3.23501,8.92372 1.854508,1.92827 4.433861,3.85234 7.547451,3.40063 2.251543,-0.32665 7.247728,-0.99284 9.996212,-3.6565 2.339554,-2.26734 2.57112,-4.44344 3.243405,-6.54254 z"
       style="opacity:1;fill:#393536;fill-opacity:1;stroke:#000000;stroke-width:0;stroke-miterlimit:4;stroke-dasharray:none;stroke-opacity:1"
       sodipodi:nodetypes="sssssssss" />
  </g>
</svg>
