<?xml version="1.0" encoding="UTF-8" standalone="no"?>
<svg
    xmlns:dc="http://purl.org/dc/elements/1.1/"
    xmlns:cc="http://creativecommons.org/ns#"
    xmlns:rdf="http://www.w3.org/1999/02/22-rdf-syntax-ns#"
    xmlns:svg="http://www.w3.org/2000/svg"
    xmlns="http://www.w3.org/2000/svg"
    xmlns:sodipodi="http://sodipodi.sourceforge.net/DTD/sodipodi-0.dtd"
    xmlns:inkscape="http://www.inkscape.org/namespaces/inkscape"
    width="200"
    height="100"
    viewBox="0 0 200 100"
    id="threeMountains"
    aria-labelledby="mountainTitleID mountainDescID"
    version="1.1"
    inkscape:version="0.91 r13725"
    sodipodi:docname="3mountains.svg">
    <title id="mountainTitleID">My minimalist art: Three Mountains</title>
    <desc id="mountainDescID">
        This description and title only show up for people using screen readers and those
        who are taking the time to read the source code! I am trying hard to make the work I do
        accessible and this description is part of that effort. You are awesome, Thanks for reading.

        I found myself drawing very simple mountains frequently. The mountins drawn here
        are three black connected triangluar shapes with a light blue body and snow capped peaks.
        The black line, the light blue, and the transparent background (which happens to be white)
        is all that can be seen. These mountains remind me of my childhood home in Washington State.
    </desc>
    <defs
        id="defs4" />
    <sodipodi:namedview
        id="base"
        pagecolor="#ffffff"
        bordercolor="#666666"
        borderopacity="1.0"
        inkscape:pageopacity="0.0"
        inkscape:pageshadow="2"
        inkscape:zoom="2"
        inkscape:cx="139.00761"
        inkscape:cy="-4.4511788"
        inkscape:document-units="px"
        inkscape:current-layer="layer1"
        showgrid="false"
        units="px"
        inkscape:window-width="1440"
        inkscape:window-height="851"
        inkscape:window-x="0"
        inkscape:window-y="1"
        inkscape:window-maximized="1" />
    <metadata
        id="metadata7">
    <rdf:RDF>
        <cc:Work
            rdf:about="">
        <dc:format>image/svg+xml</dc:format>
        <dc:type
            rdf:resource="http://purl.org/dc/dcmitype/StillImage" />
        <dc:title></dc:title>
        </cc:Work>
    </rdf:RDF>
    </metadata>
    <g
        inkscape:label="Layer 1"
        inkscape:groupmode="layer"
        id="layer1"
        transform="translate(0,-952.36216)">
    <path
        style="opacity:1;fill:#f0fafa;fill-opacity:1;stroke:#f0fafa;stroke-width:0.76246095;stroke-miterlimit:4;stroke-dasharray:none;stroke-dashoffset:0;stroke-opacity:1"
        d="m 21.51612,1016.1725 c -1.714131,-1.158 -3.178451,-2.1671 -3.254047,-2.2426 -0.07559,-0.076 4.666294,-8.4575 10.537532,-18.62639 10.522601,-18.22491 10.686957,-18.48995 11.514041,-18.56844 0.461484,-0.0439 1.29179,-0.23854 1.845122,-0.43277 l 1.006061,-0.35312 2.631319,3.64361 c 1.447225,2.00398 2.714797,3.64361 2.816819,3.64361 0.102033,0 0.625378,-1.20088 1.163005,-2.66862 0.537624,-1.46773 1.063547,-2.6686 1.168721,-2.6686 0.105172,0 1.545609,1.10029 3.200967,2.44509 1.655358,1.3448 3.130883,2.49158 3.278949,2.5484 0.14806,0.0568 1.465328,-0.34656 2.927255,-0.89639 2.389745,-0.89879 2.681874,-0.9572 2.894033,-0.5787 0.129785,0.23153 4.223411,7.32967 9.096946,15.77365 4.873535,8.44397 8.770261,15.43167 8.659401,15.52827 -0.11086,0.097 -1.149522,0.6135 -2.308139,1.1486 l -2.106566,0.9727 -2.27965,-0.7285 -2.279657,-0.7286 -1.922702,0.8026 -1.922704,0.8025 -3.787602,-2.5331 c -2.08318,-1.3933 -3.902117,-2.5331 -4.042074,-2.5331 -0.139964,0 -2.51489,1.6191 -5.277624,3.5979 -2.762731,1.9789 -5.21497,3.6482 -5.449422,3.7095 -0.234458,0.061 -1.753984,-0.1973 -3.376733,-0.5747 l -2.950452,-0.686 -1.816944,-2.1338 c -0.999318,-1.1737 -1.945667,-2.1339 -2.102995,-2.1339 -0.157329,0 -3.529241,1.4868 -7.493139,3.304 -3.963897,1.8172 -7.217444,3.2968 -7.230103,3.288 -0.01267,-0.011 -1.425488,-0.9633 -3.139618,-2.1211 z"
        id="path4517"
        inkscape:connector-curvature="0" />
    <path
        style="opacity:1;fill:#f0fafa;fill-opacity:1;stroke:#f0fafa;stroke-width:0.76246095;stroke-miterlimit:4;stroke-dasharray:none;stroke-dashoffset:0;stroke-opacity:1"
        d="m 116.38218,1047.8985 -3.8123,-0.412 -1.73148,-2.5416 c -0.95232,-1.3978 -1.81179,-2.6794 -1.90994,-2.8479 -0.12931,-0.2221 -2.38712,0.4133 -8.19659,2.3067 l -8.018125,2.613 -2.398387,-2.0125 c -3.791411,-3.1815 -2.932143,-3.0692 -7.4862,-0.9789 -2.16787,0.9951 -3.992903,1.8091 -4.055633,1.8091 -0.06273,0 -2.1484,-0.8662 -4.634834,-1.9251 l -4.520776,-1.9251 -1.524923,0.2439 c -0.838706,0.1341 -1.554745,0.2176 -1.591195,0.1857 -0.09628,-0.085 15.955283,-27.9028 16.33592,-28.311 0.266474,-0.2858 0.547602,-0.1906 1.670361,0.5655 1.347687,0.9076 1.353647,0.9089 3.523125,0.7658 l 2.173157,-0.1433 1.384075,2.5837 c 0.761241,1.421 1.513504,2.7605 1.67169,2.9769 0.240507,0.3289 0.676262,-0.1013 2.660497,-2.6246 1.305083,-1.6598 2.397059,-3.0513 2.426612,-3.092 0.02951,-0.041 0.819133,0.4056 1.754606,0.9921 l 1.70088,1.0666 1.57812,-1.5642 c 0.86796,-0.8602 1.65988,-1.5641 1.75983,-1.5641 0.0999,0 1.67547,1.2581 3.50117,2.7957 1.82571,1.5377 3.42754,2.7958 3.55963,2.7958 0.13208,0 0.83245,-0.4256 1.55637,-0.9457 0.72391,-0.52 1.35578,-0.8346 1.40416,-0.6989 0.0484,0.1357 3.22713,5.6789 7.06388,12.3184 l 6.97591,12.0718 -0.81843,0.6357 c -0.45013,0.3497 -2.07647,1.6906 -3.61411,2.9799 -3.20319,2.686 -2.46581,2.5207 -8.38707,1.8806 z"
        id="path4519"
        inkscape:connector-curvature="0" />
    <path
        style="opacity:1;fill:#f0fafa;fill-opacity:1;stroke:#f0fafa;stroke-width:0.76246095;stroke-miterlimit:4;stroke-dasharray:none;stroke-dashoffset:0;stroke-opacity:1"
        d="m 179.92209,1024.737 c -2.14171,-0.9161 -2.44209,-1.1431 -4.76255,-3.6009 -1.48501,-1.5728 -2.892,-3.361 -3.51391,-4.4658 -0.57049,-1.0135 -1.11287,-1.8426 -1.20529,-1.8426 -0.0924,0 -2.40452,0.6381 -5.13798,1.418 l -4.96994,1.4178 -0.88037,1.3765 c -0.48419,0.757 -0.9712,1.3771 -1.08223,1.3778 -0.11098,3e-4 -0.95726,-0.5705 -1.88051,-1.2695 -0.92327,-0.6989 -1.75135,-1.2708 -1.84021,-1.2708 -0.0888,0 -1.73221,0.5719 -3.65191,1.2708 -1.91969,0.699 -3.66594,1.2708 -3.88055,1.2708 -0.21462,0 -1.17579,-0.6347 -2.13595,-1.4105 -1.4378,-1.1617 -2.5225,-1.7244 -6.14966,-3.1902 -2.42216,-0.979 -4.57549,-1.7923 -4.78517,-1.8075 -0.20968,-0.016 -1.75365,0.9197 -3.43107,2.0774 -1.67741,1.1577 -3.188,2.1587 -3.35683,2.2243 -0.16886,0.066 -1.02108,-0.4342 -1.89383,-1.1109 -0.87275,-0.6767 -1.74636,-1.3512 -1.94136,-1.499 -0.28744,-0.2177 1.38008,-3.2726 8.81085,-16.1412 l 9.1654,-15.87267 2.10542,-0.59607 c 1.15797,-0.32783 2.23342,-0.64575 2.38988,-0.70649 0.15645,-0.0608 0.99867,1.09628 1.87158,2.57118 0.87292,1.47489 1.68728,2.74352 1.8097,2.81919 0.12243,0.0757 1.14972,-0.56818 2.28286,-1.43078 1.71983,-1.30919 2.11388,-1.51088 2.38472,-1.22063 0.17846,0.19125 1.32106,1.9203 2.53911,3.84234 1.21806,1.92203 2.25967,3.49457 2.3147,3.49457 0.055,0 1.02779,-1.38474 2.1617,-3.07724 1.16353,-1.73672 2.15763,-2.98129 2.28198,-2.85694 0.12118,0.12119 4.64544,7.88201 10.05391,17.24634 l 9.83356,17.026 -0.3117,1.9061 c -0.40522,2.4781 -0.54704,3.0545 -0.7454,3.0291 -0.0897,-0.011 -1.19171,-0.4608 -2.44895,-0.9985 z"
        id="path4521"
        inkscape:connector-curvature="0" />
    <path
        style="fill:none;fill-rule:evenodd;stroke:#323232;stroke-width:1.52492189;stroke-linecap:butt;stroke-linejoin:miter;stroke-miterlimit:4;stroke-dasharray:none;stroke-opacity:1"
        d="m 17.032846,1013.8988 32.988813,-57.1383 32.447101,56.2"
        id="path4501"
        inkscape:connector-curvature="0" />
    <path
        inkscape:connector-curvature="0"
        id="path4503"
        d="m 64.81373,1043.3806 32.988811,-57.13828 32.447109,56.20008"
        style="fill:none;fill-rule:evenodd;stroke:#323232;stroke-width:1.52492189;stroke-linecap:butt;stroke-linejoin:miter;stroke-miterlimit:4;stroke-dasharray:none;stroke-opacity:1" />
    <path
        inkscape:connector-curvature="0"
        id="path4505"
        d="m 118.70488,1021.2107 32.98882,-57.13832 32.4471,56.20012"
        style="fill:none;fill-rule:evenodd;stroke:#323232;stroke-width:1.52492189;stroke-linecap:butt;stroke-linejoin:miter;stroke-miterlimit:4;stroke-dasharray:none;stroke-opacity:1" />
    </g>
</svg>
